<svg width="32" height="33" viewBox="0 0 32 33" fill="none" xmlns="http://www.w3.org/2000/svg">
<path d="M8.17674 11.8824L8.17676 11.8824L8.5303 11.5288C8.53031 11.5288 8.53031 11.5288 8.53032 11.5288C8.62794 11.4312 8.78621 11.4312 8.88385 11.5288C8.88385 11.5288 8.88385 11.5288 8.88385 11.5288L15.6464 18.2914L16 18.645L16.3535 18.2914L23.1161 11.5288C23.2138 11.4312 23.372 11.4312 23.4696 11.5288L23.8232 11.8824C23.9208 11.98 23.9208 12.1383 23.8232 12.2359L16.1767 19.8824C16.0791 19.98 15.9209 19.98 15.8232 19.8824L8.17674 12.2359C8.17674 12.2359 8.17674 12.2359 8.17674 12.2359C8.07911 12.1382 8.07911 11.98 8.17674 11.8824Z" fill="#111C23" stroke="#111C23"/>
</svg>
