<svg width="128" height="128" viewBox="0 0 128 128" fill="none" xmlns="http://www.w3.org/2000/svg">
<g clip-path="url(#clip0_263_647)">
<path d="M109.972 73.2098L106.742 91.0931C106.662 91.6617 106.569 92.4798 107.836 92.4798H119.516C120.356 92.4798 120.605 91.993 120.774 91.4203L123.543 75.7049C124.286 71.5818 123.286 69.2462 120.512 68.2726C117.988 70.416 114.797 71.9581 111.069 72.9398C110.706 73.0339 110.339 73.128 109.967 73.2098H109.972Z" fill="#111C23"/>
<path d="M0.0427226 91.3449L9.98398 36.3001C10.0642 35.7315 10.4863 35.4043 11.0773 35.4043H26.7469C27.2493 35.4043 27.6714 35.6497 27.76 36.2183L34.7506 72.3735H35.1727L55.4689 36.0588C55.718 35.6497 56.1401 35.4043 56.6467 35.4043H73.4096C74.085 35.4043 74.4227 35.8133 74.2539 36.4637L64.3168 91.5085C64.2324 92.0771 63.8103 92.4043 63.2193 92.4043H51.598C50.9225 92.4043 50.6735 91.9953 50.7537 91.3449L57.6598 53.3163H57.2377L36.4349 91.7499C36.1816 92.2366 35.7595 92.4003 35.2571 92.4003H28.4312C27.8402 92.4003 27.4181 92.0771 27.3379 91.5044L20.4318 53.3163H20.0097L13.1035 91.5044C13.0191 92.073 12.597 92.4003 12.0904 92.4003H0.886991C0.215798 92.4003 -0.126131 91.9912 0.0427226 91.3408V91.3449Z" fill="#E40134"/>
<path d="M107.75 35.4043H86.5802C86.5211 35.4043 86.4831 35.4452 86.4282 35.4534C86.2341 35.4779 86.0483 35.5188 85.909 35.6211C85.795 35.707 85.7106 35.8502 85.6388 36.0179C85.6177 36.0669 85.5755 36.0792 85.5586 36.1365L85.5502 36.1815C85.5375 36.2306 85.4953 36.251 85.4869 36.3001L81.7172 57.2226L75.5709 91.3449C75.4992 91.6108 75.5667 91.8031 75.6554 91.9789C75.706 92.0689 75.7947 92.1385 75.8875 92.1998C75.972 92.2571 76.0775 92.2939 76.1957 92.3184C76.2801 92.3348 76.3139 92.4003 76.411 92.4003H88.4249C88.7415 92.4003 88.9948 92.2939 89.1848 92.118C89.3494 91.9667 89.476 91.7662 89.514 91.5044L92.6294 74.0752H101.954C105.027 74.0752 107.814 73.7193 110.38 73.1262C110.752 73.0403 111.119 72.9503 111.482 72.8562C115.209 71.8786 118.401 70.3324 120.925 68.189C121.039 68.095 121.157 68.0009 121.267 67.9027C123.335 66.0579 124.94 63.8164 126.067 61.2231C127.32 58.3475 128 55.0588 128 51.3569C128 41.1759 120.693 35.3961 107.746 35.3961L107.75 35.4043ZM101.874 63.6609H94.5585L97.7541 45.8308H105.741C111.372 45.8308 113.888 47.7042 113.888 51.6106C113.888 56.2164 112.221 59.6564 109.232 61.6607C107.303 62.9533 104.837 63.665 101.874 63.665V63.6609Z" fill="#E40134"/>
</g>
<defs>
<clipPath id="clip0_263_647">
<rect width="128" height="128" fill="white"/>
</clipPath>
</defs>
</svg>
