<svg width="143" height="57" viewBox="0 0 143 57" fill="none" xmlns="http://www.w3.org/2000/svg">
<g id="logo-xesquet">
<path id="Vector" d="M0.0537109 51.7528C2.99568 46.1547 7.07483 41.41 11.3949 36.8735C15.078 33.0067 18.9284 29.2971 22.6891 25.5037C22.8361 25.3547 22.9402 25.0035 22.8708 24.8198C21.6213 21.5185 21.0538 18.0539 20.3249 14.624C19.9901 13.054 19.5879 11.4942 19.1449 9.95071C18.8978 9.09324 18.5201 8.27047 18.1771 7.44157C17.8199 6.58205 17.1972 5.95936 16.3315 5.62862C16.6418 4.77726 17.728 4.5976 18.463 4.74868C20.0023 5.06309 21.2273 5.80623 21.5866 7.44769C22.046 9.54443 22.4768 11.6514 22.8259 13.7706C23.324 16.8024 23.9182 19.8076 24.8532 22.7394C24.8777 22.8129 24.9165 22.8823 25.0084 23.0844C25.5576 22.6169 26.0782 22.2147 26.5518 21.7615C29.5693 18.8767 32.4991 15.9081 34.6877 12.3129C36.2066 9.81801 37.4234 7.19045 38.0176 4.30973C38.2544 3.15826 38.4238 1.9925 37.842 0.873697C37.5643 0.340836 38.0706 0.27141 38.332 0.059082C38.4994 0.059082 38.6668 0.059082 38.8362 0.059082C39.6794 0.408198 40.5553 0.700154 41.3597 1.12277C42.6398 1.79446 43.4156 2.96022 43.7055 4.31382C43.8627 5.0488 43.7055 5.97161 43.3768 6.66372C42.7031 8.09285 41.8823 9.46482 41.0126 10.7878C39.2466 13.4725 37.1662 15.9102 34.8918 18.1805C32.2663 20.8019 29.6408 23.4233 26.9969 26.0223C26.6355 26.3755 26.6315 26.6144 26.8989 27.0186C28.4812 29.4094 30.8576 30.5567 33.5117 31.2325C34.4161 31.4632 35.3716 31.4938 36.3006 31.6327C36.521 31.6653 36.764 31.7245 36.9396 31.8491C37.3561 32.1472 37.3377 32.5984 36.8579 32.7719C36.3189 32.9679 35.7289 33.0883 35.1552 33.1128C31.2496 33.2823 28.0055 31.8613 25.3881 28.9765C25.1635 28.7295 24.9328 28.4886 24.6736 28.213C23.8916 28.95 23.1097 29.6441 22.3767 30.3853C18.7365 34.0642 15.0412 37.6922 11.497 41.4631C8.6877 44.452 5.98665 47.5532 3.41625 50.7483C2.4179 51.9896 1.39505 52.153 0.0577942 51.8733V51.7467L0.0537109 51.7528Z" fill="#E70033"/>
<path id="Vector_2" d="M75.8508 30.7404C74.8525 31.4815 73.8704 32.2043 72.5944 32.3063C71.8023 32.3696 70.9999 32.4023 70.2119 32.3349C69.1155 32.243 68.3173 31.6408 67.7721 30.6792C66.4533 28.3497 66.7636 25.4118 68.6419 23.2048C69.1931 22.5576 69.8526 21.9921 70.51 21.4449C72.0616 20.1485 73.9276 20.1118 75.7651 20.4058C77.035 20.6099 77.9292 21.5287 78.5723 22.7577C78.6927 22.4862 78.7887 22.2902 78.8724 22.086C79.2807 21.0958 80.8752 20.8222 81.4755 21.7063C81.6878 22.0186 81.6694 22.6148 81.5347 23.0047C81.1917 24.0072 80.7915 25.0055 80.2934 25.9406C78.3743 29.5379 76.4735 33.1475 75.1383 37.0102C74.7606 38.1045 74.5136 39.2723 74.4074 40.4238C74.2665 41.9489 75.1138 42.6675 76.6409 42.4858C77.1983 42.4185 77.7454 42.2653 78.3008 42.1673C78.6621 42.102 79.0276 42.0632 79.4277 42.0081C79.0888 43.2882 77.8373 43.8353 75.6222 43.7169C75.6222 44.0415 75.5977 44.3662 75.6262 44.6867C75.9366 48.3432 74.8423 51.5894 72.6189 54.4436C72.133 55.0683 71.3184 55.4685 70.5977 55.8707C69.9505 56.232 69.2789 56.0422 68.7337 55.5665C67.9926 54.9213 67.5925 54.1169 67.5353 53.1063C67.3169 49.1721 68.6153 45.6034 70.2343 42.1408C71.9432 38.4884 73.799 34.9074 75.5895 31.2937C75.6793 31.112 75.7651 30.9262 75.8529 30.7425L75.8508 30.7404ZM77.6229 24.6258C77.3392 24.0398 77.1003 23.3416 76.696 22.7597C75.8406 21.5307 74.8504 21.3714 73.6357 22.2657C71.4675 23.8622 70.3446 25.9487 70.757 28.7151C70.9938 30.3015 72.1147 30.869 73.5275 30.0912C73.6745 30.0095 73.8194 29.9238 73.9521 29.8237C75.3077 28.7968 76.4123 27.5514 77.1554 26.0141C77.3412 25.6282 77.4351 25.1954 77.625 24.6278L77.6229 24.6258ZM72.7435 42.8941C72.6884 42.9248 72.6169 42.9411 72.5904 42.986C72.3127 43.4536 72.0187 43.9129 71.7757 44.3968C70.6079 46.7099 69.6178 49.0782 69.8138 51.7507C69.8709 52.5224 69.8648 53.3268 70.3385 54.0312C72.9946 51.5669 73.9011 47.1918 72.7455 42.8941H72.7435Z" fill="#E70033"/>
<path id="Vector_3" d="M110.654 4.84849C110.953 4.73416 111.122 4.61371 111.296 4.60962C112.42 4.58717 113.556 4.48916 114.666 4.6137C115.701 4.73007 116.347 5.52426 116.236 6.55732C116.079 8.04566 115.767 9.51766 115.46 10.9856C115.371 11.4184 115.442 11.6328 115.82 11.8349C119.307 13.703 122.906 15.2383 126.902 15.6343C130.783 16.0202 134.607 15.8467 138.271 14.3849C139.076 14.0643 139.841 13.5846 140.527 13.0537C141.416 12.3678 141.403 11.6062 140.595 10.8263C139.527 9.79533 138.159 9.59524 136.761 9.54216C136.177 9.5197 135.591 9.60954 135.005 9.63812C134.746 9.65037 134.486 9.64017 134.227 9.64017C134.217 9.57484 134.207 9.51154 134.196 9.44621C134.788 9.31555 135.376 9.12976 135.977 9.06239C137.859 8.85618 139.696 8.90927 141.346 10.0485C142.951 11.1571 143.133 12.4168 141.824 13.8786C140.534 15.3199 138.817 16.0427 137.042 16.645C131.799 18.4191 126.589 18.0006 121.469 16.204C119.409 15.4812 117.469 14.4176 115.475 13.507C115.23 13.3947 114.993 13.264 114.681 13.1068C114.546 13.4886 114.415 13.8296 114.301 14.1746C112.964 18.2599 111.6 22.339 110.314 26.4406C110.011 27.4022 109.873 28.4434 109.834 29.4561C109.766 31.2323 111.198 32.249 112.904 31.6712C113.421 31.4957 113.888 31.1363 114.331 30.7974C114.589 30.6014 114.75 30.2829 115.044 29.9073C115.25 31.2262 114.293 32.6859 113.027 33.0657C111.608 33.4903 110.164 33.4617 108.807 32.7798C107.666 32.2061 107.057 31.0649 107.419 29.8481C108.284 26.9306 109.258 24.0438 110.173 21.1385C111.026 18.4314 111.873 15.7221 112.69 13.0047C112.959 12.1064 112.931 12.0452 112.082 11.6736C110.767 11.0979 109.436 10.5426 108.074 10.0852C107.615 9.93008 107.039 10.0546 106.532 10.1404C106.316 10.1771 106.04 10.4139 105.975 10.6181C105.93 10.761 106.149 11.0918 106.328 11.1836C106.822 11.4388 107.367 11.594 107.874 11.8308C108.117 11.9451 108.315 12.1534 108.533 12.3188C108.298 12.4984 108.076 12.8087 107.825 12.8353C106.414 12.9762 105.154 12.5413 104.172 11.5287C103.452 10.7855 103.78 9.55034 104.76 9.12976C105.871 8.65203 107.073 8.57443 108.217 8.8378C109.675 9.17263 111.083 9.7157 112.512 10.171C112.725 10.2384 112.931 10.3241 113.168 10.4139C113.476 9.24613 113.394 8.15999 113.141 7.06568C112.845 5.78763 111.559 5.61614 110.65 4.84237L110.654 4.84849Z" fill="#E70033"/>
<path id="Vector_4" d="M58.6031 20.067C59.9505 20.2283 61.3062 20.3426 62.6414 20.5713C63.2212 20.6713 63.7745 20.9837 64.3135 21.2511C64.6585 21.4206 65.1832 21.7044 64.9198 22.1066C64.6932 22.4557 64.1236 22.5925 63.6928 22.7925C63.6071 22.8313 63.456 22.7354 63.3355 22.6986C61.1347 22.0228 58.8848 21.9616 56.6207 22.2066C56.1225 22.2597 55.4447 22.2801 55.3528 22.911C55.2609 23.5377 55.9122 23.6888 56.3655 23.8338C58.0355 24.3666 59.7423 24.7892 61.394 25.3731C62.5679 25.7876 63.7602 26.2633 64.7912 26.9411C66.5837 28.1212 66.496 30.1281 64.7034 31.3102C62.9844 32.4433 61.0306 32.7618 59.0236 32.8618C56.2348 33.0006 53.5399 32.6168 51.0695 31.253C50.3162 30.8365 49.5975 30.2751 49.0177 29.6401C48.1949 28.7398 48.3705 27.67 49.3076 26.8941C50.6775 25.761 53.6011 25.7508 54.9649 26.8941C55.1119 27.0166 55.1527 27.2637 55.2446 27.4536C55.0425 27.5189 54.8383 27.6352 54.6342 27.6373C54.036 27.6475 53.4357 27.5862 52.8396 27.6087C52.6293 27.6169 52.3761 27.7373 52.2271 27.8884C51.3655 28.7622 51.2573 29.3175 52.3312 29.9913C53.8359 30.9365 55.5325 31.3142 57.2903 31.3653C58.209 31.3918 59.1318 31.302 60.0526 31.2918C61.1265 31.2775 61.8799 30.4118 61.4328 28.9888C61.1673 28.1436 60.5549 27.5965 59.7545 27.3249C58.5296 26.9105 57.2658 26.6124 56.0408 26.2041C54.9731 25.8488 53.8808 25.5079 52.8968 24.9811C51.1716 24.0563 51.1491 22.5292 52.8028 21.4675C54.2483 20.5386 55.8693 20.165 57.5823 20.1833C57.9171 20.1874 58.254 20.1833 58.5888 20.1833C58.5929 20.1446 58.599 20.1037 58.6031 20.0649V20.067Z" fill="#E70033"/>
<path id="Vector_5" d="M96.1483 28.4785C96.3423 29.4299 97.1222 30.1506 98.1124 30.2201C98.9658 30.2813 99.8335 30.2711 100.687 30.1935C102.967 29.9873 104.339 28.4153 105.658 26.784C105.685 26.7513 105.695 26.7044 105.724 26.6778C105.983 26.4369 106.246 26.1981 106.507 25.9592C106.601 26.343 106.808 26.7391 106.771 27.1107C106.501 29.9077 103.721 32.525 100.875 32.6128C99.6293 32.6516 98.3533 32.6169 97.1304 32.3964C94.6498 31.9473 93.433 30.2935 93.5249 27.521C93.6371 24.0544 96.0667 20.9552 99.3373 20.0344C101.001 19.5649 102.722 19.6506 104.35 20.208C106.732 21.0226 107.23 23.6297 105.34 25.2834C103.022 27.3108 100.283 28.3418 97.2059 28.4765C96.8588 28.4908 96.5097 28.4785 96.1483 28.4785ZM95.7706 26.9085C96.3525 26.8473 96.9078 26.7922 97.4611 26.7289C99.3904 26.5084 101.169 25.8898 102.71 24.6791C103.127 24.3524 103.406 23.9298 103.292 23.3745C103.176 22.8192 102.755 22.5477 102.232 22.4292C99.074 21.7106 96.4811 23.1806 95.7706 26.9085Z" fill="#E70033"/>
<path id="Vector_6" d="M37.7338 28.6152C38.2463 29.5646 38.8874 30.1464 39.8347 30.2199C40.6881 30.2853 41.5598 30.2934 42.4092 30.1934C44.706 29.9198 46.1249 28.3498 47.456 26.6655C47.6684 26.396 47.9766 26.2 48.238 25.9693C48.3237 26.3388 48.5095 26.7165 48.4789 27.0758C48.2768 29.5482 45.8758 32.1084 43.4157 32.4923C41.8355 32.7373 40.2389 32.8332 38.6771 32.4085C36.3088 31.7634 35.0389 30.026 35.2267 27.6046C35.4983 24.0828 37.2112 21.5063 40.5492 20.2099C42.4173 19.4851 44.3834 19.5586 46.2556 20.2834C48.3196 21.0817 48.8157 23.4356 47.3049 25.0526C46.1616 26.2755 44.6651 26.9452 43.1645 27.5985C41.7599 28.211 40.2695 28.3866 38.7608 28.4805C38.4525 28.4989 38.1483 28.5601 37.7338 28.6152ZM37.4439 26.9207C38.1095 26.8533 38.7097 26.8023 39.3059 26.7288C41.1699 26.5001 42.8787 25.8774 44.3691 24.7137C44.7754 24.3952 45.1429 24.0277 45.0122 23.4499C44.8775 22.8538 44.4385 22.5557 43.8689 22.423C40.588 21.6594 38.2626 23.3336 37.4439 26.9207Z" fill="#E70033"/>
<path id="Vector_7" d="M94.3353 31.4796C93.5268 33.4089 91.3851 33.3089 89.6498 31.5286C88.6004 31.9675 87.6245 32.531 86.5751 32.774C85.4318 33.0394 84.2109 33.168 83.0778 32.5514C82.2224 32.0839 81.7467 31.3714 81.6426 30.4057C81.5058 29.1317 81.7426 27.9068 82.1325 26.7043C82.7185 24.8974 83.3085 23.0926 83.919 21.294C84.0088 21.0286 84.168 20.7489 84.3763 20.5672C84.7478 20.2425 85.2317 19.9894 85.6911 20.3201C86.13 20.6345 86.4158 21.1552 86.2076 21.6962C85.8952 22.5108 85.4726 23.2825 85.0888 24.0685C84.5682 25.1343 83.919 26.1571 83.5453 27.2718C83.0574 28.7275 83.9741 29.8974 85.5135 29.9913C86.0769 30.026 86.6486 30.0301 87.2121 29.9913C88.4615 29.9035 89.2823 29.1685 89.6947 28.0619C90.2623 26.5389 90.7053 24.9709 91.2075 23.4254C91.4015 22.8313 91.5648 22.2209 91.82 21.6513C92.1691 20.8673 92.6938 20.2915 93.6799 20.3957C94.0882 20.4385 94.5027 20.4038 95.0764 20.4038C94.7273 21.345 94.4578 22.1515 94.1332 22.9334C93.439 24.6136 92.6918 26.2714 92.016 27.9578C91.6424 28.8908 91.3872 29.8667 91.5648 30.8957C91.7751 32.1105 92.6162 32.5004 93.6636 31.8716C93.8351 31.7675 94.0107 31.6695 94.3332 31.4837L94.3353 31.4796Z" fill="#E70033"/>
</g>
</svg>
