<svg width="120" height="81" viewBox="0 0 120 81" fill="none" xmlns="http://www.w3.org/2000/svg">
<g id="logo-campos">
<path id="Vector" d="M38.8539 22.8149C37.5338 15.384 36.2137 7.94882 34.8828 0.458025C41.4001 -0.447033 47.6798 0.190573 53.8783 2.34303C51.6595 9.27752 49.4622 16.1521 47.2519 23.0609C45.8376 22.817 44.4512 22.5859 43.0454 22.6202C41.6654 22.6523 40.2853 22.7464 38.8561 22.8149H38.8539Z" fill="#E70033"/>
<path id="Vector_2" d="M15.3589 8.96273C20.4918 4.85253 26.2367 2.17373 32.6213 0.847168C32.8652 1.34784 36.4919 21.8646 36.5133 22.5771C33.7296 23.2703 31.1065 24.3765 28.6759 26.0583C24.2297 20.3498 19.8071 14.6734 15.3589 8.96273Z" fill="#E70033"/>
<path id="Vector_3" d="M20.6411 33.7011C14.7914 31.0586 9.0037 28.444 3.15186 25.7995C5.45836 19.8342 8.93951 14.7312 13.6809 10.3921C17.9537 15.8716 22.2009 21.3212 26.4715 26.7965C25.2883 27.7893 24.18 28.8142 23.2022 29.9717C22.2329 31.1164 21.4156 32.3638 20.6411 33.7011Z" fill="#E70033"/>
<path id="Vector_4" d="M16.7922 44.6215C11.4688 44.936 6.20537 45.2484 0.894841 45.5629C0.0732289 39.5506 0.586742 33.7095 2.41825 27.8833C7.97697 30.3931 13.4779 32.8793 19.0238 35.3827C17.6973 38.3203 16.927 41.35 16.7922 44.6194V44.6215Z" fill="#E70033"/>
<path id="Vector_5" d="M1.26074 47.7521C6.20325 47.4569 11.0901 47.1659 16.0326 46.8706C16.191 50.3068 17.049 53.5483 18.4846 56.7171C14.9457 58.8439 11.4196 60.9621 7.8315 63.1188C4.56645 58.4523 2.39046 53.3579 1.26074 47.7521Z" fill="#E70033"/>
<path id="Vector_6" d="M21.0307 74.934C17.6158 73.402 10.7905 67.5887 9.21143 64.8607C12.4059 62.9286 15.6003 60.9965 18.8418 59.0366C20.6562 62.154 22.997 64.7601 25.8234 66.9725C24.2187 69.6363 22.6354 72.268 21.0307 74.934Z" fill="#E70033"/>
<path id="Vector_7" d="M37.4972 79.9427C32.3771 79.5298 27.5887 78.2203 22.9692 75.9866C24.4135 73.6116 25.8406 71.2687 27.3041 68.8638C28.9366 69.91 30.6205 70.7851 32.4028 71.4613C34.1744 72.1331 35.9931 72.6231 37.938 72.9119C37.7903 75.2527 37.647 77.5592 37.4972 79.9427Z" fill="#E70033"/>
<path id="Vector_8" d="M40.052 73.8833C42.1125 73.9967 44.0895 73.9282 46.0558 73.6372C48.0178 73.3441 49.9392 72.8841 51.8499 72.1694C52.6629 73.9838 53.4696 75.7811 54.2955 77.6212C49.5755 79.3371 44.7635 80.1459 39.7183 80.0518C39.7953 77.9999 39.9472 75.9844 40.052 73.8854V73.8833Z" fill="#E70033"/>
<path id="Vector_9" d="M47.2305 35.6378H52.2372C52.9604 33.603 53.69 31.5575 54.4261 29.4885H56.6192C56.5742 29.649 56.54 29.7988 56.4908 29.9443C55.9537 31.4891 55.4124 33.0339 54.8732 34.5808C54.8262 34.7156 54.7663 34.8483 54.7278 34.9874C54.5951 35.4859 54.7213 35.6613 55.2306 35.6677C56.1142 35.6763 56.9979 35.6763 57.8794 35.6677C58.4657 35.6613 58.624 35.5415 58.823 34.9724C59.4007 33.327 59.972 31.6774 60.5454 30.032C60.6096 29.848 60.678 29.6661 60.7465 29.48H62.9375C62.9032 29.634 62.8861 29.7667 62.8433 29.8908C62.0495 32.1652 61.2429 34.4375 60.4619 36.7162C60.2672 37.2853 59.8971 37.5699 59.3172 37.6148C59.1739 37.6255 59.0284 37.6298 58.885 37.6298C57.1177 37.6298 55.3525 37.6341 53.5852 37.6298C53.0995 37.6298 52.6031 37.6405 52.188 37.1805C52.0853 37.5121 51.9163 37.6405 51.5996 37.6383C49.2931 37.6212 46.9845 37.6298 44.678 37.6276C44.5902 37.6276 44.5004 37.6105 44.3335 37.5934C45.23 34.8782 46.1671 32.2101 47.085 29.5014H49.2995C48.6555 31.5554 47.8917 33.5581 47.2305 35.6399V35.6378Z" fill="#E70033"/>
<path id="Vector_10" d="M95.0124 50.2297H92.7808C93.7072 47.4953 94.6615 44.8165 95.6093 42.1013C95.8254 42.1013 96.0201 42.1013 96.217 42.1013C100.308 42.1013 104.397 42.1013 108.488 42.1013C108.704 42.1013 108.922 42.0949 109.136 42.1206C109.673 42.1847 109.99 42.5164 109.983 43.0577C109.979 43.3936 109.934 43.7467 109.825 44.0612C109.119 46.1002 108.391 48.1307 107.645 50.2383C106.936 50.2511 106.211 50.2511 105.426 50.2361C105.674 49.5065 105.899 48.8454 106.128 48.1864C106.504 47.0994 106.887 46.0147 107.266 44.9277C107.319 44.7758 107.373 44.6196 107.388 44.4613C107.414 44.1831 107.307 44.0505 107.024 44.0462C106.016 44.0355 105.007 44.0334 103.997 44.0462C103.571 44.0526 103.38 44.3607 103.256 44.7223C102.974 45.5375 102.687 46.3506 102.405 47.1658C102.109 48.0152 101.818 48.8646 101.521 49.7141C101.463 49.8809 101.388 50.0457 101.318 50.219H99.1354C99.2039 49.9965 99.2552 49.8125 99.3173 49.6327C99.8586 48.0708 100.404 46.5089 100.946 44.947C100.986 44.8272 101.038 44.7116 101.063 44.5875C101.147 44.2131 101.02 44.0419 100.631 44.0377C99.6767 44.0291 98.7203 44.0377 97.7661 44.0334C97.3938 44.0334 97.1499 44.2174 97.0151 44.5426C96.891 44.84 96.7904 45.1502 96.6856 45.4562C96.202 46.8491 95.7206 48.242 95.237 49.6349C95.1728 49.821 95.098 50.005 95.0167 50.2254L95.0124 50.2297Z" fill="#E70033"/>
<path id="Vector_11" d="M61.5507 62.845H59.3512C59.4154 62.6375 59.4603 62.4684 59.5181 62.3015C60.053 60.7546 60.59 59.2098 61.1271 57.6629C61.157 57.5773 61.187 57.4938 61.2127 57.4082C61.3967 56.8263 61.3004 56.6786 60.7098 56.6744C59.8626 56.6679 59.0153 56.6679 58.168 56.6744C57.5175 56.6786 57.3571 56.7856 57.1388 57.4082C56.5718 59.0194 56.0155 60.6348 55.4528 62.2481C55.3822 62.4513 55.303 62.6503 55.2282 62.8536H52.9858C53.9337 60.1363 54.8687 57.4575 55.823 54.7188C56.0177 54.7188 56.2124 54.7188 56.4049 54.7188C60.4788 54.7188 64.5526 54.7188 68.6264 54.7188C68.8596 54.7188 69.095 54.7252 69.3282 54.7551C69.9059 54.8279 70.2204 55.1445 70.1948 55.7222C70.1777 56.1116 70.0921 56.5075 69.9658 56.8776C69.448 58.3925 68.9046 59.8988 68.3718 61.4072C68.2028 61.8822 68.0338 62.355 67.8583 62.8493H65.6545C65.7144 62.6589 65.7636 62.4898 65.8214 62.3251C66.3499 60.7953 66.8805 59.2654 67.4111 57.7377C67.4646 57.5858 67.531 57.4339 67.5652 57.2777C67.6465 56.8969 67.5887 56.6594 67.088 56.6679C66.1873 56.6829 65.2865 56.6679 64.3836 56.6744C63.8337 56.6808 63.654 56.8199 63.4528 57.3933C63.0164 58.6321 62.5884 59.8731 62.1562 61.1119C61.9551 61.6875 61.754 62.2609 61.5486 62.845H61.5507Z" fill="#E70033"/>
<path id="Vector_12" d="M54.1689 72.0153C57.4147 70.539 60.3781 68.7225 63.0419 66.3325C64.3535 67.5671 65.6587 68.7952 67.0216 70.0768C63.8208 72.8969 60.2818 75.1092 56.3492 76.8059C55.6239 75.2119 54.9114 73.6436 54.1689 72.0153Z" fill="#E70033"/>
<path id="Vector_13" d="M61.9787 37.5694C62.9437 34.8542 63.8915 32.184 64.8501 29.4902C65.0084 29.4795 65.1453 29.4624 65.2844 29.4624C67.2657 29.4624 69.2491 29.4559 71.2304 29.4666C71.5128 29.4666 71.8102 29.5073 72.0713 29.6057C72.557 29.7876 72.8394 30.2241 72.7067 30.7226C72.512 31.465 72.2446 32.1946 71.945 32.905C71.8445 33.1468 71.5535 33.3072 71.3096 33.5447C71.6326 33.9256 71.5085 34.3835 71.3395 34.8499C71.117 35.4576 70.9116 36.0716 70.6998 36.6836C70.4901 37.2976 70.0814 37.6293 69.4117 37.6293C67.0154 37.625 64.619 37.6271 62.2226 37.625C62.1713 37.625 62.1178 37.6036 61.9766 37.5694H61.9787ZM65.3828 34.3321C65.2352 34.7643 65.094 35.1773 64.9378 35.6394C66.1424 35.6394 67.2721 35.6523 68.4018 35.633C68.8554 35.6245 68.9581 35.2265 69.0608 34.8841C69.155 34.5675 68.9988 34.3428 68.6586 34.3385C67.5802 34.3236 66.504 34.3321 65.3828 34.3321ZM66.1082 32.3444C66.2002 32.3701 66.2494 32.3979 66.3007 32.3979C67.3641 32.4001 68.4275 32.4001 69.4909 32.3979C69.5808 32.3979 69.6728 32.3936 69.7583 32.3701C69.9595 32.3102 70.2077 31.8737 70.1542 31.664C70.0921 31.4222 69.8889 31.3987 69.6834 31.3987C68.6051 31.3987 67.5246 31.3987 66.4291 31.3987C66.3157 31.7325 66.2151 32.032 66.1103 32.3423L66.1082 32.3444Z" fill="#E70033"/>
<path id="Vector_14" d="M118.364 47.1765H111.977C111.926 47.2407 111.879 47.2749 111.861 47.322C111.525 48.1971 111.594 48.2955 112.542 48.2955C114.11 48.2955 115.676 48.2955 117.245 48.2955H117.914C117.767 48.9888 117.495 49.5836 117.281 50.2105C117.099 50.219 116.941 50.234 116.78 50.234C114.853 50.234 112.925 50.2426 110.997 50.2297C110.623 50.2276 110.237 50.1976 109.88 50.0971C109.292 49.9302 109.041 49.5044 109.136 48.8989C109.18 48.6165 109.27 48.3383 109.362 48.0687C109.94 46.3849 110.522 44.7031 111.104 43.0214C111.374 42.2426 111.568 42.0971 112.409 42.0949C114.373 42.0885 116.337 42.1056 118.302 42.0885C119.481 42.0778 119.836 42.7368 119.538 43.7275C119.194 44.8764 118.768 46.0019 118.364 47.1787V47.1765ZM116.759 45.2123C116.806 45.1096 116.855 45.0155 116.894 44.9149C116.932 44.8144 116.971 44.7117 116.994 44.6068C117.082 44.2238 116.969 44.0441 116.581 44.0398C115.52 44.0291 114.457 44.0398 113.393 44.0398C113.177 44.0398 112.991 44.1126 112.912 44.318C112.805 44.5961 112.73 44.8871 112.63 45.2102H116.757L116.759 45.2123Z" fill="#E70033"/>
<path id="Vector_15" d="M70.5692 48.2955C70.3296 48.9844 70.1199 49.5857 69.9038 50.2083C69.7262 50.219 69.5658 50.234 69.4074 50.234C67.4796 50.234 65.5518 50.2425 63.624 50.2297C63.2496 50.2275 62.8645 50.1997 62.5072 50.0992C61.8931 49.928 61.6428 49.4894 61.7519 48.8603C61.7968 48.5972 61.8824 48.3361 61.9701 48.0815C62.5478 46.3976 63.1298 44.7159 63.7118 43.0342C63.9835 42.2468 64.1804 42.0949 65.0084 42.0927C66.9725 42.0863 68.9367 42.1056 70.9009 42.0842C72.0862 42.0713 72.4585 42.7239 72.144 43.7616C71.8252 44.81 71.4272 45.8328 71.0785 46.8726C71.0014 47.1016 70.8773 47.1807 70.6441 47.1743C70.1221 47.1636 69.6 47.1722 69.0758 47.1722C67.7599 47.1722 66.4462 47.1722 65.1303 47.1722C64.9356 47.1722 64.7409 47.1722 64.5163 47.1722C64.435 47.4482 64.3494 47.6835 64.3023 47.9253C64.2638 48.135 64.3686 48.2719 64.5954 48.2848C64.7388 48.2912 64.8843 48.2933 65.0276 48.2933C66.6495 48.2933 68.2713 48.2933 69.8931 48.2933C70.0857 48.2933 70.2761 48.2933 70.5671 48.2933L70.5692 48.2955ZM65.3101 45.2144H69.3903C69.4545 45.0411 69.5251 44.8764 69.5743 44.7073C69.7241 44.2045 69.6107 44.0441 69.0843 44.0376C68.2371 44.0291 67.3919 44.0291 66.5446 44.0376C65.6481 44.0441 65.6032 43.8686 65.2951 45.0411C65.2865 45.0732 65.2994 45.1117 65.3079 45.2144H65.3101Z" fill="#E70033"/>
<path id="Vector_16" d="M51.7555 62.8687C50.906 62.8687 50.0588 62.8687 49.2115 62.8687C47.8057 62.8687 46.4 62.873 44.9943 62.8687C44.2411 62.8665 43.8646 62.4921 43.8667 61.739C43.8667 61.51 43.9074 61.2704 43.978 61.0522C44.2411 60.2498 44.5193 59.4517 44.806 58.6558C45.0777 57.9026 45.4094 57.663 46.2181 57.6587C47.7309 57.6502 49.2457 57.6566 50.7584 57.6544C50.9531 57.6544 51.15 57.6544 51.3147 57.6544C51.3746 57.5903 51.4089 57.5689 51.4195 57.5368C51.7084 56.7793 51.6207 56.6467 50.814 56.6445C49.265 56.6403 47.7137 56.6445 46.1647 56.6445C45.9699 56.6445 45.7752 56.6445 45.5271 56.6445C45.5912 56.4263 45.6276 56.2723 45.679 56.1246C45.8437 55.6518 46.0149 55.1832 46.1839 54.7125C46.3701 54.7039 46.5134 54.6889 46.6546 54.6889C48.7087 54.6889 50.7627 54.6868 52.8167 54.6889C53.0307 54.6889 53.2489 54.7103 53.4586 54.7531C53.8865 54.8409 54.1283 55.0848 54.1647 55.5212C54.1882 55.8015 54.1818 56.1075 54.0919 56.3707C53.358 58.4953 52.6028 60.6114 51.8518 62.7296C51.8411 62.7617 51.8111 62.7852 51.749 62.8665L51.7555 62.8687ZM50.7006 59.6336C50.5059 59.6229 50.3626 59.6079 50.2214 59.6079C49.2864 59.6079 48.3513 59.6058 47.4185 59.6079C46.7958 59.6079 46.6397 59.732 46.4749 60.3332C46.3508 60.7868 46.4471 60.9259 46.9242 60.9281C47.9127 60.9345 48.9012 60.9302 49.8897 60.9281C50.0095 60.9281 50.1294 60.9067 50.2599 60.8938C50.4075 60.4702 50.5487 60.0679 50.7006 59.6314V59.6336Z" fill="#E70033"/>
<path id="Vector_17" d="M42.5169 45.0259C42.8529 44.1208 42.7951 44.0352 41.8965 44.0352C40.3474 44.0352 38.7962 44.0352 37.2471 44.0352H36.6437C36.8812 43.3484 37.0887 42.7429 37.3155 42.0903C37.4995 42.0903 37.6771 42.0903 37.8547 42.0903C39.8916 42.0903 41.9285 42.0903 43.9655 42.0903C44.0553 42.0903 44.1452 42.0903 44.2351 42.0903C45.0759 42.116 45.4461 42.5482 45.3305 43.3784C45.3091 43.5367 45.2621 43.695 45.2086 43.847C44.5004 45.8668 43.7879 47.8844 43.0775 49.9042C43.0433 50.0026 42.9984 50.0989 42.9513 50.2102C42.7951 50.2187 42.6517 50.2337 42.5105 50.2337C40.4201 50.2337 38.3297 50.2337 36.2372 50.2337C36.1473 50.2337 36.0575 50.2337 35.9676 50.2273C35.4327 50.1931 35.0775 49.8957 35.0304 49.3672C35.0026 49.0698 35.024 48.7488 35.1139 48.4664C35.377 47.6255 35.6766 46.7953 35.9761 45.9673C36.2265 45.2805 36.5881 45.028 37.3155 45.0259C38.8475 45.0195 40.3795 45.0259 41.9114 45.0237C42.1083 45.0237 42.303 45.0237 42.5191 45.0237L42.5169 45.0259ZM41.8537 46.9687C40.7025 46.9687 39.6434 46.9687 38.5865 46.9687C37.9446 46.9687 37.7156 47.1612 37.5958 47.7796C37.5209 48.1626 37.6022 48.2845 37.9917 48.2888C38.8347 48.2995 39.6798 48.2931 40.5228 48.2931C40.8074 48.2931 41.0898 48.2931 41.3872 48.2931C41.5434 47.8502 41.6846 47.4479 41.8537 46.9665V46.9687Z" fill="#E70033"/>
<path id="Vector_18" d="M82.1661 62.8683C81.2482 62.8683 80.3281 62.8683 79.4102 62.8683C79.2669 62.8683 79.1214 62.8726 78.978 62.8598C78.3255 62.7998 77.9596 62.3955 78.0088 61.7407C78.0323 61.4219 78.1072 61.0989 78.2142 60.795C78.8047 59.0983 79.4124 57.4059 80.0136 55.7113C80.2768 54.9689 80.6148 54.6993 81.4108 54.6929C83.3215 54.68 85.23 54.6715 87.1407 54.695C88.2233 54.71 88.6085 55.2106 88.3603 56.2676C88.2212 56.8603 88.0051 57.4358 87.804 58.0114C87.3482 59.3187 86.8818 60.6217 86.4153 61.9247C86.165 62.6223 85.8269 62.8619 85.0866 62.8662C84.1131 62.8705 83.1396 62.8662 82.1682 62.8662L82.1661 62.8683ZM82.5298 60.9298C82.962 60.9298 83.3921 60.9341 83.8243 60.9298C84.3806 60.9234 84.5496 60.8143 84.74 60.2837C85.0866 59.3208 85.4226 58.3559 85.7499 57.3888C85.9404 56.826 85.8205 56.6527 85.2386 56.6463C84.3934 56.6378 83.5483 56.6378 82.7031 56.6463C82.0463 56.6527 81.8708 56.7875 81.6461 57.4273C81.338 58.3067 81.0363 59.1903 80.7325 60.0718C80.6983 60.1724 80.6576 60.2751 80.6362 60.3799C80.5635 60.7672 80.679 60.9191 81.0706 60.9277C81.5563 60.9384 82.042 60.9298 82.5277 60.9298H82.5298Z" fill="#E70033"/>
<path id="Vector_19" d="M87.4575 62.8256C87.6822 62.1923 87.9026 61.574 88.1294 60.9321C88.6857 60.9321 89.2056 60.9321 89.7255 60.9321C90.7697 60.9321 91.8159 60.9342 92.86 60.9321C93.4955 60.9299 93.6988 60.7844 93.9106 60.2132C94.0112 59.9436 93.9427 59.8066 93.6624 59.7532C93.5233 59.7275 93.3757 59.736 93.2323 59.736C92.1326 59.736 91.035 59.736 89.9352 59.736C89.7726 59.736 89.61 59.7425 89.4495 59.7211C88.6129 59.6119 88.17 58.985 88.4118 58.1763C88.6878 57.2455 89.013 56.3319 89.334 55.414C89.4602 55.0503 89.7212 54.8106 90.1171 54.755C90.3118 54.7272 90.5086 54.6972 90.7055 54.6951C92.7424 54.6908 94.7771 54.6908 96.8141 54.6951C96.9702 54.6951 97.1243 54.7165 97.3425 54.7336C97.1329 55.3391 96.9424 55.8954 96.7499 56.4474C96.6728 56.6678 96.4781 56.6486 96.2984 56.6486C95.5966 56.6486 94.8927 56.6486 94.1909 56.6486C93.5062 56.6486 92.8215 56.6443 92.1369 56.6507C91.9208 56.6507 91.7025 56.6614 91.4928 56.7085C91.1484 56.7855 90.9002 57.1557 90.9836 57.4873C91.0114 57.5986 91.1462 57.7205 91.2596 57.7676C91.3837 57.8189 91.542 57.7911 91.6875 57.7911C92.7873 57.7911 93.8849 57.7911 94.9847 57.7911C95.1644 57.7911 95.3484 57.7847 95.5239 57.8168C96.3476 57.9644 96.7435 58.5593 96.4824 59.3552C96.17 60.3116 95.8042 61.2509 95.4383 62.188C95.2671 62.6267 94.9269 62.8706 94.4348 62.8706C92.1818 62.8706 89.9309 62.8706 87.6779 62.8684C87.6266 62.8684 87.5731 62.8492 87.4597 62.8278L87.4575 62.8256Z" fill="#E70033"/>
<path id="Vector_20" d="M83.8413 50.2043C84.066 49.5667 84.2799 48.9633 84.5153 48.2957C84.71 48.2957 84.9026 48.2957 85.0951 48.2957C86.4281 48.2957 87.7611 48.2957 89.0962 48.2957C89.982 48.2957 90.0483 48.2444 90.365 47.3607C90.2109 47.0697 89.9285 47.0976 89.6611 47.0976C88.5078 47.0976 87.3546 47.104 86.2013 47.0911C85.9531 47.089 85.6942 47.0612 85.4631 46.9799C84.9496 46.798 84.7207 46.4428 84.7485 45.9015C84.7592 45.6897 84.8084 45.4736 84.8747 45.2703C85.1293 44.4851 85.3947 43.702 85.6643 42.9189C85.859 42.3519 86.1542 42.1058 86.7319 42.1016C89.0021 42.0909 91.2722 42.0973 93.5423 42.1016C93.5744 42.1016 93.6087 42.1251 93.7049 42.1593C93.491 42.7755 93.277 43.3917 93.0524 44.0379C92.8191 44.0379 92.6223 44.0379 92.4276 44.0379C91.0582 44.0379 89.6889 44.0379 88.3195 44.04C88.1419 44.04 87.9536 44.0465 87.7889 44.1C87.515 44.1898 87.3674 44.4765 87.3674 44.7868C87.3674 45.0093 87.4637 45.127 87.6798 45.1398C87.8231 45.1484 87.9686 45.1484 88.112 45.1484C89.139 45.1484 90.166 45.1484 91.193 45.1484C91.3193 45.1484 91.4455 45.1462 91.5717 45.1484C92.6972 45.1912 93.1764 45.8673 92.8084 46.9221C92.5132 47.7715 92.1901 48.6103 91.8734 49.4511C91.6744 49.9796 91.3043 50.2407 90.7159 50.2364C88.5356 50.2235 86.3554 50.2321 84.1751 50.23C84.0874 50.23 83.9996 50.215 83.8434 50.2L83.8413 50.2043Z" fill="#E70033"/>
<path id="Vector_21" d="M68.7761 62.8534C69.7496 60.104 70.6996 57.4167 71.6581 54.7101C71.8421 54.6972 72.0005 54.6801 72.1567 54.6801C74.0652 54.6801 75.9759 54.6758 77.8844 54.6822C78.1519 54.6822 78.4257 54.7122 78.6846 54.7785C79.3244 54.9433 79.6196 55.4311 79.5084 56.0858C79.4913 56.1928 79.472 56.2998 79.4356 56.4004C79.1639 57.1621 78.8964 57.9259 78.614 58.6833C78.3808 59.3102 77.9315 59.6141 77.2489 59.6076C75.7726 59.5948 74.2941 59.6034 72.8178 59.6034C72.621 59.6034 72.4263 59.6034 72.193 59.6034C71.7951 60.701 71.4078 61.7751 71.0163 62.8534H68.7739H68.7761ZM72.8713 57.6692C74.0609 57.6692 75.1885 57.6713 76.3182 57.6649C76.4209 57.6649 76.53 57.6264 76.6263 57.5814C76.8082 57.4958 77.0093 57.0701 76.9515 56.8946C76.8745 56.6635 76.6606 56.655 76.4658 56.6314C76.3589 56.6186 76.2497 56.625 76.1428 56.625C75.5865 56.625 75.0302 56.625 74.4739 56.625C74.0652 56.625 73.6565 56.625 73.2393 56.625C73.1109 56.9909 72.9997 57.3076 72.8713 57.6713V57.6692Z" fill="#E70033"/>
<path id="Vector_22" d="M45.9357 29.4604C45.6896 30.158 45.4756 30.7656 45.2531 31.3989C45.0306 31.3989 44.8338 31.3989 44.6369 31.3989C43.2483 31.3989 41.8618 31.3968 40.4732 31.3989C39.857 31.4011 39.7265 31.4952 39.519 32.0665C39.1659 33.0486 38.8193 34.0307 38.4748 35.017C38.2887 35.5519 38.355 35.6589 38.9348 35.6632C40.3042 35.676 41.6757 35.6675 43.045 35.6675C43.2397 35.6675 43.4323 35.6675 43.6826 35.6675C43.5543 36.3457 43.2932 36.9149 43.0664 37.4904C43.0322 37.5781 42.7883 37.6188 42.6406 37.6209C41.5601 37.6316 40.4775 37.6274 39.397 37.6274C38.7658 37.6274 38.1346 37.6338 37.5034 37.6252C37.251 37.6209 36.9963 37.6102 36.7503 37.5632C36.0592 37.4348 35.7062 36.9106 35.8324 36.2216C35.8602 36.0633 35.9073 35.9071 35.9608 35.7552C36.5706 34.005 37.1825 32.2569 37.7944 30.5089C37.8244 30.4233 37.8522 30.3398 37.8886 30.2564C38.1132 29.7193 38.4962 29.4497 39.1017 29.4562C40.976 29.4711 42.8503 29.4604 44.7246 29.4604C45.1012 29.4604 45.4799 29.4604 45.9335 29.4604H45.9357Z" fill="#E70033"/>
<path id="Vector_23" d="M44.808 54.751C44.5876 55.3865 44.3822 55.9749 44.1597 56.6125C43.9735 56.6232 43.7809 56.6424 43.5862 56.6446C42.2896 56.6467 40.9909 56.6446 39.6943 56.6467C39.4974 56.6467 39.2984 56.6638 39.1016 56.6766C38.7785 56.6959 38.571 56.8585 38.4619 57.1666C38.0874 58.2364 37.7002 59.2998 37.33 60.3718C37.1888 60.7826 37.2979 60.9259 37.7643 60.9302C39.1508 60.9388 40.5394 60.9345 41.928 60.9345C42.1249 60.9345 42.3217 60.9345 42.602 60.9345C42.4116 61.6127 42.1698 62.2182 41.9387 62.8473C41.7611 62.8559 41.6028 62.8708 41.4466 62.8708C39.7157 62.8708 37.9869 62.8708 36.2559 62.8708C36.1297 62.8708 36.0034 62.8751 35.8772 62.8644C34.9721 62.7938 34.495 62.1605 34.7689 61.2982C35.1947 59.9631 35.6761 58.6451 36.1361 57.3207C36.3308 56.7601 36.5384 56.2038 36.7266 55.6411C36.9342 55.0184 37.3578 54.6954 38.0147 54.6932C40.1949 54.6911 42.3752 54.6932 44.5555 54.6975C44.6068 54.6975 44.6582 54.7189 44.808 54.7531V54.751Z" fill="#E70033"/>
<path id="Vector_24" d="M45.5981 44.0442C45.8485 43.3424 46.071 42.7241 46.2957 42.0972H55.1494C54.9162 42.7626 54.7022 43.3809 54.4754 44.0271H51.2253C50.4915 46.0897 49.7661 48.1352 49.0301 50.2042H46.7792C47.5045 48.1459 48.2128 46.1368 48.9509 44.0442H45.6003H45.5981Z" fill="#E70033"/>
<path id="Vector_25" d="M75.8327 44.0507H72.5034C72.6489 43.6185 72.7559 43.2462 72.8971 42.8889C73.263 41.9517 72.9763 42.0758 74.0461 42.0737C76.4938 42.0673 78.9437 42.0716 81.3914 42.0737H82.0461C81.8043 42.7669 81.5925 43.3725 81.3636 44.025H78.1114C77.371 46.109 76.6457 48.1524 75.914 50.2107H73.6652C74.3884 48.1545 75.1009 46.1347 75.8327 44.0529V44.0507Z" fill="#E70033"/>
<path id="Vector_26" d="M56.2636 48.2911H61.7239C61.5249 48.9801 61.296 49.5899 61.0606 50.2104H53.3794C54.308 47.4888 55.2238 44.81 56.1438 42.1162H58.3754C57.6758 44.166 56.9868 46.1793 56.2636 48.2911Z" fill="#E70033"/>
<path id="Vector_27" d="M82.1402 50.2171H79.8872C80.85 47.4913 81.7979 44.8082 82.7543 42.1016H84.9988C84.0637 44.8296 83.0945 47.5062 82.1402 50.2171Z" fill="#E70033"/>
<path id="Vector_28" d="M34.7155 26.7904C34.6192 26.5187 34.5465 26.3197 34.4502 26.0522C34.9894 25.8682 35.505 25.6949 36.0356 25.5131C36.0207 25.3184 36.0057 25.1451 35.9864 24.8926C36.7481 25.0424 37.4713 25.1857 38.3058 25.3505C37.6682 25.9175 37.1247 26.401 36.5449 26.9188C36.4465 26.7134 36.3716 26.5593 36.2689 26.3475C35.7746 26.4887 35.2675 26.6321 34.7134 26.7883L34.7155 26.7904Z" fill="#E70033"/>
<path id="Vector_29" d="M19.9397 48.5181C19.9889 49.1172 20.0317 49.6264 20.0788 50.1827C19.7964 50.2019 19.5717 50.2148 19.27 50.2362C19.2208 49.6842 19.1737 49.1642 19.1245 48.5865C19.4198 48.563 19.6573 48.5437 19.9397 48.5202V48.5181Z" fill="#E70033"/>
<path id="Vector_30" d="M21.5571 37.4348C21.8503 36.9042 22.1092 36.4356 22.3894 35.9307C22.6398 36.0826 22.8495 36.2088 23.0891 36.3543C22.8259 36.8379 22.5777 37.2915 22.3017 37.7985C22.0685 37.683 21.8503 37.5782 21.5593 37.4348H21.5571Z" fill="#E70033"/>
<path id="Vector_31" d="M20.5129 39.9062C20.7954 40.0132 21.0072 40.0945 21.2661 40.193C21.0971 40.7193 20.9387 41.22 20.7676 41.7527C20.5129 41.6843 20.2904 41.6244 20.0059 41.5473C20.1043 40.9932 20.3054 40.4904 20.5129 39.9062Z" fill="#E70033"/>
<path id="Vector_32" d="M27.4432 31.0994C27.2613 30.894 27.0987 30.71 26.9019 30.4853C27.3448 30.1216 27.7641 29.7792 28.2199 29.4048C28.4039 29.6423 28.5536 29.8348 28.7205 30.0509C28.2926 30.4018 27.8818 30.7378 27.441 31.0972L27.4432 31.0994Z" fill="#E70033"/>
<path id="Vector_33" d="M24.9228 61.7773C24.711 61.9463 24.5227 62.0961 24.2852 62.2887C23.9364 61.8308 23.6155 61.4114 23.2539 60.9407C23.485 60.7738 23.6797 60.6326 23.9193 60.4614C24.2552 60.9043 24.574 61.3237 24.9228 61.7794V61.7773Z" fill="#E70033"/>
<path id="Vector_34" d="M39.4396 69.8265C39.4032 70.0939 39.369 70.3314 39.3262 70.6331C38.7549 70.539 38.2243 70.4534 37.6509 70.3592C37.7086 70.0661 37.7514 69.8436 37.8049 69.5654C38.3527 69.6532 38.8705 69.7366 39.4375 69.8265H39.4396Z" fill="#E70033"/>
<path id="Vector_35" d="M25.6051 32.9334C25.2414 33.372 24.9119 33.77 24.5546 34.2C24.3513 34.046 24.1587 33.8983 23.9062 33.7079C24.2721 33.2586 24.6166 32.8371 24.9868 32.3813C25.2007 32.5718 25.3826 32.7322 25.6051 32.9312V32.9334Z" fill="#E70033"/>
<path id="Vector_36" d="M31.9702 27.0879C32.1072 27.3639 32.2077 27.5693 32.3275 27.8154C31.8397 28.0807 31.3775 28.3331 30.8747 28.607C30.7357 28.3695 30.6116 28.162 30.4575 27.8988C30.9732 27.6228 31.461 27.3618 31.9702 27.09V27.0879Z" fill="#E70033"/>
<path id="Vector_37" d="M26.6794 63.6987C27.0966 64.0732 27.4796 64.4155 27.9011 64.7942C27.7342 64.9953 27.578 65.1815 27.3769 65.4233C26.9532 65.0467 26.5574 64.6936 26.106 64.2914C26.3049 64.086 26.4804 63.9041 26.6794 63.6987Z" fill="#E70033"/>
<path id="Vector_38" d="M19.4006 44.1553C19.6938 44.2109 19.9163 44.2537 20.1987 44.3072C20.141 44.8335 20.0853 45.3406 20.0276 45.867H19.2017C19.2701 45.2829 19.3322 44.7437 19.4006 44.1553Z" fill="#E70033"/>
<path id="Vector_39" d="M35.2914 68.8875C35.2037 69.1678 35.1331 69.3988 35.0475 69.6749C34.5062 69.478 34.0077 69.2961 33.4492 69.0929C33.5519 68.8297 33.6375 68.6093 33.7445 68.3354C34.2644 68.5195 34.7437 68.6906 35.2914 68.8875Z" fill="#E70033"/>
<path id="Vector_40" d="M20.5047 52.729C20.6567 53.2789 20.7872 53.756 20.9369 54.2995C20.6994 54.3829 20.462 54.4685 20.1603 54.5755C20.0062 54.0171 19.8671 53.5121 19.7109 52.9451C19.9848 52.8702 20.2137 52.8082 20.5026 52.729H20.5047Z" fill="#E70033"/>
<path id="Vector_41" d="M29.5376 67.0259C29.7173 66.7563 29.8457 66.5659 29.9912 66.3477C30.4683 66.6344 30.9219 66.9061 31.4055 67.1992C31.2728 67.4389 31.1616 67.6357 31.0225 67.8882C30.4961 67.6571 30.0532 67.3404 29.5376 67.0281V67.0259Z" fill="#E70033"/>
<path id="Vector_42" d="M46.4174 70.4213C46.3639 70.1346 46.3189 69.8928 46.2676 69.6211C46.8068 69.497 47.3096 69.3836 47.8573 69.2573C47.9301 69.5077 47.9985 69.7409 48.0884 70.0447C47.5214 70.1731 46.9908 70.2908 46.4174 70.4213Z" fill="#E70033"/>
<path id="Vector_43" d="M21.8463 58.6212C21.596 58.1141 21.3628 57.6391 21.0996 57.1063C21.3606 56.9865 21.5789 56.8859 21.8421 56.7661C22.0924 57.2711 22.3256 57.7396 22.5738 58.2446C22.3235 58.373 22.1074 58.4864 21.8463 58.6212Z" fill="#E70033"/>
<path id="Vector_44" d="M43.7686 70.7468H42.0762V70.0236C42.5704 70.0001 43.0818 69.9744 43.6445 69.9487C43.6852 70.2098 43.7215 70.4494 43.7686 70.749V70.7468Z" fill="#E70033"/>
</g>
</svg>
