<svg width="160" height="31" viewBox="0 0 160 31" fill="none" xmlns="http://www.w3.org/2000/svg">
<g clip-path="url(#clip0_171_255)">
<path d="M52.5326 16.5779L54.0666 8.12843C54.0994 7.90745 54.2635 7.78027 54.4915 7.78027H59.0311C59.292 7.78027 59.3904 7.93925 59.3576 8.19202L57.6284 17.8751C57.2675 19.8067 58.0845 20.6604 59.9794 20.6604C61.8743 20.6604 62.9506 19.4569 63.3099 17.527L65.0096 8.12843C65.0407 7.90745 65.1736 7.78027 65.4 7.78027H69.9724C70.2005 7.78027 70.3317 7.93925 70.2989 8.19202L68.7305 16.9578C67.815 22.0848 65.0719 24.2993 59.8465 24.2993C53.9682 24.2993 51.6155 21.7366 52.531 16.5779H52.5326Z" fill="#111C23"/>
<path d="M71.1588 23.6347L73.9676 8.1268C74.0004 7.90583 74.1628 7.77865 74.3597 7.77865H78.6696C78.9321 7.77865 79.0617 7.93762 79.0289 8.19039L78.6384 10.0901H78.8008C80.2052 8.34936 82.0345 7.52588 84.1246 7.52588C88.2393 7.52588 89.9718 10.0901 89.0892 14.8689L87.5207 23.6983C87.4896 23.9193 87.3255 24.0465 87.0958 24.0465H82.5562C82.2937 24.0465 82.1641 23.8875 82.2297 23.6347L83.831 14.6463C84.2887 12.3364 83.6029 11.354 81.708 11.354C79.7163 11.354 78.476 12.5574 78.0494 14.8673L76.4498 23.6967C76.417 23.9177 76.2858 24.0449 76.0577 24.0449H71.5181C71.2556 24.0449 71.126 23.8859 71.1588 23.6331V23.6347Z" fill="#111C23"/>
<path d="M91.1891 23.6347L93.9978 8.1268C94.0306 7.90583 94.1931 7.77865 94.3899 7.77865H98.6998C98.9623 7.77865 99.092 7.93762 99.0591 8.19039L98.667 10.0901H98.8311C100.237 8.34936 102.065 7.52588 104.155 7.52588C108.27 7.52588 110.002 10.0901 109.118 14.8689L107.551 23.6983C107.518 23.9193 107.354 24.0465 107.126 24.0465H102.586C102.326 24.0465 102.194 23.8875 102.26 23.6347L103.861 14.6463C104.319 12.3364 103.633 11.354 101.738 11.354C99.7466 11.354 98.5063 12.5574 98.0797 14.8673L96.4801 23.6967C96.4473 23.9177 96.316 24.0449 96.088 24.0449H91.5484C91.2859 24.0449 91.1563 23.8859 91.1891 23.6331V23.6347Z" fill="#111C23"/>
<path d="M111.221 23.6349L114.03 8.12702C114.062 7.90604 114.225 7.77886 114.422 7.77886H118.994C119.222 7.77886 119.353 7.93784 119.321 8.19061L116.512 23.6985C116.479 23.9195 116.348 24.0467 116.12 24.0467H111.58C111.318 24.0467 111.188 23.8877 111.221 23.6349ZM115.268 0.37544C115.301 0.186261 115.432 0.059082 115.66 0.059082H120.526C120.789 0.059082 120.919 0.216466 120.886 0.43744L120.069 4.89984C120.038 5.08902 119.873 5.2162 119.677 5.2162H114.778C114.55 5.2162 114.418 5.05723 114.451 4.83784L115.268 0.37544Z" fill="#111C23"/>
<path d="M120.565 23.6347L123.373 8.1268C123.406 7.90583 123.569 7.77865 123.765 7.77865H128.075C128.338 7.77865 128.467 7.93762 128.435 8.19039L128.044 10.0901H128.207C129.611 8.34936 131.44 7.52588 133.53 7.52588C137.645 7.52588 139.378 10.0901 138.495 14.8689L136.926 23.6983C136.895 23.9193 136.731 24.0465 136.502 24.0465H131.962C131.699 24.0465 131.57 23.8875 131.635 23.6347L133.237 14.6463C133.694 12.3364 133.009 11.354 131.114 11.354C129.122 11.354 127.882 12.5574 127.455 14.8673L125.856 23.6967C125.823 23.9177 125.692 24.0449 125.463 24.0449H120.924C120.661 24.0449 120.532 23.8859 120.565 23.6331V23.6347Z" fill="#111C23"/>
<path d="M141.673 29.6491L142.196 26.8638C142.229 26.6429 142.393 26.5157 142.588 26.5157H151.341L152.287 21.4826H152.158C150.753 23.066 148.76 24.015 146.801 24.015C143.011 24.015 140.855 21.7369 140.855 17.8452C140.855 11.9282 144.514 7.52783 149.446 7.52783C151.764 7.52783 153.756 8.5405 154.443 10.0603H154.607L154.934 8.13034C154.965 7.90937 155.129 7.78219 155.359 7.78219H159.637C159.898 7.78219 160.028 7.94116 159.997 8.19393L156.893 25.2201C156.305 28.479 154.345 30.0624 150.949 30.0624H142.001C141.773 30.0624 141.641 29.9034 141.674 29.6507L141.673 29.6491ZM148.924 20.2807C151.538 20.2807 153.692 17.4971 153.692 14.2047C153.692 12.2748 152.679 11.2923 150.949 11.2923C148.335 11.2923 146.181 13.9822 146.181 17.3381C146.181 19.2363 147.16 20.2807 148.924 20.2807Z" fill="#111C23"/>
<path d="M42.899 16.5575L41.6439 23.5078C41.6127 23.7288 41.5766 24.0468 42.0688 24.0468H46.6084C46.9349 24.0468 47.0317 23.8576 47.0973 23.635L48.1736 17.5272C48.4623 15.9248 48.0735 15.017 46.9956 14.6387C46.0145 15.4717 44.7742 16.071 43.3255 16.4526C43.1844 16.4891 43.0417 16.5257 42.8973 16.5575H42.899Z" fill="#111C23"/>
<path d="M0.0166041 23.6353L3.88027 2.2422C3.91144 2.02122 4.0755 1.89404 4.30519 1.89404H10.3952C10.5904 1.89404 10.7545 1.98943 10.7889 2.2104L13.5058 16.2621H13.6699L21.558 2.1484C21.6548 1.98943 21.8188 1.89404 22.0157 1.89404H28.5306C28.7931 1.89404 28.9244 2.05302 28.8587 2.30579L24.9967 23.6989C24.9639 23.9199 24.7998 24.0471 24.5701 24.0471H20.0535C19.791 24.0471 19.6942 23.8881 19.7254 23.6353L22.4094 8.85552H22.2454L14.1604 23.7927C14.062 23.9819 13.8979 24.0455 13.7027 24.0455H11.0498C10.8201 24.0455 10.656 23.9199 10.6249 23.6973L7.94081 8.85552H7.77674L5.09269 23.6973C5.05988 23.9183 4.89581 24.0455 4.69894 24.0455H0.344728C0.0838696 24.0455 -0.0490207 23.8865 0.0166041 23.6337V23.6353Z" fill="#E40134"/>
<path d="M41.8771 1.8938H33.6494C33.6264 1.8938 33.6116 1.9097 33.5903 1.91288C33.5148 1.92242 33.4426 1.93832 33.3885 1.97806C33.3442 2.01145 33.3114 2.06709 33.2835 2.13227C33.2753 2.15134 33.2589 2.15611 33.2523 2.17837L33.249 2.19586C33.2441 2.21493 33.2277 2.22288 33.2244 2.24196L31.7594 10.3735L29.3706 23.6351C29.3427 23.7384 29.369 23.8132 29.4034 23.8815C29.4231 23.9165 29.4576 23.9435 29.4937 23.9674C29.5265 23.9896 29.5675 24.0039 29.6134 24.0135C29.6462 24.0198 29.6594 24.0453 29.6971 24.0453H34.3663C34.4894 24.0453 34.5878 24.0039 34.6616 23.9356C34.7256 23.8767 34.7748 23.7988 34.7896 23.6971L36.0004 16.9232H39.6245C40.8189 16.9232 41.9017 16.7849 42.8992 16.5544C43.0436 16.521 43.1863 16.486 43.3274 16.4495C44.7761 16.0695 46.0164 15.4686 46.9975 14.6356C47.0417 14.599 47.0877 14.5624 47.1303 14.5243C47.9342 13.8073 48.5577 12.9361 48.9957 11.9282C49.483 10.8107 49.7471 9.53251 49.7471 8.09379C49.7471 4.13693 46.9072 1.89062 41.8754 1.89062L41.8771 1.8938ZM39.5933 12.8757H36.7501L37.9921 5.94605H41.0961C43.2847 5.94605 44.2625 6.67415 44.2625 8.19236C44.2625 9.98241 43.6145 11.3194 42.4529 12.0984C41.7032 12.6007 40.745 12.8773 39.5933 12.8773V12.8757Z" fill="#E40134"/>
</g>
<defs>
<clipPath id="clip0_171_255">
<rect width="160" height="30" fill="white" transform="translate(0 0.059082)"/>
</clipPath>
</defs>
</svg>
