<svg width="145" height="57" viewBox="0 0 145 57" fill="none" xmlns="http://www.w3.org/2000/svg">
<g id="logo-conte">
<path id="Vector" d="M102.881 39.5733C102.326 39.4018 102.227 39.986 101.974 40.2593C101.19 41.1022 100.486 42.0207 99.6927 42.8519C99.155 43.4158 98.5475 43.9303 97.9197 44.3954C96.7251 45.279 96.1176 45.0232 95.9577 43.5844C95.888 42.9682 95.9316 42.3404 95.9229 41.7184C96.2251 41.0934 96.3589 40.422 96.3995 39.7419C96.4257 39.3321 96.5827 38.8001 95.8909 38.7246C94.4027 38.4368 93.0279 39.1867 91.5717 39.2013C90.2288 39.2158 90.0718 39.0908 90.4759 37.8032C90.7375 36.9661 90.9991 36.1406 91.0601 35.2657C91.0921 34.8239 91.156 34.3036 90.4991 34.2164C89.973 34.1466 89.5109 34.2164 89.2754 34.8065C89.0603 35.3529 88.947 35.908 88.8801 36.4952C88.5895 39.0821 88.3569 39.3088 85.7933 39.7186C84.9911 39.8465 84.5842 40.2796 85.148 40.9801C85.6044 41.5469 85.2701 41.7736 84.933 42.0701C84.5929 42.3695 84.2034 42.6165 83.8808 42.9304C83.1832 43.6135 82.7268 43.4217 82.2356 42.6514C81.2183 41.0615 81.1689 41.0208 82.4391 39.5559C82.9768 38.9338 83.0349 38.3293 82.4536 37.8177C81.9246 37.3526 81.3026 37.4689 80.7823 37.9805C80.4306 38.3263 80.0208 38.6548 79.8871 39.1373C79.4191 40.8464 78.053 41.8201 76.809 42.8578C75.6986 43.785 74.443 44.5204 72.9374 44.6599C72.2979 44.718 71.7427 44.407 71.4986 43.9012C71.1847 43.256 71.8736 43.0206 72.2863 42.7677C73.2455 42.1747 74.0593 41.4132 74.7279 40.5325C75.6289 39.3466 75.5475 38.0299 74.6523 37.2684C73.8733 36.6056 72.6467 36.7074 71.6701 37.777C70.7051 38.835 69.5105 39.0647 68.2316 39.1722C66.4353 39.3233 66.4614 39.3117 66.8393 37.5997C66.9904 36.9196 67.0166 36.2307 67.3043 35.5651C67.595 34.8966 67.3189 34.3908 66.5573 34.2251C65.8249 34.0653 65.5546 34.5943 65.4441 35.1087C65.3133 35.7162 65.1157 36.3179 65.0343 36.9196C64.8018 38.6374 64.3425 39.957 62.1858 39.8291C61.2266 39.7709 60.9912 40.5005 61.5638 41.1632C61.9911 41.6573 61.8312 41.8404 61.4679 42.1282C60.9185 42.5671 60.3982 43.0467 59.814 43.4304C58.7473 44.1309 57.916 43.7239 57.9014 42.4566C57.8898 41.5556 57.573 40.7446 57.3724 39.9046C57.1457 38.9513 56.111 38.492 55.1925 38.8495C54.4426 39.1431 53.8554 39.643 53.3352 40.2709C52.9224 40.7708 52.6521 41.4539 51.9051 41.7184C51.7859 40.9132 51.9545 40.2447 52.2423 39.5878C52.4893 39.0239 52.1812 38.5705 51.7772 38.2973C51.3354 37.9979 50.8762 38.2217 50.6146 38.6664C50.3123 39.1722 49.8879 39.4396 49.3211 39.5122C47.7806 39.707 46.3389 39.4221 45.0804 38.4978C43.9235 37.6462 42.4499 37.6636 41.4209 38.6722C40.4705 39.6053 39.6043 40.64 39.0666 41.8463C38.6916 42.6834 38.1074 43.6077 38.4853 44.5698C38.7672 45.2906 38.4853 45.6278 38.0289 46.0492C36.2007 47.7292 34.2125 49.2029 32.1053 50.4993C29.9137 51.8479 27.6145 53.0135 24.9376 53.0135C23.397 53.0135 22.1094 52.1386 21.8798 50.9876C21.5717 49.447 21.7403 47.9356 22.1385 46.4358C23.182 42.509 25.8299 39.7797 29.0242 37.5532C30.1462 36.7713 31.5646 36.3673 33.0092 36.4661C33.7301 36.5155 33.9335 36.8178 33.3871 37.4602C32.9918 37.9223 32.5122 38.306 32.1983 38.8641C31.8437 39.4977 31.9396 39.9744 32.4134 40.4133C32.9191 40.8813 33.4714 40.8115 33.9858 40.4017C35.0584 39.5501 35.7065 38.399 36.0466 37.1143C36.2879 36.2103 34.9741 34.2106 34.1748 34.3501C32.5558 34.6262 30.9164 34.2658 29.2887 35.0855C23.5366 37.9805 19.8045 42.2416 19.2435 48.8454C18.8976 52.903 21.249 55.333 25.327 55.1818C27.0012 55.1208 28.5708 54.5656 30.0648 53.8913C33.6138 52.2868 36.721 50.0284 39.4619 47.2642C39.8107 46.9125 40.1479 46.6596 40.7292 46.6247C43.0748 46.4823 44.9118 45.4883 45.8826 43.2298C46.1616 42.9653 46.4 42.6107 46.3564 42.259C46.2285 41.1778 46.897 41.1807 47.6353 41.2272C48.0102 41.2359 48.3939 41.3057 48.7572 41.2417C49.6699 41.0847 49.8618 41.3608 49.6496 42.2648C49.4839 42.974 49.5798 43.753 49.6176 44.4971C49.6467 45.0116 49.8879 45.4708 50.4024 45.6685C50.9139 45.8661 51.2395 45.5173 51.5883 45.2034C52.5155 44.3692 53.1288 43.2909 53.8729 42.3142C54.2711 41.7881 54.5995 40.9685 55.2942 41.1225C56.0819 41.294 55.8523 42.2067 55.9191 42.8403C56.1604 45.122 57.5032 46.2207 59.4187 45.6132C60.0349 45.4185 60.6453 45.0697 61.1423 44.6541C62.0521 43.8925 62.8805 43.0292 63.7583 42.195C64.0286 42.7502 63.6856 43.1484 63.6071 43.5844C63.3891 44.8197 62.7729 46.0434 63.4327 47.3107C63.7873 47.988 64.3599 48.2495 65.0866 47.9036C65.5081 47.7031 66.2492 47.4211 65.8045 46.8863C65.0226 45.9475 65.3453 44.9622 65.4732 44.035C65.604 43.0874 65.5691 41.7794 66.3597 41.3173C67.3509 40.736 68.6559 40.5267 69.8883 40.954C69.4233 41.9219 69.1442 42.9043 69.6442 43.9536C69.868 45.6801 71.0044 46.5782 72.8414 46.4707C75.1435 46.337 76.8061 44.9825 78.3611 43.4885C79.7447 42.1602 79.7127 42.1253 80.6951 43.7065C81.4159 44.8662 81.3578 45.0901 80.1516 45.6772C79.7795 45.8574 79.3988 46.0202 79.0238 46.1945C78.3407 46.5143 77.6868 46.9822 77.9832 47.7903C78.2797 48.6012 79.1226 48.1856 79.7388 48.1943C79.9249 48.1943 80.137 48.0664 80.2969 47.9472C81.3084 47.1886 82.3025 46.4067 83.314 45.6481C84.8399 44.5058 86.177 43.1513 87.5838 41.791C87.7233 42.2067 87.5809 42.4625 87.517 42.7415C87.2263 44.0204 86.8106 45.2935 86.9676 46.6218C87.0228 47.0811 87.1623 47.7293 87.7117 47.8077C88.2465 47.8833 88.976 47.8542 89.3452 47.5432C89.8335 47.1334 89.4469 46.5666 89.0255 46.1597C88.9499 46.0841 88.9121 45.9301 88.9208 45.8167C89.0313 44.2791 89.2173 42.7066 89.9934 41.3928C90.4817 40.5644 91.6967 40.9946 92.5657 40.765C92.6849 40.733 92.8157 40.7447 92.9378 40.7214C93.6818 40.579 94.0074 40.8319 93.9551 41.6341C93.8969 42.5439 93.8766 43.4681 93.9493 44.3779C94.1149 46.4852 95.5566 47.3892 97.5593 46.7846C98.3557 46.5434 98.8963 46.0231 99.4747 45.5086C101.038 44.1192 102.213 42.4102 103.413 40.7243C103.399 40.2651 103.436 39.7506 102.884 39.5791L102.881 39.5733ZM73.3094 38.556C73.4489 39.8669 72.9199 40.4627 71.9404 40.8755C71.7863 39.7506 72.6176 39.3437 73.3094 38.556ZM41.3686 44.8895C40.6362 44.8691 40.3688 44.2326 40.5344 43.4623C40.8367 42.0672 41.7668 41.0644 42.6156 40.0064C43.0022 39.5239 43.3451 39.9279 43.7172 40.0325C44.4932 40.2534 44.4351 40.9365 44.5892 41.3928C44.5427 42.7647 42.604 44.9244 41.3657 44.8895H41.3686Z" fill="#E70033"/>
<path id="Vector_2" d="M35.282 13.7308C33.259 14.8266 31.3523 18.082 31.5703 20.0468C31.7185 21.3781 32.5062 21.8751 33.8171 21.7966C35.1163 21.7181 35.8982 20.8868 36.7557 20.1544C37.119 19.8463 37.2876 19.6341 37.7614 20.009C39.0228 21.0089 40.5197 20.9799 41.8481 20.0875C43.1037 19.2417 44.1821 18.2011 45.1907 17.0763C45.4145 17.3553 45.5831 17.5907 45.7778 17.8029C46.4318 18.5092 46.3388 19.0818 45.6063 19.7126C44.9959 20.2416 44.4902 20.8839 44.1821 21.6804C43.8652 22.4942 43.8914 23.1947 44.7343 23.5115C45.615 23.8429 46.115 23.2209 46.3271 22.4506C46.5074 21.7966 46.8852 21.2793 47.2108 20.7125C47.6322 19.9771 47.827 19.887 48.5217 20.5177C50.5883 22.3983 52.8903 21.9274 54.5005 19.9189C54.9511 19.3551 55.4975 18.765 56.2823 18.1808C56.3346 18.7418 56.3637 19.108 56.4015 19.4742C56.6398 21.7821 58.5756 22.8401 60.5957 21.7356C62.1391 20.8926 63.3076 19.6138 64.4441 18.3058C64.6563 18.0616 64.7522 17.5268 65.2725 17.9657C66.7374 19.201 66.6182 20.4131 64.9411 21.1949C64.6795 21.317 64.4179 21.4391 64.1563 21.5525C63.4849 21.846 62.9268 22.3838 63.2233 23.0697C63.543 23.808 64.3104 23.8545 65.037 23.4389C68.1674 21.6455 70.7631 19.2126 73.1959 16.5909C73.5243 16.2363 73.6202 15.5997 73.318 15.3236C72.9604 14.9951 72.4285 15.1608 72.0361 15.5997C71.0973 16.6548 70.0306 17.5733 68.8883 18.4075C68.6151 18.6081 68.3041 18.951 68.0425 18.6633C67.4059 17.9599 66.9496 17.1083 66.6822 16.2014C66.4874 15.5387 67.2228 15.4166 67.5629 15.0707C68.1355 14.4923 68.307 13.722 67.7809 13.1698C67.3216 12.6902 66.5136 12.8559 66.0049 13.2948C65.5806 13.661 65.2027 14.1697 65.008 14.6929C64.0953 17.1373 62.0868 18.4714 60.0347 19.7881C59.2093 20.3171 58.8111 20.0178 58.4274 19.201C57.7327 17.7215 58.4797 16.2973 58.4594 14.8498C58.4536 14.5214 58.7442 14.0127 58.3605 13.9342C57.9769 13.8586 57.4072 13.722 57.0584 14.1929C56.8636 14.4574 56.6369 14.7103 56.4945 15.001C55.5934 16.8089 54.2419 18.236 52.6548 19.4306C51.8294 20.0526 50.0534 19.5585 49.5564 18.7069C49.3471 18.3465 49.6465 18.3436 49.8035 18.1808C50.4284 17.5268 51.0272 16.8496 51.6114 16.1607C52.0183 15.6782 52.1491 15.0969 51.8352 14.5417C51.5242 13.9924 50.937 14.2569 50.4662 14.2481C49.7628 14.2365 49.8674 14.9603 49.6058 15.3323C49.1204 16.0212 48.728 17.1984 47.9665 17.085C47.1613 16.9658 46.9637 15.7828 46.9056 14.9021C46.8678 14.3063 46.5684 13.9371 46.0249 13.8703C45.4988 13.8063 45.0599 14.0621 44.868 14.6086C44.2518 16.3583 42.8131 17.3262 41.3743 18.297C40.729 18.733 40.0343 19.0615 39.3222 18.515C38.6072 17.9657 38.8543 17.1693 38.9618 16.4368C38.9909 16.2334 39.0548 16.027 39.1449 15.841C39.9035 14.2743 38.7699 13.3035 37.026 13.1378C36.3807 13.0768 35.8343 13.4372 35.2907 13.7308H35.282ZM37.337 15.7567C37.2527 17.4716 35.7384 19.4219 34.1107 19.9974C33.4625 20.2241 33.2881 19.8783 33.4102 19.4161C33.8578 17.7041 34.6222 16.1636 36.2209 15.2248C36.7789 14.8963 37.3748 14.7452 37.337 15.7567Z" fill="#E70033"/>
<path id="Vector_3" d="M121.457 34.2049C117.801 31.9494 113.761 32.1412 109.909 33.362C106.732 34.3677 104.634 36.8005 103.91 40.1954C103.715 40.3379 103.742 40.6925 103.422 40.7187C103.434 41.1459 103.442 41.5732 103.454 42.0005C103.454 43.4683 103.448 44.939 103.445 46.4069C103.422 46.8371 103.364 47.2702 103.631 47.6596C103.776 48.552 104.026 49.421 104.433 50.2233C105.942 53.2025 108.186 55.2488 111.627 55.7226C113.749 56.1789 115.874 56.1644 117.996 55.7197C121.751 55.4988 125.669 51.415 125.945 47.43C126.311 45.3576 126.335 43.2852 125.951 41.2128C125.57 38.1637 124.021 35.789 121.457 34.2078V34.2049ZM113.862 54.6355C113.987 54.6733 114.112 54.7024 114.237 54.7227C114.362 54.7431 114.487 54.7489 114.612 54.746C114.487 54.7489 114.362 54.7402 114.237 54.7227C114.112 54.7053 113.987 54.6733 113.862 54.6355ZM117.897 53.7781C117.252 53.9728 116.67 54.4204 115.938 54.2373C114.932 54.4815 113.932 54.1123 112.926 54.1937C109.383 53.252 106.892 51.1418 105.669 47.6451C105.509 47.183 105.448 46.6888 105.343 46.2063C105.015 44.8635 105.207 43.5265 105.378 42.1894C106.108 37.3267 111.741 33.2196 116.941 34.5653C121.286 35.6902 124.1 39.742 124.425 43.1515C124.96 48.7264 121.385 52.7259 117.894 53.7781H117.897ZM114.624 54.746C114.737 54.7431 114.848 54.7285 114.961 54.7053C114.848 54.7285 114.737 54.7402 114.624 54.746ZM115.249 54.6239C115.438 54.5541 115.63 54.4553 115.821 54.3216C115.63 54.4553 115.441 54.557 115.249 54.6239Z" fill="#E70033"/>
<path id="Vector_4" d="M6.01817 19.8461C9.17476 15.9192 12.1308 11.8441 15.174 7.83593C16.1593 6.53667 16.9877 4.95548 18.9875 4.94966C19.1473 4.94966 19.3305 4.90026 19.4584 4.81015C19.906 4.49915 19.906 4.02826 19.7781 3.57773C19.6764 3.2115 19.47 2.84237 18.9846 2.99061C17.8016 3.35394 16.5256 3.47891 15.4676 4.16197C13.8602 5.19963 12.5668 6.53377 11.503 8.1702C8.16907 13.3004 4.72765 18.3608 1.32691 23.4473C0.992652 23.7147 0.771744 24.0258 0.812437 24.4879C0.914168 25.6593 0.963586 26.8365 1.32691 27.9671C1.48387 29.9669 1.3211 31.9928 1.81522 33.9635C1.73674 35.9865 1.88497 37.992 2.31806 39.9743C2.33841 40.3929 2.35876 40.8115 2.3762 41.23C2.28318 42.7415 2.3762 44.2354 2.84998 45.6858C3.04472 46.0811 3.41094 45.9562 3.72776 45.9591C8.0964 45.9649 12.465 45.9649 16.8308 45.9591C17.1825 45.9591 17.5981 46.0957 17.819 45.6481C17.819 43.9041 17.6766 43.7442 16.0344 43.7239C14.9909 43.7093 13.9503 43.7094 12.9069 43.7035C10.5728 43.689 8.23593 43.6919 5.90192 43.6512C5.46011 43.6425 4.89914 43.7791 4.80903 42.9827C4.61138 41.2562 4.30909 39.5442 3.91088 37.8467C3.66382 36.8032 3.44582 35.7191 3.45745 34.6553C3.4807 32.9084 3.29759 31.2226 2.97787 29.5018C2.66977 27.848 2.80347 26.1069 2.77731 24.4036C2.7744 24.1885 2.95461 23.9531 3.09703 23.7584C4.05331 22.4417 5.00087 21.1046 6.01237 19.8461H6.01817Z" fill="#E70033"/>
<path id="Vector_5" d="M24.141 4.11258C25.978 3.75507 27.7917 3.22897 29.6316 3.25513C29.6461 5.10083 29.3206 6.78957 29.12 8.49285C28.4544 10.7368 29.4427 13.0359 28.8875 15.2827C28.8381 17.0703 28.78 18.8578 28.7393 20.6454C28.7218 21.3866 27.8062 22.5347 29.3235 22.6568C30.7303 22.7701 30.2304 21.4941 30.3641 20.721C30.7506 19.567 30.5588 18.3724 30.6228 17.1952C30.8843 16.829 30.8408 16.4017 30.8437 15.9919C30.8611 13.8352 30.9279 11.6756 30.8524 9.51887C30.7797 7.4639 31.2215 5.46706 31.3668 3.43824C31.393 3.07201 31.5616 2.8424 31.9249 2.70288C32.5469 2.46744 33.1631 2.21746 33.8433 2.21746C34.9158 2.21746 35.9883 2.22328 37.0609 2.22328C38.0114 2.22328 38.4009 1.85415 37.8951 0.921125C37.0725 -0.148509 35.8808 0.110175 34.9304 0.389209C31.2215 1.46756 27.3935 1.69719 23.6004 2.139C22.4028 2.27851 22.429 2.62149 22.6935 3.55161C22.9667 4.50788 23.5452 4.22885 24.1439 4.11258H24.141Z" fill="#E70033"/>
<path id="Vector_6" d="M95.1989 37.2338C96.5911 36.6234 97.7044 35.5799 98.9862 34.7951C99.396 34.5423 99.1344 34.24 98.9833 33.9464C98.7769 33.5511 98.4281 33.368 98.0677 33.554C96.6551 34.2836 95.225 34.9986 94.1409 36.2165C93.9112 36.4752 93.8618 36.7426 94.0275 36.9983C94.1699 37.2221 94.3763 37.4634 94.9111 37.2774C94.882 37.2803 95.0593 37.2948 95.2018 37.2338H95.1989Z" fill="#E70033"/>
<path id="Vector_7" d="M58.9912 8.70811C58.0611 8.75752 57.3315 9.46092 57.3286 10.3445C57.3286 11.1874 57.8605 11.2398 58.4971 11.2369C59.4155 11.2311 60.055 10.9665 59.9126 9.79518C60.0521 9.13538 59.9039 8.65869 58.9912 8.70811Z" fill="#E70033"/>
<path id="Vector_8" d="M143.466 33.4463C143.623 32.522 143.001 31.8099 142.771 30.9932C142.219 29.0312 138.871 26.6768 136.784 26.4385C134.877 26.2234 132.915 25.9938 131.125 25.3601C128.416 24.3981 125.599 24.183 122.82 23.7528C121.152 23.4941 119.539 23.0145 117.902 22.6686C116.353 22.3431 114.789 22.2617 113.255 21.9478C111.947 21.6775 110.52 21.6019 109.47 20.6892C106.814 18.3872 104.224 16.0067 101.617 13.6494C97.6259 10.0452 93.6409 6.43517 89.6589 2.82225C89.1531 2.36301 88.5892 2.06073 87.9062 1.99388C86.0895 1.81948 84.2729 1.63927 82.4446 1.741C80.1019 1.45034 77.7475 1.32825 75.3844 1.31372C73.9835 1.28756 72.5825 1.26431 71.1844 1.23815C68.4144 0.962017 65.6386 0.726579 62.8512 0.781805C61.5374 0.767272 60.2236 0.75275 58.9069 0.738217C55.823 0.35745 52.7303 0.168515 49.6231 0.278967C48.7047 0.685893 47.7716 0.549292 46.8473 0.325482C45.9172 0.0987666 44.9697 0.0348169 44.0192 0.0667896C43.528 0.0842293 43.1152 0.36035 43.1298 0.912606C43.1443 1.46486 43.5919 1.55498 44.0279 1.50557C45.1528 1.37768 46.2282 1.834 47.3444 1.76715C49.9371 2.09269 52.5414 2.26128 55.1544 2.2264C56.474 2.24093 57.7936 2.25547 59.1133 2.2671C61.5316 2.64496 63.9644 2.74378 66.4088 2.70309C67.8011 2.72344 69.1934 2.74377 70.5856 2.76412C74.2509 3.22046 77.9307 3.29894 81.6192 3.2379C83.4794 3.36579 85.3396 3.49659 87.1998 3.62157C87.7056 3.65645 88.1154 3.78434 88.5311 4.15929C91.1005 6.48167 93.731 8.73721 96.3063 11.0538C99.5326 13.9546 102.843 16.774 105.889 19.855C108.241 22.2326 111.025 23.2383 114.194 23.7208C117.286 24.1917 120.353 24.8311 123.425 25.4095C127.515 26.1769 131.622 26.8774 135.685 27.7697C137.589 28.1883 139.408 28.8655 140.359 30.9525C140.923 32.1936 141.321 33.4899 141.899 34.7165C142.21 36.7977 142.094 38.8788 141.917 40.9599C141.833 42.0412 141.08 42.0935 140.237 42.0964C136.362 42.1139 132.488 42.1487 128.613 42.1923C128.084 42.1981 127.419 41.9395 127.401 42.9393C127.381 43.9363 128.038 43.7241 128.575 43.7241C132.994 43.7299 137.415 43.6747 141.833 43.7532C143.048 43.7735 143.51 43.3666 143.46 42.2272C144.277 39.3002 144.225 36.3704 143.46 33.4434L143.466 33.4463Z" fill="#E70033"/>
<path id="Vector_9" d="M103.419 40.7041C103.419 40.7041 103.413 40.7128 103.41 40.7186C103.41 40.7186 103.416 40.7186 103.422 40.7186C103.422 40.7157 103.422 40.7099 103.422 40.707L103.419 40.7041Z" fill="#E70033"/>
</g>
</svg>
