<svg width="196" height="57" viewBox="0 0 196 57" fill="none" xmlns="http://www.w3.org/2000/svg">
<g id="logo-burguera">
<g id="Group">
<path id="Vector" d="M136.467 50.2383C135.802 49.8801 135.013 49.5882 134.101 49.3624C133.249 49.1668 132.59 48.908 132.121 48.5889C131.651 48.2699 131.413 47.9207 131.413 47.5415C131.413 47.1201 131.615 46.7981 132.018 46.5724C132.422 46.3466 132.994 46.2353 133.731 46.2353C134.426 46.2353 135.149 46.2654 135.898 46.3256C136.647 46.3858 137.34 46.467 137.981 46.5724L137.969 44.7394C135.973 44.5769 134.501 44.4956 133.553 44.4956C132.605 44.4956 131.865 44.613 131.209 44.8478C130.553 45.0825 130.05 45.4226 129.701 45.8651C129.352 46.3075 129.18 46.8312 129.18 47.4362C129.18 48.2097 129.544 48.8989 130.276 49.5009C131.007 50.1058 132.021 50.5573 133.322 50.8613C134.27 51.078 135.007 51.3609 135.534 51.7041C136.061 52.0472 136.325 52.4234 136.325 52.8327C136.325 53.3113 136.121 53.6785 135.714 53.9403C135.308 54.1991 134.73 54.3316 133.987 54.3316C133.243 54.3316 132.413 54.2774 131.606 54.1721C130.796 54.0667 130.071 53.9223 129.424 53.7387L129.436 55.5506C130.095 55.7131 130.857 55.8365 131.711 55.9238C132.569 56.0111 133.43 56.0562 134.294 56.0562C135.158 56.0562 135.928 55.9298 136.56 55.677C137.192 55.4241 137.677 55.0599 138.014 54.5874C138.351 54.1119 138.52 53.549 138.52 52.8959C138.52 52.3903 138.345 51.9117 137.993 51.4572C137.641 51.0028 137.135 50.5995 136.47 50.2413L136.467 50.2383Z" fill="#E70033"/>
<path id="Vector_2" d="M143.483 39.373H141.258V51.6198C141.27 53.0886 141.779 54.1932 142.784 54.9246C143.802 55.665 145.349 56.0352 147.422 56.0352L147.41 54.2865C146.116 54.2865 145.138 54.0577 144.476 53.5972C143.811 53.1367 143.48 52.4595 143.48 51.5687V46.4881H148.033V44.7395H143.48V39.373H143.483Z" fill="#E70033"/>
<path id="Vector_3" d="M158.661 51.0717C158.661 51.7399 158.54 52.3147 158.303 52.7993C158.065 53.2839 157.719 53.6541 157.27 53.9099C156.822 54.1657 156.286 54.2952 155.669 54.2952C155.01 54.2952 154.438 54.1657 153.963 53.9099C153.484 53.6541 153.117 53.2839 152.861 52.7993C152.605 52.3147 152.476 51.7369 152.476 51.0717V44.7271H150.251V51.3366C150.251 52.3208 150.465 53.1665 150.896 53.8708C151.323 54.5781 151.943 55.1168 152.756 55.49C153.568 55.8632 154.537 56.0498 155.669 56.0498C156.801 56.0498 157.695 55.8632 158.477 55.49C159.26 55.1168 159.859 54.5781 160.268 53.8708C160.68 53.1635 160.885 52.3208 160.885 51.3366V44.7271H158.661V51.0717Z" fill="#E70033"/>
<path id="Vector_4" d="M173.039 45.8467C172.738 45.5638 172.398 45.323 172.015 45.1214C171.206 44.697 170.258 44.4833 169.168 44.4833C167.958 44.4833 166.905 44.7211 166.005 45.1996C165.105 45.6782 164.413 46.3584 163.928 47.2402C163.444 48.1221 163.2 49.1605 163.2 50.3554C163.2 51.5503 163.444 52.5134 163.928 53.3711C164.413 54.2289 165.105 54.8881 166.005 55.3516C166.905 55.8151 167.958 56.0469 169.168 56.0469C170.378 56.0469 171.507 55.8121 172.431 55.3456C173.355 54.8791 174.062 54.2109 174.55 53.3441C175.037 52.4803 175.275 51.463 175.26 50.2921V38.4878H173.036V45.8497L173.039 45.8467ZM171.257 53.8136C170.682 54.1447 170.002 54.3102 169.222 54.3102C168.443 54.3102 167.778 54.1507 167.209 53.8317C166.64 53.5126 166.2 53.0552 165.89 52.4622C165.58 51.8693 165.427 51.168 165.427 50.3584C165.427 49.5488 165.58 48.7933 165.89 48.1703C166.2 47.5472 166.64 47.0717 167.209 46.7376C167.778 46.4035 168.449 46.238 169.222 46.238C169.996 46.238 170.679 46.4005 171.257 46.7226C171.832 47.0446 172.274 47.5081 172.584 48.1131C172.849 48.6308 173 49.2267 173.039 49.8979V50.5751C173 51.2643 172.849 51.8723 172.584 52.399C172.274 53.013 171.832 53.4856 171.257 53.8166V53.8136Z" fill="#E70033"/>
<path id="Vector_5" d="M179.636 39.7402C179.305 39.7402 179.025 39.8546 178.793 40.0834C178.561 40.3121 178.444 40.595 178.444 40.9321C178.444 41.2692 178.561 41.5431 178.793 41.7748C179.025 42.0066 179.305 42.124 179.636 42.124C179.967 42.124 180.256 42.0066 180.484 41.7748C180.713 41.5431 180.828 41.2632 180.828 40.9321C180.828 40.601 180.713 40.3121 180.484 40.0834C180.256 39.8546 179.973 39.7402 179.636 39.7402Z" fill="#E70033"/>
<path id="Vector_6" d="M180.755 44.7363H178.531V55.8033H180.755V44.7363Z" fill="#E70033"/>
<path id="Vector_7" d="M195.037 47.2679C194.525 46.389 193.806 45.7058 192.882 45.2182C191.958 44.7306 190.901 44.4868 189.715 44.4868C188.53 44.4868 187.458 44.7306 186.528 45.2182C185.598 45.7058 184.873 46.389 184.358 47.2679C183.84 48.1467 183.584 49.149 183.584 50.2716C183.584 51.3943 183.843 52.3875 184.358 53.2663C184.876 54.1452 185.598 54.8314 186.528 55.322C187.458 55.8126 188.521 56.0594 189.715 56.0594C190.91 56.0594 191.958 55.8126 192.882 55.322C193.806 54.8314 194.525 54.1452 195.037 53.2663C195.548 52.3875 195.807 51.3912 195.807 50.2716C195.807 49.152 195.551 48.1467 195.037 47.2679ZM193.101 52.3273C192.782 52.9533 192.331 53.4379 191.753 53.787C191.172 54.1361 190.51 54.3077 189.767 54.3077C189.023 54.3077 188.307 54.1392 187.705 53.8021C187.103 53.465 186.636 52.9955 186.302 52.3905C185.968 51.7855 185.803 51.0963 185.803 50.3258C185.803 49.5553 185.965 48.8239 186.293 48.2009C186.621 47.5779 187.076 47.0963 187.663 46.7501C188.25 46.407 188.924 46.2325 189.682 46.2325C190.441 46.2325 191.127 46.398 191.717 46.7321C192.307 47.0662 192.764 47.5327 193.092 48.1286C193.42 48.7246 193.583 49.4078 193.583 50.1723C193.583 50.9819 193.423 51.6982 193.104 52.3213L193.101 52.3273Z" fill="#E70033"/>
</g>
<g id="Group_2">
<path id="Vector_8" d="M47.3949 24.5136C47.3949 26.0576 47.0457 27.2525 46.3445 28.0952C45.6432 28.938 44.65 29.3594 43.3648 29.3594C42.0013 29.3594 40.9509 28.938 40.2105 28.0952C39.4701 27.2525 39.0999 26.0576 39.0999 24.5136V13.0854H32.2075V25.3503C32.2075 27.3368 32.6409 29.0283 33.5108 30.4308C34.3806 31.8334 35.6477 32.8958 37.3151 33.6242C38.9825 34.3496 40.9961 34.7137 43.3588 34.7137C45.7214 34.7137 47.6567 34.3496 49.285 33.6242C50.9133 32.8988 52.1533 31.8334 53.0021 30.4308C53.8509 29.0283 54.2782 27.3368 54.2782 25.3503V13.0854H47.3858V24.5136H47.3949Z" fill="#E70033"/>
<path id="Vector_9" d="M59.8138 16.9893C58.8055 18.3798 58.2999 20.0623 58.2969 22.0397V34.2654H65.1893V23.1593C65.2404 21.5671 65.7401 20.3271 66.6881 19.4422C67.7506 18.449 69.3036 17.9735 71.3413 18.0126V12.6401C68.5632 12.6672 66.2036 13.0495 64.2562 13.7899C62.3089 14.5303 60.8311 15.5957 59.8168 16.9923L59.8138 16.9893Z" fill="#E70033"/>
<path id="Vector_10" d="M93.276 14.0216C91.4581 13.1006 89.3302 12.6401 86.8923 12.6401C84.4544 12.6401 82.3505 13.0916 80.5477 13.9915C78.7448 14.8945 77.3573 16.1826 76.3911 17.8561C75.425 19.5295 74.9404 21.4949 74.9404 23.7553C74.9404 25.8952 75.3829 27.7733 76.2647 29.3805C77.1466 30.9908 78.4047 32.2308 80.042 33.1097C81.6763 33.9855 83.5966 34.4249 85.8027 34.4249C87.7501 34.4249 89.4416 34.0608 90.8832 33.3354C91.3317 33.1097 91.7471 32.8538 92.1293 32.5679V33.7808C92.1293 34.753 91.8795 35.6078 91.3799 36.3392C90.8802 37.0735 90.1699 37.6364 89.2489 38.0337C88.3279 38.4279 87.2444 38.6266 85.9984 38.6266C84.65 38.6266 83.3227 38.434 82.0164 38.0517C80.7132 37.6695 79.6116 37.1458 78.7177 36.4836L76.6139 41.6213C77.6643 42.3467 79.0337 42.9216 80.7222 43.3429C82.4077 43.7643 84.1684 43.975 85.9984 43.975C88.647 43.975 90.9495 43.5596 92.9088 42.7289C94.8682 41.8982 96.3761 40.7184 97.4355 39.1864C98.486 37.6634 99.0157 35.8726 99.0217 33.8139V23.984C98.9946 21.6755 98.486 19.665 97.4927 17.9584C96.4995 16.2519 95.0939 14.9396 93.279 14.0156L93.276 14.0216ZM92.1293 24.0863C92.1293 25.0736 91.9216 25.9313 91.5063 26.6657C91.0909 27.4001 90.501 27.9629 89.7335 28.3602C88.969 28.7575 88.0721 28.9531 87.0458 28.9531C86.0194 28.9531 85.0563 28.7425 84.2708 28.3211C83.4852 27.8997 82.8832 27.2948 82.4589 26.5122C82.0375 25.7267 81.8268 24.8087 81.8268 23.7583C81.8268 22.5905 82.0375 21.5702 82.4589 20.7034C82.8802 19.8335 83.4852 19.1653 84.2708 18.6988C85.0563 18.2323 85.9743 17.9976 87.0247 17.9976C88.0751 17.9976 88.948 18.2323 89.7215 18.6988C90.492 19.1653 91.0879 19.8305 91.5033 20.6943C91.9186 21.5581 92.1263 22.5724 92.1263 23.7402V24.0894L92.1293 24.0863Z" fill="#E70033"/>
<path id="Vector_11" d="M118.194 24.5136C118.194 26.0576 117.845 27.2525 117.144 28.0952C116.443 28.938 115.449 29.3594 114.164 29.3594C112.801 29.3594 111.75 28.938 111.01 28.0952C110.269 27.2525 109.899 26.0576 109.899 24.5136V13.0854H103.007V25.3503C103.007 27.3368 103.44 29.0283 104.31 30.4308C105.18 31.8334 106.447 32.8958 108.114 33.6242C109.782 34.3496 111.795 34.7137 114.158 34.7137C116.521 34.7137 118.456 34.3496 120.084 33.6242C121.713 32.8988 122.953 31.8334 123.801 30.4308C124.65 29.0283 125.078 27.3368 125.078 25.3503V13.0854H118.185V24.5136H118.194Z" fill="#E70033"/>
<path id="Vector_12" d="M151.753 23.2104C151.753 21.0705 151.299 19.2044 150.39 17.6152C149.481 16.0261 148.19 14.7981 146.516 13.9373C144.843 13.0735 142.877 12.6431 140.617 12.6431C138.357 12.6431 136.223 13.0976 134.486 14.0065C132.746 14.9155 131.41 16.2067 130.477 17.8801C129.544 19.5535 129.081 21.5189 129.096 23.7793C129.096 26.0125 129.589 27.9508 130.576 29.6002C131.564 31.2495 132.963 32.5166 134.781 33.4045C136.599 34.2924 138.733 34.7379 141.186 34.7379C143.028 34.7379 144.692 34.4188 146.179 33.7838C147.666 33.1487 148.885 32.2397 149.839 31.0599C150.793 29.8801 151.419 28.4896 151.717 26.8944H145.74C145.493 27.7762 144.936 28.4745 144.066 28.9862C143.196 29.4979 142.131 29.7537 140.873 29.7537C139.874 29.7537 138.992 29.5791 138.224 29.227C137.46 28.8778 136.861 28.3812 136.433 27.7371C136.006 27.096 135.777 26.3466 135.753 25.4888H151.657C151.723 24.6461 151.753 23.8876 151.753 23.2104ZM135.753 21.0674C135.753 20.0291 136.178 19.2074 137.029 18.6055C137.878 18.0035 139.031 17.6995 140.485 17.6995C141.938 17.6995 143.118 18.0005 143.988 18.6055C144.858 19.2074 145.297 20.0291 145.312 21.0674H135.753Z" fill="#E70033"/>
<path id="Vector_13" d="M157.283 16.9893C156.274 18.3798 155.769 20.0623 155.766 22.0397V34.2654H162.658V23.1593C162.709 21.5671 163.209 20.3271 164.157 19.4422C165.219 18.449 166.772 17.9735 168.81 18.0126V12.6401C166.032 12.6672 163.672 13.0495 161.725 13.7899C159.778 14.5303 158.3 15.5957 157.286 16.9923L157.283 16.9893Z" fill="#E70033"/>
<path id="Vector_14" d="M194.278 17.943C193.285 16.2364 191.883 14.9242 190.074 14.0002C188.262 13.0792 186.152 12.6187 183.738 12.6187C181.324 12.6187 179.148 13.0792 177.324 14.0002C175.5 14.9211 174.095 16.2364 173.111 17.943C172.123 19.6495 171.63 21.645 171.63 23.9294C171.63 26.2138 172.078 28.0107 172.972 29.6329C173.869 31.2552 175.142 32.5073 176.798 33.3892C178.453 34.271 180.388 34.7135 182.61 34.7135C184.569 34.7135 186.281 34.3282 187.747 33.5547C188.301 33.2627 188.807 32.9256 189.264 32.5404V34.265H195.804V23.9084C195.774 21.633 195.266 19.6435 194.275 17.943H194.278ZM189.264 23.8512C189.264 24.9557 189.044 25.9219 188.602 26.7526C188.16 27.5833 187.534 28.2214 186.724 28.6698C185.911 29.1183 184.963 29.341 183.871 29.341C182.778 29.341 181.854 29.1213 181.048 28.6789C180.244 28.2364 179.621 27.6074 179.178 26.7917C178.736 25.9731 178.516 25.019 178.516 23.9294C178.516 22.7345 178.736 21.6931 179.178 20.8053C179.621 19.9174 180.241 19.2312 181.048 18.7526C181.851 18.2741 182.793 18.0333 183.871 18.0333C184.948 18.0333 185.911 18.268 186.724 18.7345C187.534 19.201 188.16 19.8602 188.602 20.709C189.044 21.5577 189.264 22.5539 189.264 23.6977V23.8542V23.8512Z" fill="#E70033"/>
<g id="Group_3">
<path id="Vector_15" d="M14.4198 24.3719C16.3231 24.3719 17.866 22.829 17.866 20.9257C17.866 19.0224 16.3231 17.4795 14.4198 17.4795C12.5165 17.4795 10.9736 19.0224 10.9736 20.9257C10.9736 22.829 12.5165 24.3719 14.4198 24.3719Z" fill="#E70033"/>
<path id="Vector_16" d="M26.3688 14.0485C26.3688 14.0485 26.3688 14.0425 26.3658 14.0425C24.1626 10.2291 20.1837 7.56849 15.5607 7.19227C15.4915 7.18625 15.4252 7.18023 15.356 7.17722C15.2085 7.16819 15.058 7.15916 14.9076 7.15615C13.9715 7.16518 13.1228 7.55043 12.5088 8.16442C11.8857 8.78745 11.4975 9.65125 11.4975 10.6023C11.4975 12.4323 12.9211 13.9282 14.721 14.0425C14.7511 14.0425 14.7781 14.0455 14.8082 14.0455H14.8143C18.438 14.2472 21.3154 17.251 21.3154 20.9289C21.3154 24.6069 18.2304 27.8213 14.423 27.8213C10.6156 27.8213 7.53058 24.7363 7.53058 20.9289V3.50529C7.53058 1.6031 5.98657 0.059082 4.08438 0.059082C2.1822 0.059082 0.638184 1.6031 0.638184 3.50529V20.9289C0.638184 26.0305 3.41019 30.488 7.53058 32.8717C9.55918 34.0455 11.9128 34.7167 14.423 34.7167C22.0377 34.7167 28.2108 28.5437 28.2108 20.9289C28.2108 18.4218 27.5426 16.0741 26.3748 14.0485H26.3688Z" fill="#E70033"/>
</g>
</g>
</g>
</svg>
