<svg width="204" height="57" viewBox="0 0 204 57" fill="none" xmlns="http://www.w3.org/2000/svg">
<g id="logo-amarado">
<path id="Vector" fill-rule="evenodd" clip-rule="evenodd" d="M80.3014 0.381505C80.3112 0.198924 80.3606 0.0410156 80.6221 0.0607541C80.5136 0.164381 80.4001 0.263074 80.2915 0.366701L80.3014 0.381505Z" fill="#E70033"/>
<path id="Vector_2" d="M80.2866 0.366699C80.2866 0.366699 80.2866 0.376568 80.2916 0.386438C80.2916 0.386438 80.2916 0.386438 80.2965 0.386438L80.2866 0.371634V0.366699Z" fill="#E70033"/>
<path id="Vector_3" d="M95.4112 50.7248C95.4112 50.9518 95.4754 51.0899 95.6037 51.1294C95.732 51.1689 95.9244 51.1886 96.181 51.1886C96.5265 51.1886 96.8127 51.1541 97.0446 51.0899C97.2765 51.0258 97.464 50.9123 97.6071 50.7593C97.7502 50.6064 97.8489 50.409 97.9032 50.1672C97.9624 49.9254 97.992 49.6293 97.992 49.274C97.992 48.9384 97.9624 48.6572 97.8983 48.4203C97.8391 48.1884 97.7354 47.9959 97.6022 47.8528C97.464 47.7048 97.2864 47.6061 97.0643 47.5419C96.8423 47.4778 96.5758 47.4482 96.26 47.4482C95.9146 47.4482 95.6876 47.4926 95.579 47.5814C95.4655 47.6702 95.4112 47.8479 95.4112 48.1242V50.7297V50.7248ZM93.9703 49.1506C93.9703 48.9582 93.9654 48.7657 93.9506 48.5832C93.9358 48.4006 93.9111 48.2279 93.8667 48.0699C93.8223 47.912 93.7532 47.7739 93.6644 47.6604C93.5706 47.5469 93.4472 47.4679 93.2893 47.4235C93.1906 47.3988 93.092 47.3742 92.9834 47.3594C92.8798 47.3396 92.7761 47.3298 92.6774 47.3199C92.6232 47.3199 92.5837 47.2952 92.559 47.2557C92.5343 47.2113 92.5195 47.162 92.5195 47.1126C92.5195 47.0633 92.5343 47.009 92.559 46.9646C92.5837 46.9202 92.6281 46.9004 92.6774 46.9004C92.9785 46.9004 93.2449 46.9103 93.4867 46.9251C93.7236 46.9449 93.9999 46.9498 94.3207 46.9498C94.8487 46.9399 95.2879 46.93 95.6382 46.9152C95.9886 46.9004 96.3192 46.8955 96.635 46.8955C96.9903 46.8955 97.3357 46.935 97.6812 47.0189C98.0266 47.1028 98.3325 47.236 98.599 47.4235C98.8655 47.6061 99.0826 47.8528 99.2454 48.1489C99.4083 48.4499 99.4872 48.8101 99.4872 49.2345C99.4872 49.5701 99.4379 49.8612 99.3343 50.108C99.2306 50.3547 99.0925 50.5669 98.9198 50.7445C98.7421 50.9222 98.5348 51.0653 98.2931 51.1738C98.0513 51.2824 97.7897 51.3712 97.5084 51.4304C97.4492 51.4452 97.4147 51.4798 97.4147 51.5242C97.4147 51.5587 97.4443 51.5933 97.5084 51.6278C97.923 51.8301 98.2437 52.0571 98.4658 52.3039C98.6928 52.5506 98.8605 52.8072 98.9839 53.0687C99.1023 53.3352 99.1912 53.6017 99.2405 53.8829C99.2948 54.1593 99.3491 54.4307 99.4132 54.6972C99.4576 54.8995 99.5316 55.0475 99.6303 55.1413C99.734 55.235 99.8376 55.2795 99.9412 55.2795C100.045 55.2795 100.148 55.235 100.247 55.1462C100.346 55.0574 100.42 54.9242 100.474 54.7514C100.494 54.6824 100.528 54.633 100.578 54.6133C100.632 54.5935 100.681 54.5886 100.731 54.5985C100.78 54.6133 100.825 54.6379 100.864 54.6774C100.903 54.7169 100.918 54.7613 100.908 54.8057C100.884 55.0229 100.82 55.2153 100.721 55.3732C100.622 55.5311 100.509 55.6594 100.371 55.763C100.232 55.8667 100.079 55.9407 99.9067 55.9851C99.734 56.0345 99.5662 56.0591 99.3984 56.0591C99.1171 56.0591 98.8605 55.9999 98.6335 55.8765C98.4065 55.7532 98.2486 55.5755 98.1697 55.3485C98.1154 55.2005 98.0661 55.0377 98.0167 54.86C97.9674 54.6824 97.923 54.5047 97.8785 54.3221C97.8341 54.1445 97.7897 53.9668 97.7453 53.7941C97.7009 53.6214 97.6614 53.4684 97.6269 53.3401C97.469 52.7776 97.2617 52.373 97.0101 52.1262C96.7584 51.8795 96.408 51.7561 95.959 51.7561C95.8109 51.7561 95.6826 51.7857 95.5741 51.8499C95.4704 51.914 95.4162 52.0325 95.4162 52.22V54.0014C95.4162 54.3024 95.4458 54.5393 95.5099 54.7218C95.5691 54.9044 95.6629 55.0426 95.7863 55.1462C95.9096 55.2498 96.0626 55.3189 96.2402 55.3633C96.4228 55.4078 96.6301 55.4374 96.8669 55.4571C96.9212 55.4571 96.9607 55.4818 96.9903 55.5311C97.0199 55.5805 97.0347 55.6347 97.0347 55.694C97.0347 55.7482 97.0199 55.7976 96.9903 55.842C96.9607 55.8864 96.9114 55.9061 96.8521 55.9061C96.413 55.9061 96.0231 55.8864 95.6876 55.8519C95.352 55.8173 95.0263 55.7976 94.7105 55.7976C94.375 55.7976 94.0443 55.8173 93.7187 55.8519C93.393 55.8864 93.0771 55.9061 92.7663 55.9061C92.712 55.9061 92.6725 55.8864 92.6478 55.842C92.6232 55.7976 92.6034 55.7482 92.5985 55.694C92.5985 55.6397 92.6034 55.5903 92.633 55.541C92.6577 55.4916 92.7021 55.462 92.7663 55.4571C93.013 55.4324 93.2153 55.3979 93.3732 55.3535C93.5311 55.3091 93.6545 55.24 93.7433 55.1413C93.8321 55.0426 93.8914 54.9143 93.921 54.7564C93.9506 54.5985 93.9654 54.3863 93.9654 54.1198V49.1654L93.9703 49.1506Z" fill="#E70033"/>
<path id="Vector_4" d="M110.58 46.93C110.649 46.93 110.719 46.9398 110.788 46.9546C110.852 46.9744 110.876 47.0435 110.862 47.1668C110.842 47.2655 110.837 47.3741 110.837 47.4975V47.8676C110.837 48.2623 110.852 48.6324 110.876 48.9778C110.876 49.0124 110.857 49.042 110.817 49.0617C110.778 49.0864 110.733 49.0963 110.679 49.1012C110.625 49.1012 110.575 49.1012 110.526 49.0815C110.477 49.0617 110.447 49.0272 110.442 48.9729C110.378 48.6275 110.319 48.361 110.255 48.1686C110.195 47.9761 110.107 47.8281 109.998 47.7245C109.885 47.6208 109.737 47.5567 109.549 47.532C109.362 47.5073 109.11 47.4876 108.804 47.4777H108.009C107.782 47.4777 107.6 47.4777 107.462 47.4925C107.324 47.5024 107.215 47.532 107.136 47.5912C107.057 47.6504 107.003 47.7393 106.978 47.8626C106.953 47.986 106.939 48.1587 106.939 48.3758V50.6852C106.939 50.8086 106.958 50.8876 107.003 50.9172C107.047 50.9468 107.092 50.9616 107.136 50.9616C107.541 50.9616 107.861 50.9468 108.093 50.9073C108.325 50.8727 108.503 50.8086 108.621 50.7148C108.74 50.6211 108.819 50.5027 108.858 50.3497C108.898 50.2016 108.932 50.0043 108.957 49.7674C108.967 49.7131 108.991 49.6736 109.036 49.649C109.08 49.6243 109.13 49.6095 109.184 49.6095C109.238 49.6095 109.288 49.6243 109.332 49.649C109.376 49.6736 109.396 49.7131 109.396 49.7674C109.396 49.9056 109.396 50.0339 109.381 50.1424C109.371 50.251 109.362 50.3595 109.357 50.473C109.347 50.5816 109.337 50.7 109.332 50.8185C109.322 50.9369 109.317 51.0751 109.317 51.233C109.317 51.4945 109.332 51.7363 109.357 51.9534C109.381 52.1706 109.396 52.4321 109.396 52.738C109.396 52.7825 109.371 52.817 109.332 52.8367C109.288 52.8614 109.238 52.8663 109.184 52.8614C109.13 52.8614 109.08 52.8417 109.036 52.8219C108.991 52.7973 108.967 52.7627 108.957 52.7084C108.932 52.4518 108.898 52.2446 108.858 52.0867C108.819 51.9288 108.74 51.8054 108.621 51.7215C108.503 51.6376 108.325 51.5784 108.093 51.5488C107.861 51.5192 107.541 51.5044 107.136 51.5044C107.092 51.5044 107.047 51.5192 107.003 51.5488C106.958 51.5784 106.939 51.6426 106.939 51.7412V53.4733C106.939 53.7546 106.958 53.9964 106.998 54.1938C107.037 54.3911 107.097 54.554 107.175 54.6823C107.254 54.8106 107.353 54.9093 107.467 54.9882C107.58 55.0623 107.718 55.1165 107.876 55.1511C108 55.1758 108.138 55.1955 108.291 55.2103C108.444 55.2251 108.607 55.23 108.774 55.23C108.986 55.23 109.184 55.2202 109.371 55.2054C109.554 55.1856 109.697 55.1609 109.796 55.1264C109.973 55.0623 110.121 54.9981 110.25 54.929C110.378 54.8599 110.487 54.7662 110.575 54.6527C110.664 54.5392 110.738 54.3961 110.793 54.2234C110.852 54.0507 110.896 53.8335 110.931 53.5671C110.941 53.5128 110.97 53.4782 111.024 53.4634C111.079 53.4486 111.133 53.4388 111.197 53.4388C111.261 53.4388 111.316 53.4536 111.365 53.4782C111.414 53.5029 111.434 53.5375 111.424 53.5819C111.38 53.952 111.34 54.2974 111.306 54.6181C111.271 54.9389 111.256 55.2695 111.266 55.6001C111.266 55.6248 111.247 55.6643 111.212 55.7136C111.177 55.763 111.094 55.7876 110.96 55.7876H106.159C105.823 55.7876 105.493 55.7975 105.172 55.8123C104.851 55.8321 104.56 55.8469 104.304 55.8666C104.234 55.8666 104.18 55.8469 104.146 55.8074C104.111 55.7679 104.086 55.7186 104.081 55.6593C104.072 55.6001 104.081 55.5508 104.121 55.5014C104.155 55.4521 104.215 55.4225 104.294 55.4175C104.506 55.3929 104.683 55.3534 104.836 55.3041C104.985 55.2547 105.108 55.1856 105.207 55.0919C105.305 54.9981 105.374 54.8846 105.424 54.7415C105.473 54.5984 105.498 54.4208 105.498 54.1987V49.1111C105.498 48.9186 105.493 48.7262 105.478 48.5436C105.463 48.361 105.438 48.1883 105.394 48.0304C105.35 47.8725 105.281 47.7343 105.187 47.6208C105.093 47.5073 104.97 47.4284 104.812 47.384C104.713 47.3593 104.614 47.3346 104.506 47.3149C104.402 47.2951 104.299 47.2853 104.2 47.2754C104.146 47.2754 104.106 47.2507 104.081 47.2063C104.057 47.1619 104.042 47.1126 104.042 47.0632C104.042 47.0139 104.057 46.9645 104.081 46.9201C104.106 46.8757 104.146 46.856 104.2 46.856C104.501 46.856 104.767 46.8658 105.009 46.8806C105.246 46.8954 105.527 46.9053 105.843 46.9053H110.59L110.58 46.93Z" fill="#E70033"/>
<path id="Vector_5" d="M116.122 48.672C116.122 48.9385 116.176 49.1605 116.29 49.3382C116.398 49.5208 116.542 49.6688 116.714 49.7922C116.887 49.9155 117.075 50.0241 117.282 50.1129C117.489 50.2067 117.686 50.2955 117.884 50.3843C118.219 50.5422 118.55 50.71 118.881 50.8877C119.211 51.0653 119.507 51.2676 119.774 51.5045C120.04 51.7364 120.252 52.0177 120.415 52.3384C120.578 52.6592 120.662 53.049 120.662 53.508C120.662 53.9669 120.568 54.3518 120.376 54.6627C120.188 54.9735 119.942 55.2301 119.636 55.4275C119.33 55.6249 118.989 55.768 118.609 55.8568C118.229 55.9457 117.849 55.9901 117.469 55.9901C117.223 55.9901 116.946 55.9506 116.635 55.8766C116.329 55.8026 116.043 55.6891 115.787 55.541C115.742 55.5213 115.703 55.5065 115.663 55.4867C115.624 55.4719 115.574 55.4621 115.51 55.4621C115.446 55.4621 115.382 55.4867 115.313 55.541C115.244 55.5953 115.18 55.6891 115.13 55.8174C115.106 55.8716 115.071 55.9062 115.027 55.921C114.982 55.9407 114.938 55.9457 114.888 55.9407C114.839 55.9407 114.8 55.921 114.77 55.8963C114.74 55.8716 114.721 55.8371 114.721 55.8026C114.745 55.6101 114.77 55.3979 114.795 55.1759C114.814 54.9538 114.829 54.7268 114.829 54.4949C114.829 54.263 114.824 54.036 114.81 53.809C114.795 53.582 114.77 53.3402 114.736 53.0934C114.726 53.0392 114.745 52.9948 114.79 52.9602C114.834 52.9257 114.884 52.9059 114.938 52.901C114.992 52.901 115.041 52.901 115.091 52.9257C115.14 52.9454 115.17 52.9849 115.175 53.0392C115.229 53.3994 115.323 53.73 115.466 54.0212C115.604 54.3172 115.782 54.5689 115.994 54.7762C116.206 54.9834 116.448 55.1463 116.714 55.2598C116.986 55.3732 117.277 55.4325 117.593 55.4325C117.83 55.4325 118.057 55.3979 118.274 55.3338C118.491 55.2696 118.683 55.1709 118.851 55.0426C119.019 54.9143 119.152 54.7614 119.246 54.5738C119.344 54.3913 119.389 54.1741 119.389 53.9274C119.389 53.6116 119.32 53.3303 119.182 53.0934C119.043 52.8566 118.876 52.6493 118.673 52.4816C118.471 52.3088 118.244 52.1608 117.997 52.0325C117.751 51.9042 117.519 51.7858 117.297 51.6821C117.005 51.5489 116.714 51.4157 116.423 51.2726C116.132 51.1295 115.875 50.9617 115.643 50.7643C115.416 50.5669 115.229 50.33 115.086 50.0537C114.943 49.7774 114.874 49.4319 114.874 49.0174C114.874 48.6029 114.958 48.2427 115.13 47.9516C115.303 47.6653 115.53 47.4334 115.811 47.2558C116.093 47.0781 116.413 46.9498 116.778 46.8709C117.139 46.7919 117.514 46.7524 117.904 46.7524C118.15 46.7524 118.362 46.7672 118.53 46.7969C118.703 46.8265 118.895 46.8758 119.108 46.9498C119.221 46.9844 119.315 47.014 119.389 47.0337C119.463 47.0584 119.537 47.0683 119.606 47.0683C119.715 47.0683 119.789 47.0238 119.833 46.935C119.853 46.9005 119.882 46.8758 119.932 46.861C119.981 46.8511 120.025 46.8413 120.07 46.8511C120.114 46.8511 120.154 46.8659 120.188 46.8857C120.223 46.9054 120.238 46.9301 120.228 46.9646C120.183 47.1225 120.154 47.2804 120.144 47.4384C120.129 47.5963 120.124 47.764 120.124 47.9417C120.124 48.1736 120.139 48.3759 120.164 48.5635C120.188 48.746 120.213 48.9681 120.233 49.2247C120.233 49.2494 120.213 49.274 120.178 49.2987C120.144 49.3234 120.099 49.3333 120.055 49.3382C120.006 49.3382 119.961 49.3382 119.917 49.3185C119.872 49.2987 119.848 49.2691 119.838 49.2247C119.749 48.8398 119.655 48.519 119.547 48.2674C119.443 48.0157 119.31 47.8233 119.152 47.6802C118.994 47.542 118.802 47.4433 118.575 47.389C118.353 47.3347 118.081 47.3101 117.76 47.3101C117.538 47.3101 117.331 47.3397 117.134 47.3939C116.936 47.4532 116.764 47.537 116.611 47.6505C116.463 47.764 116.344 47.9071 116.255 48.0799C116.167 48.2526 116.122 48.45 116.122 48.6671V48.672Z" fill="#E70033"/>
<path id="Vector_6" d="M128.814 54.0903C128.814 54.3815 128.829 54.6085 128.853 54.7713C128.878 54.9342 128.937 55.0625 129.031 55.1463C129.125 55.2352 129.253 55.2993 129.421 55.3388C129.588 55.3783 129.811 55.4128 130.097 55.4375C130.151 55.4474 130.191 55.477 130.225 55.5214C130.255 55.5707 130.269 55.6201 130.269 55.6743C130.269 55.7286 130.255 55.778 130.225 55.8224C130.195 55.8668 130.146 55.8865 130.087 55.8865C129.732 55.8865 129.396 55.8668 129.075 55.8323C128.755 55.7977 128.434 55.778 128.118 55.778C127.782 55.778 127.437 55.7977 127.082 55.8323C126.726 55.8668 126.401 55.8865 126.11 55.8865C126.055 55.8865 126.016 55.8668 125.991 55.8224C125.966 55.778 125.952 55.7286 125.952 55.6743C125.952 55.6201 125.966 55.5707 125.991 55.5214C126.016 55.472 126.055 55.4424 126.11 55.4375C126.381 55.4128 126.603 55.3783 126.766 55.3388C126.929 55.2993 127.057 55.2352 127.151 55.1463C127.245 55.0575 127.304 54.9342 127.338 54.7713C127.368 54.6085 127.383 54.3815 127.383 54.0903V48.223C127.383 47.8974 127.304 47.6901 127.136 47.6112C126.973 47.5273 126.697 47.4878 126.307 47.4878C125.981 47.4878 125.71 47.5125 125.503 47.5618C125.29 47.6112 125.118 47.7 124.98 47.8233C124.841 47.9516 124.733 48.1244 124.649 48.3464C124.565 48.5685 124.486 48.8547 124.417 49.205C124.407 49.2593 124.378 49.2939 124.333 49.3087C124.284 49.3284 124.234 49.3333 124.19 49.3284C124.141 49.3284 124.096 49.3087 124.057 49.284C124.017 49.2593 123.998 49.2248 123.998 49.1902C124.032 48.8645 124.052 48.5339 124.057 48.1934C124.057 47.853 124.042 47.5174 123.998 47.1818C123.998 47.0831 124.057 47.019 124.18 46.9845C124.304 46.9499 124.442 46.9302 124.59 46.9302H131.666C131.834 46.9302 131.972 46.945 132.08 46.9746C132.189 47.0042 132.243 47.0683 132.243 47.167C132.224 47.2707 132.209 47.4039 132.199 47.5569C132.184 47.7098 132.179 47.8826 132.179 48.0651C132.179 48.2477 132.184 48.4402 132.199 48.6326C132.214 48.8251 132.229 49.0126 132.243 49.1853C132.243 49.2198 132.219 49.2544 132.179 49.284C132.135 49.3136 132.085 49.3333 132.036 49.3383C131.982 49.3383 131.932 49.3383 131.883 49.3185C131.834 49.2988 131.804 49.2643 131.799 49.21C131.745 48.8596 131.676 48.5685 131.587 48.3464C131.498 48.1244 131.38 47.9467 131.237 47.8184C131.094 47.6901 130.911 47.6013 130.704 47.5569C130.492 47.5075 130.24 47.4829 129.949 47.4829C129.554 47.4829 129.263 47.5223 129.09 47.6062C128.912 47.6901 128.824 47.8974 128.824 48.2181V54.0854L128.814 54.0903Z" fill="#E70033"/>
<path id="Vector_7" d="M140.434 52.1754C140.558 52.1754 140.642 52.1556 140.686 52.1161C140.731 52.0767 140.731 52.0027 140.686 51.899L139.536 48.8099C139.517 48.7655 139.482 48.7458 139.433 48.7458C139.383 48.7458 139.344 48.7655 139.329 48.8099L138.125 51.899C138.081 52.0125 138.076 52.0865 138.11 52.126C138.145 52.1606 138.214 52.1803 138.308 52.1803H140.434V52.1754ZM138.16 52.6886C138.036 52.6886 137.947 52.7083 137.898 52.7478C137.844 52.7873 137.794 52.8563 137.755 52.9501L137.158 54.5094C137.113 54.6427 137.089 54.7414 137.089 54.8154C137.089 54.9289 137.118 55.0226 137.173 55.0967C137.232 55.1707 137.306 55.2299 137.405 55.2743C137.503 55.3187 137.612 55.3533 137.735 55.3779C137.859 55.4026 137.987 55.4224 138.12 55.4322C138.179 55.4322 138.224 55.4569 138.253 55.5062C138.278 55.5556 138.293 55.6049 138.293 55.6592C138.293 55.7135 138.278 55.7628 138.253 55.8122C138.229 55.8615 138.184 55.8862 138.12 55.8862C137.908 55.8862 137.666 55.8665 137.395 55.8319C137.123 55.7974 136.862 55.7776 136.615 55.7776C136.388 55.7776 136.166 55.7974 135.954 55.8319C135.742 55.8665 135.515 55.8862 135.268 55.8862C135.223 55.8862 135.184 55.8615 135.154 55.8171C135.125 55.7727 135.105 55.7234 135.1 55.674C135.1 55.6197 135.1 55.5704 135.125 55.521C135.145 55.4717 135.189 55.4421 135.253 55.4372L135.45 55.4125C135.584 55.3878 135.702 55.3533 135.816 55.3138C135.924 55.2743 136.028 55.2102 136.122 55.1213C136.215 55.0325 136.304 54.9141 136.393 54.771C136.482 54.6229 136.571 54.4404 136.659 54.2084L139.65 46.693C139.675 46.6239 139.749 46.5894 139.862 46.5894C139.985 46.5894 140.084 46.6239 140.153 46.693C140.375 47.2555 140.607 47.8576 140.859 48.504C141.11 49.1455 141.367 49.8018 141.634 50.468C141.9 51.1342 142.162 51.7954 142.428 52.4517C142.695 53.108 142.941 53.7248 143.183 54.3071C143.287 54.5637 143.395 54.7611 143.494 54.9042C143.598 55.0424 143.696 55.1509 143.8 55.22C143.899 55.2891 144.002 55.3385 144.111 55.3631C144.214 55.3878 144.333 55.4174 144.456 55.4421C144.51 55.452 144.545 55.4816 144.57 55.526C144.594 55.5753 144.604 55.6247 144.604 55.679C144.604 55.7332 144.594 55.7826 144.57 55.8221C144.55 55.8665 144.515 55.8911 144.471 55.8911C144.19 55.8911 143.918 55.8714 143.657 55.8369C143.395 55.8023 143.104 55.7826 142.778 55.7826C142.408 55.7826 142.058 55.8023 141.732 55.8369C141.407 55.8714 141.091 55.8911 140.795 55.8911C140.735 55.8911 140.686 55.8665 140.657 55.8171C140.627 55.7678 140.612 55.7135 140.612 55.6493C140.612 55.5951 140.627 55.5507 140.652 55.5112C140.676 55.4717 140.721 55.447 140.785 55.4372C141.086 55.4026 141.303 55.3483 141.446 55.2792C141.584 55.2102 141.658 55.0621 141.658 54.845C141.658 54.7808 141.653 54.7118 141.638 54.6328C141.624 54.5539 141.599 54.4453 141.555 54.3071C141.51 54.169 141.446 53.9962 141.367 53.7791C141.288 53.562 141.185 53.2906 141.051 52.955C141.007 52.8415 140.948 52.7675 140.874 52.7379C140.8 52.7083 140.676 52.6935 140.508 52.6935H138.179L138.16 52.6886Z" fill="#E70033"/>
<path id="Vector_8" d="M154.676 52.3188C154.676 52.8912 154.612 53.4044 154.484 53.8584C154.355 54.3124 154.153 54.6973 153.877 55.0082C153.6 55.319 153.235 55.5608 152.786 55.7286C152.337 55.8964 151.789 55.9803 151.148 55.9803C150.506 55.9803 149.993 55.9211 149.539 55.7977C149.085 55.6743 148.71 55.4769 148.414 55.2105C148.118 54.944 147.901 54.5936 147.758 54.1693C147.615 53.74 147.546 53.2267 147.546 52.6149V48.9139C147.546 48.6425 147.531 48.4105 147.501 48.2132C147.472 48.0207 147.412 47.8628 147.324 47.7394C147.235 47.6161 147.111 47.5223 146.949 47.4532C146.786 47.3891 146.569 47.3447 146.292 47.3299C146.238 47.3299 146.198 47.3052 146.174 47.2558C146.149 47.2065 146.134 47.1571 146.134 47.1029C146.134 47.0486 146.149 46.9992 146.174 46.9598C146.198 46.9154 146.243 46.8956 146.292 46.8956C146.573 46.8956 146.894 46.9104 147.259 46.94C147.62 46.9696 147.96 46.9844 148.276 46.9844C148.458 46.9844 148.636 46.9844 148.799 46.9696C148.962 46.9598 149.12 46.9499 149.273 46.9351C149.426 46.9203 149.584 46.9104 149.741 46.9005C149.899 46.8907 150.072 46.8857 150.255 46.8857C150.309 46.8857 150.344 46.9055 150.368 46.9499C150.388 46.9943 150.398 47.0436 150.393 47.093C150.393 47.1473 150.373 47.1966 150.344 47.246C150.319 47.2953 150.284 47.32 150.24 47.32C149.968 47.3397 149.746 47.3743 149.579 47.4335C149.411 47.4927 149.283 47.5766 149.194 47.695C149.105 47.8135 149.051 47.9714 149.021 48.1638C148.996 48.3563 148.982 48.603 148.982 48.904V52.5112C148.982 52.8813 149.031 53.2317 149.125 53.5672C149.223 53.9028 149.371 54.1939 149.569 54.4456C149.766 54.6973 150.018 54.8996 150.314 55.0476C150.615 55.1957 150.965 55.2697 151.37 55.2697C152.224 55.2697 152.875 55.0328 153.329 54.564C153.778 54.0952 154.005 53.3452 154.005 52.3237V49.5751C154.005 49.3629 154 49.1557 153.99 48.9484C153.98 48.7412 153.97 48.5438 153.951 48.3563C153.931 48.1687 153.906 48.0207 153.872 47.9121C153.827 47.7641 153.783 47.6506 153.734 47.5766C153.684 47.5026 153.625 47.4483 153.556 47.4137C153.487 47.3792 153.398 47.3595 153.289 47.3545C153.186 47.3545 153.053 47.3397 152.895 47.32C152.85 47.32 152.816 47.2953 152.796 47.246C152.776 47.1966 152.762 47.1473 152.762 47.093C152.762 47.0387 152.771 46.9894 152.786 46.9499C152.806 46.9055 152.84 46.8857 152.89 46.8857C153.102 46.8857 153.324 46.9005 153.566 46.9302C153.803 46.9598 154.044 46.9746 154.291 46.9746C154.523 46.9746 154.75 46.9598 154.977 46.9302C155.204 46.9005 155.461 46.8857 155.742 46.8857C155.796 46.8857 155.836 46.9055 155.86 46.9499C155.885 46.9943 155.9 47.0436 155.9 47.093C155.9 47.1423 155.885 47.1966 155.86 47.246C155.836 47.2953 155.796 47.32 155.742 47.32C155.584 47.3397 155.456 47.3496 155.367 47.3545C155.273 47.3545 155.199 47.3792 155.135 47.4137C155.076 47.4483 155.017 47.5026 154.972 47.5766C154.923 47.6506 154.869 47.7641 154.804 47.9121C154.76 48.0158 154.725 48.1638 154.706 48.3464C154.686 48.529 154.666 48.7264 154.661 48.9336C154.651 49.1409 154.651 49.3481 154.656 49.5603C154.656 49.7725 154.661 49.9551 154.661 50.1179V52.3089L154.676 52.3188Z" fill="#E70033"/>
<path id="Vector_9" d="M161.738 50.7248C161.738 50.9518 161.802 51.0899 161.93 51.1294C162.059 51.1689 162.251 51.1886 162.508 51.1886C162.853 51.1886 163.139 51.1541 163.376 51.0899C163.608 51.0258 163.796 50.9123 163.939 50.7593C164.077 50.6064 164.181 50.409 164.235 50.1672C164.294 49.9254 164.319 49.6293 164.319 49.274C164.319 48.9384 164.289 48.6572 164.225 48.4203C164.161 48.1884 164.062 47.9959 163.929 47.8528C163.791 47.7048 163.613 47.6061 163.391 47.5419C163.169 47.4778 162.903 47.4482 162.587 47.4482C162.241 47.4482 162.014 47.4926 161.906 47.5814C161.792 47.6702 161.738 47.8479 161.738 48.1242V50.7297V50.7248ZM160.297 49.1506C160.297 48.9582 160.292 48.7657 160.277 48.5832C160.262 48.4006 160.238 48.2279 160.193 48.0699C160.149 47.912 160.08 47.7739 159.986 47.6604C159.892 47.5469 159.769 47.4679 159.611 47.4235C159.512 47.3988 159.414 47.3742 159.305 47.3594C159.202 47.3396 159.098 47.3298 158.999 47.3199C158.945 47.3199 158.905 47.2952 158.881 47.2557C158.856 47.2113 158.841 47.162 158.841 47.1126C158.841 47.0633 158.856 47.009 158.881 46.9646C158.905 46.9202 158.945 46.9004 158.999 46.9004C159.3 46.9004 159.567 46.9103 159.809 46.9251C160.045 46.9449 160.322 46.9498 160.642 46.9498C161.17 46.9399 161.61 46.93 161.96 46.9152C162.305 46.9004 162.641 46.8955 162.957 46.8955C163.312 46.8955 163.658 46.935 164.003 47.0189C164.348 47.1028 164.654 47.236 164.921 47.4235C165.192 47.6061 165.404 47.8528 165.567 48.1489C165.73 48.4499 165.814 48.8101 165.814 49.2345C165.814 49.5701 165.765 49.8612 165.661 50.108C165.562 50.3547 165.419 50.5669 165.246 50.7445C165.069 50.9222 164.862 51.0653 164.62 51.1738C164.378 51.2824 164.116 51.3712 163.835 51.4304C163.771 51.4452 163.741 51.4798 163.741 51.5242C163.741 51.5587 163.771 51.5933 163.835 51.6278C164.25 51.8301 164.57 52.0571 164.792 52.3039C165.019 52.5506 165.187 52.8072 165.306 53.0687C165.424 53.3352 165.513 53.6017 165.562 53.8829C165.617 54.1593 165.671 54.4307 165.735 54.6972C165.779 54.8995 165.853 55.0475 165.952 55.1413C166.051 55.235 166.154 55.2795 166.263 55.2795C166.372 55.2795 166.47 55.235 166.569 55.1462C166.668 55.0574 166.742 54.9242 166.796 54.7514C166.816 54.6824 166.85 54.633 166.9 54.6133C166.954 54.5935 167.003 54.5886 167.053 54.5985C167.102 54.6133 167.146 54.6379 167.186 54.6774C167.225 54.7169 167.24 54.7613 167.23 54.8057C167.206 55.0229 167.141 55.2153 167.043 55.3732C166.944 55.5311 166.83 55.6594 166.692 55.763C166.554 55.8667 166.401 55.9407 166.228 55.9851C166.056 56.0345 165.888 56.0591 165.72 56.0591C165.439 56.0591 165.182 55.9999 164.955 55.8765C164.728 55.7532 164.57 55.5755 164.491 55.3485C164.437 55.2005 164.388 55.0377 164.338 54.86C164.289 54.6824 164.245 54.5047 164.2 54.3221C164.156 54.1445 164.111 53.9668 164.067 53.7941C164.023 53.6214 163.983 53.4684 163.949 53.3401C163.791 52.7776 163.583 52.373 163.332 52.1262C163.08 51.8795 162.73 51.7561 162.281 51.7561C162.133 51.7561 162.004 51.7857 161.896 51.8499C161.792 51.914 161.738 52.0325 161.738 52.22V54.0014C161.738 54.3024 161.768 54.5393 161.832 54.7218C161.891 54.9044 161.985 55.0426 162.108 55.1462C162.231 55.2498 162.384 55.3189 162.562 55.3633C162.745 55.4078 162.952 55.4374 163.189 55.4571C163.243 55.4571 163.282 55.4818 163.312 55.5311C163.342 55.5805 163.357 55.6347 163.357 55.694C163.357 55.7482 163.342 55.7976 163.312 55.842C163.282 55.8864 163.233 55.9061 163.174 55.9061C162.735 55.9061 162.345 55.8864 162.009 55.8519C161.674 55.8173 161.348 55.7976 161.032 55.7976C160.697 55.7976 160.366 55.8173 160.04 55.8519C159.715 55.8864 159.399 55.9061 159.088 55.9061C159.034 55.9061 158.994 55.8864 158.97 55.842C158.945 55.7976 158.93 55.7482 158.925 55.694C158.925 55.6397 158.93 55.5903 158.96 55.541C158.984 55.4916 159.029 55.462 159.093 55.4571C159.34 55.4324 159.542 55.3979 159.7 55.3535C159.858 55.3091 159.981 55.24 160.07 55.1413C160.159 55.0426 160.218 54.9143 160.248 54.7564C160.277 54.5985 160.292 54.3863 160.292 54.1198V49.1654L160.297 49.1506Z" fill="#E70033"/>
<path id="Vector_10" d="M175.427 52.1754C175.55 52.1754 175.634 52.1556 175.678 52.1161C175.723 52.0767 175.723 52.0027 175.678 51.899L174.529 48.8099C174.509 48.7655 174.474 48.7458 174.425 48.7458C174.376 48.7458 174.336 48.7655 174.321 48.8099L173.117 51.899C173.073 52.0125 173.068 52.0865 173.102 52.126C173.137 52.1606 173.206 52.1803 173.3 52.1803H175.427V52.1754ZM173.152 52.6886C173.028 52.6886 172.94 52.7083 172.885 52.7478C172.831 52.7873 172.782 52.8563 172.742 52.9501L172.145 54.5094C172.101 54.6427 172.081 54.7414 172.081 54.8154C172.081 54.9289 172.111 55.0226 172.165 55.0967C172.224 55.1707 172.298 55.2299 172.397 55.2743C172.496 55.3187 172.604 55.3533 172.727 55.3779C172.851 55.4026 172.979 55.4224 173.112 55.4322C173.172 55.4322 173.216 55.4569 173.246 55.5062C173.27 55.5556 173.285 55.6049 173.285 55.6592C173.285 55.7135 173.27 55.7628 173.246 55.8122C173.221 55.8615 173.176 55.8862 173.112 55.8862C172.9 55.8862 172.658 55.8665 172.382 55.8319C172.111 55.7974 171.849 55.7776 171.602 55.7776C171.375 55.7776 171.153 55.7974 170.941 55.8319C170.729 55.8665 170.502 55.8862 170.255 55.8862C170.211 55.8862 170.171 55.8615 170.142 55.8171C170.112 55.7727 170.092 55.7234 170.087 55.674C170.087 55.6197 170.087 55.5704 170.112 55.521C170.137 55.4717 170.176 55.4421 170.235 55.4372L170.433 55.4125C170.566 55.3878 170.689 55.3533 170.798 55.3138C170.907 55.2743 171.01 55.2102 171.104 55.1213C171.198 55.0325 171.287 54.9141 171.375 54.771C171.464 54.6229 171.553 54.4404 171.642 54.2084L174.632 46.693C174.657 46.6239 174.731 46.5894 174.844 46.5894C174.968 46.5894 175.066 46.6239 175.136 46.693C175.353 47.2555 175.59 47.8576 175.841 48.504C176.093 49.1455 176.349 49.8018 176.616 50.468C176.882 51.1342 177.144 51.7954 177.41 52.4517C177.677 53.108 177.929 53.7248 178.165 54.3071C178.274 54.5637 178.378 54.7611 178.476 54.9042C178.58 55.0424 178.679 55.1509 178.782 55.22C178.886 55.2891 178.985 55.3385 179.093 55.3631C179.197 55.3878 179.315 55.4174 179.439 55.4421C179.493 55.452 179.527 55.4816 179.552 55.526C179.572 55.5753 179.587 55.6247 179.587 55.679C179.587 55.7332 179.577 55.7826 179.552 55.8221C179.527 55.8665 179.498 55.8911 179.453 55.8911C179.172 55.8911 178.901 55.8714 178.639 55.8369C178.378 55.8023 178.086 55.7826 177.761 55.7826C177.391 55.7826 177.04 55.8023 176.715 55.8369C176.389 55.8714 176.073 55.8911 175.777 55.8911C175.713 55.8911 175.668 55.8665 175.639 55.8171C175.609 55.7678 175.594 55.7135 175.594 55.6493C175.594 55.5951 175.609 55.5507 175.634 55.5112C175.659 55.4717 175.703 55.447 175.767 55.4372C176.068 55.4026 176.285 55.3483 176.428 55.2792C176.567 55.2102 176.641 55.0621 176.641 54.845C176.641 54.7808 176.636 54.7118 176.621 54.6328C176.606 54.5539 176.581 54.4453 176.537 54.3071C176.493 54.169 176.433 53.9962 176.349 53.7791C176.271 53.562 176.167 53.2906 176.034 52.955C175.989 52.8415 175.93 52.7675 175.856 52.7379C175.782 52.7083 175.659 52.6935 175.491 52.6935H173.162L173.152 52.6886Z" fill="#E70033"/>
<path id="Vector_11" d="M183.731 48.3705C183.731 48.0794 183.642 47.8425 183.46 47.6649C183.277 47.4823 182.966 47.3737 182.512 47.3293C182.468 47.3293 182.433 47.3046 182.414 47.2553C182.389 47.206 182.379 47.1566 182.379 47.1023C182.379 47.048 182.389 46.9987 182.414 46.9543C182.438 46.9099 182.473 46.8901 182.527 46.8901H183.03C183.257 46.8901 183.494 46.8951 183.731 46.9099C183.968 46.9247 184.185 46.9444 184.377 46.9691C184.57 46.9938 184.688 47.0332 184.723 47.0727L190.052 53.3989C190.156 53.5124 190.21 53.4927 190.21 53.3348V49.5844C190.21 49.3723 190.21 49.165 190.195 48.9577C190.186 48.7505 190.176 48.5531 190.161 48.3705C190.146 48.1879 190.121 48.0399 190.087 47.9363C190.042 47.803 189.998 47.6994 189.954 47.6254C189.909 47.5514 189.85 47.4922 189.776 47.4527C189.702 47.4132 189.608 47.3885 189.5 47.3737C189.391 47.3589 189.253 47.3441 189.095 47.3293C189.051 47.3293 189.016 47.3046 188.996 47.2553C188.977 47.206 188.962 47.1566 188.962 47.1023C188.962 47.048 188.972 46.9987 188.986 46.9543C189.006 46.9099 189.041 46.8901 189.09 46.8901C189.302 46.8901 189.529 46.9049 189.771 46.9296C190.013 46.9543 190.26 46.9691 190.506 46.9691C190.733 46.9691 190.96 46.9543 191.187 46.9296C191.409 46.9049 191.666 46.8901 191.947 46.8901C192.001 46.8901 192.041 46.9099 192.066 46.9543C192.09 46.9987 192.105 47.048 192.105 47.1023C192.105 47.1566 192.09 47.206 192.066 47.2553C192.041 47.3046 191.997 47.3293 191.947 47.3293C191.789 47.3441 191.661 47.3589 191.572 47.3688C191.478 47.3787 191.399 47.3984 191.335 47.4329C191.271 47.4675 191.212 47.5218 191.158 47.6007C191.103 47.6747 191.049 47.7882 190.985 47.9363C190.941 48.0399 190.906 48.1879 190.881 48.3705C190.857 48.5531 190.837 48.7554 190.822 48.9627C190.807 49.1749 190.802 49.3871 190.802 49.5993V55.8761C190.802 55.9008 190.778 55.9255 190.728 55.9403C190.679 55.96 190.625 55.9699 190.556 55.9748C190.492 55.9748 190.427 55.9748 190.363 55.9699C190.304 55.96 190.26 55.9452 190.245 55.9156L184.56 49.1749C184.491 49.0959 184.437 49.0564 184.402 49.0614C184.368 49.0614 184.348 49.1255 184.348 49.239V54.0503C184.348 54.3661 184.373 54.6128 184.422 54.7905C184.471 54.9681 184.545 55.0964 184.649 55.1803C184.753 55.2642 184.876 55.3185 185.024 55.353C185.172 55.3826 185.35 55.4123 185.552 55.4369C185.606 55.4468 185.646 55.4715 185.67 55.5159C185.695 55.5603 185.71 55.6096 185.705 55.6639C185.705 55.7182 185.685 55.7675 185.66 55.807C185.636 55.8514 185.596 55.8712 185.542 55.8712C185.35 55.8712 185.137 55.8564 184.901 55.8268C184.669 55.7972 184.392 55.7823 184.072 55.7823C183.736 55.7823 183.44 55.7972 183.178 55.8268C182.917 55.8564 182.7 55.8712 182.522 55.8712C182.478 55.8712 182.443 55.8514 182.418 55.807C182.394 55.7626 182.379 55.7133 182.374 55.6639C182.374 55.6096 182.379 55.5603 182.409 55.5159C182.433 55.4715 182.473 55.4468 182.527 55.4369C182.759 55.4123 182.946 55.3826 183.104 55.353C183.257 55.3234 183.381 55.2642 183.474 55.1803C183.568 55.0964 183.632 54.9681 183.672 54.7905C183.711 54.6128 183.731 54.3661 183.731 54.0503V48.3705Z" fill="#E70033"/>
<path id="Vector_12" d="M200.06 54.0903C200.06 54.3815 200.075 54.6085 200.099 54.7713C200.124 54.9342 200.183 55.0625 200.277 55.1463C200.371 55.2352 200.499 55.2993 200.667 55.3388C200.835 55.3783 201.057 55.4128 201.343 55.4375C201.397 55.4474 201.437 55.477 201.466 55.5214C201.496 55.5707 201.511 55.6201 201.511 55.6743C201.511 55.7286 201.496 55.778 201.466 55.8224C201.437 55.8668 201.387 55.8865 201.328 55.8865C200.973 55.8865 200.637 55.8668 200.317 55.8323C199.996 55.7977 199.675 55.778 199.359 55.778C199.024 55.778 198.678 55.7977 198.323 55.8323C197.968 55.8668 197.642 55.8865 197.351 55.8865C197.297 55.8865 197.257 55.8668 197.232 55.8224C197.208 55.778 197.193 55.7286 197.193 55.6743C197.193 55.6201 197.208 55.5707 197.232 55.5214C197.257 55.472 197.297 55.4424 197.351 55.4375C197.622 55.4128 197.844 55.3783 198.007 55.3388C198.17 55.2993 198.298 55.2352 198.392 55.1463C198.486 55.0575 198.545 54.9342 198.58 54.7713C198.609 54.6085 198.624 54.3815 198.624 54.0903V48.223C198.624 47.8974 198.54 47.6901 198.377 47.6112C198.214 47.5273 197.938 47.4878 197.548 47.4878C197.223 47.4878 196.951 47.5125 196.739 47.5618C196.527 47.6112 196.354 47.7 196.216 47.8233C196.078 47.9516 195.969 48.1244 195.885 48.3464C195.801 48.5685 195.722 48.8547 195.653 49.205C195.644 49.2593 195.614 49.2939 195.569 49.3087C195.52 49.3284 195.471 49.3333 195.421 49.3284C195.372 49.3284 195.328 49.3087 195.288 49.284C195.249 49.2593 195.229 49.2248 195.229 49.1902C195.264 48.8645 195.283 48.5339 195.288 48.1934C195.288 47.853 195.273 47.5174 195.229 47.1818C195.229 47.0831 195.293 47.019 195.412 46.9845C195.535 46.9499 195.673 46.9302 195.821 46.9302H202.897C203.065 46.9302 203.203 46.945 203.312 46.9746C203.42 47.0042 203.48 47.0683 203.48 47.167C203.46 47.2707 203.445 47.4039 203.435 47.5569C203.42 47.7098 203.416 47.8826 203.416 48.0651C203.416 48.2477 203.42 48.4402 203.435 48.6326C203.45 48.8251 203.465 49.0126 203.48 49.1853C203.48 49.2198 203.46 49.2544 203.416 49.284C203.371 49.3136 203.322 49.3333 203.268 49.3383C203.213 49.3383 203.164 49.3383 203.115 49.3185C203.065 49.2988 203.036 49.2643 203.031 49.21C202.976 48.8596 202.907 48.5685 202.818 48.3464C202.73 48.1244 202.616 47.9467 202.468 47.8184C202.32 47.6901 202.142 47.6013 201.935 47.5569C201.723 47.5075 201.471 47.4829 201.18 47.4829C200.785 47.4829 200.494 47.5223 200.322 47.6062C200.144 47.6901 200.055 47.8974 200.055 48.2181V54.0854L200.06 54.0903Z" fill="#E70033"/>
<path id="Vector_13" d="M163.519 6.39191L161.94 11.593C161.836 11.9187 161.787 12.1161 161.787 12.1852C161.787 12.2197 161.802 12.2493 161.821 12.274C161.846 12.2987 161.871 12.3135 161.9 12.3135C161.955 12.3135 162.014 12.2888 162.083 12.2345C162.196 12.1457 162.335 11.9829 162.497 11.7411L162.67 11.8299C162.231 12.5947 161.747 12.9797 161.219 12.9797C161.032 12.9797 160.889 12.9303 160.785 12.8316C160.681 12.7329 160.632 12.6096 160.632 12.4615C160.632 12.3135 160.672 12.1062 160.751 11.8397L160.899 11.366C160.509 12.0519 160.173 12.5059 159.887 12.728C159.67 12.8958 159.458 12.9747 159.25 12.9747C159.018 12.9747 158.821 12.881 158.663 12.6885C158.5 12.501 158.421 12.2247 158.421 11.8595C158.421 11.3956 158.525 10.9416 158.732 10.4975C158.94 10.0485 159.181 9.67344 159.448 9.37243C159.719 9.07142 159.981 8.85429 160.223 8.72599C160.469 8.59769 160.711 8.53354 160.948 8.53354C161.071 8.53354 161.18 8.55822 161.274 8.60756C161.367 8.66184 161.481 8.7556 161.599 8.89871L161.96 7.744C162.053 7.44792 162.098 7.23573 162.098 7.10743C162.098 7.03341 162.068 6.96433 162.004 6.91005C161.94 6.85577 161.856 6.83109 161.752 6.83109C161.703 6.83109 161.644 6.83109 161.57 6.8459L161.609 6.66332L163.213 6.38698H163.504L163.519 6.39191ZM161.417 9.34282C161.417 9.15531 161.382 9.01714 161.303 8.92831C161.229 8.83949 161.135 8.80001 161.037 8.80001C160.938 8.80001 160.825 8.84936 160.711 8.95299C160.484 9.15037 160.252 9.55008 160.005 10.1472C159.759 10.7492 159.64 11.2525 159.64 11.6572C159.64 11.8052 159.67 11.9138 159.719 11.9878C159.773 12.0618 159.833 12.0963 159.897 12.0963C160.01 12.0963 160.119 12.047 160.227 11.9483C160.494 11.7114 160.76 11.3068 161.022 10.7344C161.283 10.157 161.412 9.69812 161.412 9.34282H161.417ZM164.486 11.0946C164.456 11.2969 164.447 11.4647 164.447 11.593C164.447 11.8249 164.516 12.0125 164.649 12.1506C164.782 12.2888 164.965 12.3628 165.192 12.3628C165.419 12.3628 165.626 12.3184 165.848 12.2247C166.065 12.1309 166.322 11.968 166.613 11.7361L166.756 11.8546C166.401 12.2592 166.05 12.5454 165.715 12.7181C165.374 12.8908 165.004 12.9747 164.595 12.9747C164.076 12.9747 163.716 12.8513 163.519 12.6046C163.321 12.3579 163.223 12.0717 163.223 11.746C163.223 11.2377 163.371 10.7295 163.667 10.2212C163.963 9.71292 164.368 9.30335 164.876 8.9974C165.384 8.69145 165.897 8.53848 166.415 8.53848C166.677 8.53848 166.874 8.60263 167.008 8.72599C167.141 8.84936 167.21 9.00727 167.21 9.19478C167.21 9.42178 167.146 9.6389 167.013 9.85109C166.83 10.1422 166.603 10.3791 166.332 10.5518C166.06 10.7295 165.754 10.8676 165.414 10.9564C165.187 11.0206 164.881 11.065 164.496 11.0946H164.486ZM164.53 10.8578C164.807 10.8183 165.019 10.764 165.172 10.69C165.325 10.6209 165.473 10.5123 165.616 10.3544C165.764 10.2015 165.887 10.009 165.996 9.77707C166.105 9.54514 166.154 9.32309 166.154 9.12077C166.154 9.03688 166.129 8.96779 166.08 8.91845C166.031 8.8691 165.971 8.84443 165.897 8.84443C165.744 8.84443 165.577 8.94805 165.389 9.15531C165.044 9.53527 164.757 10.0978 164.53 10.8578ZM170.773 8.53354L170.575 9.96952H170.403C170.378 9.59942 170.265 9.30828 170.062 9.09609C169.86 8.8839 169.643 8.77534 169.411 8.77534C169.268 8.77534 169.149 8.81482 169.056 8.90364C168.962 8.98753 168.917 9.08622 168.917 9.20465C168.917 9.30335 168.937 9.3971 168.977 9.48099C169.016 9.56982 169.105 9.68331 169.248 9.83629C169.736 10.3643 170.033 10.7245 170.141 10.9219C170.25 11.1193 170.299 11.3315 170.299 11.5585C170.299 11.8003 170.235 12.0322 170.112 12.2493C169.988 12.4664 169.801 12.6392 169.554 12.7724C169.307 12.9056 169.051 12.9698 168.784 12.9698C168.606 12.9698 168.384 12.9352 168.118 12.8711C167.945 12.8217 167.812 12.802 167.728 12.802C167.649 12.802 167.59 12.8119 167.546 12.8316C167.501 12.8563 167.452 12.9007 167.402 12.9698H167.23L167.457 11.4252H167.61C167.718 11.8052 167.822 12.0717 167.916 12.2296C168.009 12.3924 168.138 12.5207 168.296 12.6145C168.453 12.7082 168.606 12.7576 168.75 12.7576C168.922 12.7576 169.06 12.7033 169.174 12.5947C169.287 12.4862 169.342 12.3579 169.342 12.2098C169.342 12.0618 169.307 11.9236 169.233 11.7855C169.159 11.6473 168.991 11.4351 168.73 11.1489C168.37 10.7541 168.133 10.4531 168.014 10.236C167.935 10.0781 167.896 9.90044 167.896 9.70305C167.896 9.3675 168.014 9.08622 168.261 8.86416C168.503 8.64211 168.843 8.52861 169.283 8.52861C169.475 8.52861 169.707 8.56315 169.988 8.63717C170.126 8.67171 170.24 8.69145 170.324 8.69145C170.442 8.69145 170.541 8.63717 170.615 8.53354H170.788H170.773ZM178.609 6.39191L177.03 11.593C176.926 11.9187 176.877 12.1161 176.877 12.1852C176.877 12.2197 176.892 12.2493 176.911 12.274C176.936 12.2987 176.961 12.3135 176.99 12.3135C177.045 12.3135 177.104 12.2888 177.173 12.2345C177.286 12.1457 177.425 11.9829 177.588 11.7411L177.76 11.8299C177.321 12.5947 176.837 12.9797 176.309 12.9797C176.122 12.9797 175.979 12.9303 175.875 12.8316C175.772 12.7329 175.722 12.6096 175.722 12.4615C175.722 12.3135 175.762 12.1062 175.841 11.8397L175.989 11.366C175.599 12.0519 175.263 12.5059 174.977 12.728C174.76 12.8958 174.548 12.9747 174.341 12.9747C174.109 12.9747 173.911 12.881 173.753 12.6885C173.59 12.501 173.511 12.2247 173.511 11.8595C173.511 11.3956 173.615 10.9416 173.822 10.4975C174.03 10.0485 174.271 9.67344 174.538 9.37243C174.809 9.07142 175.066 8.85429 175.313 8.72599C175.559 8.59769 175.801 8.53354 176.038 8.53354C176.161 8.53354 176.27 8.55822 176.364 8.60756C176.457 8.66184 176.566 8.7556 176.689 8.89871L177.05 7.744C177.143 7.44792 177.188 7.23573 177.188 7.10743C177.188 7.03341 177.158 6.96433 177.094 6.91005C177.03 6.85577 176.946 6.83109 176.842 6.83109C176.793 6.83109 176.734 6.83109 176.66 6.8459L176.699 6.66332L178.303 6.38698H178.594L178.609 6.39191ZM176.507 9.34282C176.507 9.15531 176.472 9.01714 176.393 8.92831C176.319 8.83949 176.226 8.80001 176.127 8.80001C176.028 8.80001 175.915 8.84936 175.801 8.95299C175.574 9.15037 175.342 9.55008 175.096 10.1472C174.849 10.7492 174.73 11.2525 174.73 11.6572C174.73 11.8052 174.76 11.9138 174.809 11.9878C174.864 12.0618 174.923 12.0963 174.992 12.0963C175.1 12.0963 175.214 12.047 175.323 11.9483C175.589 11.7114 175.855 11.3068 176.117 10.7344C176.379 10.157 176.507 9.69812 176.507 9.34282ZM179.576 11.0946C179.547 11.2969 179.537 11.4647 179.537 11.593C179.537 11.8249 179.606 12.0125 179.739 12.1506C179.872 12.2888 180.055 12.3628 180.282 12.3628C180.509 12.3628 180.716 12.3184 180.938 12.2247C181.155 12.1309 181.412 11.968 181.703 11.7361L181.846 11.8546C181.491 12.2592 181.14 12.5454 180.805 12.7181C180.464 12.8908 180.094 12.9747 179.685 12.9747C179.167 12.9747 178.806 12.8513 178.609 12.6046C178.412 12.3579 178.313 12.0717 178.313 11.746C178.313 11.2377 178.461 10.7295 178.757 10.2212C179.053 9.71292 179.458 9.30335 179.966 8.9974C180.474 8.69145 180.987 8.53848 181.506 8.53848C181.767 8.53848 181.965 8.60263 182.098 8.72599C182.231 8.84936 182.3 9.00727 182.3 9.19478C182.3 9.42178 182.236 9.6389 182.103 9.85109C181.92 10.1422 181.693 10.3791 181.422 10.5518C181.15 10.7295 180.844 10.8676 180.504 10.9564C180.277 11.0206 179.971 11.065 179.586 11.0946H179.576ZM179.616 10.8578C179.892 10.8183 180.104 10.764 180.257 10.69C180.41 10.6209 180.558 10.5123 180.701 10.3544C180.849 10.2015 180.973 10.009 181.081 9.77707C181.19 9.54514 181.239 9.32309 181.239 9.12077C181.239 9.03688 181.214 8.96779 181.165 8.91845C181.116 8.8691 181.057 8.84443 180.983 8.84443C180.83 8.84443 180.662 8.94805 180.474 9.15531C180.129 9.53527 179.843 10.0978 179.616 10.8578ZM188.982 6.40672L187.412 11.7016C187.333 11.9829 187.289 12.1556 187.289 12.2345C187.289 12.3135 187.319 12.3875 187.378 12.4664C187.437 12.5503 187.496 12.5997 187.565 12.6244C187.634 12.649 187.832 12.6688 188.167 12.6885L188.118 12.8513H184.93L184.98 12.6885C185.295 12.6836 185.517 12.654 185.641 12.6096C185.764 12.5602 185.868 12.4862 185.947 12.3776C186.026 12.2691 186.115 12.047 186.213 11.7065L187.141 8.56809C187.284 8.08943 187.358 7.83283 187.368 7.80322C187.388 7.71933 187.398 7.64531 187.398 7.57622C187.398 7.43312 187.353 7.32456 187.269 7.24067C187.185 7.16172 187.062 7.1173 186.904 7.1173C186.825 7.1173 186.672 7.12717 186.44 7.15185L186.401 6.97913L188.784 6.40672H188.982ZM189.875 12.9797V12.7872C190.348 12.6589 190.793 12.4023 191.197 12.0223C191.607 11.6424 191.977 11.0897 192.308 10.3643C192.016 10.463 191.765 10.5123 191.557 10.5123C191.207 10.5123 190.911 10.3791 190.674 10.1176C190.437 9.85603 190.319 9.48099 190.319 9.00233C190.319 8.38057 190.497 7.81309 190.847 7.29989C191.271 6.67319 191.844 6.3623 192.554 6.3623C193.038 6.3623 193.428 6.53008 193.729 6.8607C194.025 7.19132 194.173 7.66505 194.173 8.27201C194.173 8.92831 194.03 9.56488 193.739 10.1718C193.447 10.7837 193.077 11.2969 192.633 11.7164C192.189 12.1358 191.71 12.4566 191.197 12.6737C190.798 12.8415 190.358 12.9451 189.88 12.9797H189.875ZM192.456 10.0139C192.668 9.46126 192.845 8.89871 192.988 8.32135C193.077 7.93152 193.122 7.60583 193.122 7.34923C193.122 7.1173 193.072 6.93966 192.969 6.82616C192.865 6.71266 192.742 6.65345 192.589 6.65345C192.47 6.65345 192.362 6.69786 192.263 6.78175C192.1 6.92485 191.952 7.21106 191.814 7.64037C191.602 8.31642 191.493 8.87897 191.493 9.33296C191.493 9.55995 191.557 9.75733 191.691 9.91031C191.789 10.0287 191.903 10.0929 192.046 10.0929C192.155 10.0929 192.293 10.0682 192.456 10.0238V10.0139ZM196.196 9.55008C195.999 9.28854 195.856 9.03688 195.757 8.79015C195.658 8.54341 195.609 8.30655 195.609 8.07462C195.609 7.6009 195.767 7.20613 196.087 6.88538C196.403 6.56956 196.828 6.41165 197.351 6.41165C197.834 6.41165 198.214 6.54489 198.496 6.80642C198.777 7.07289 198.915 7.39364 198.915 7.76868C198.915 8.01541 198.856 8.2424 198.737 8.44472C198.619 8.64704 198.451 8.82469 198.234 8.97766C198.091 9.07635 197.874 9.17998 197.578 9.28361C197.938 9.75733 198.16 10.088 198.249 10.2903C198.338 10.4877 198.382 10.7048 198.382 10.9466C198.382 11.5141 198.185 11.9977 197.795 12.3875C197.405 12.7823 196.912 12.9797 196.31 12.9797C195.772 12.9797 195.352 12.8365 195.046 12.5503C194.74 12.2641 194.587 11.899 194.587 11.4647C194.587 11.1686 194.656 10.8972 194.79 10.6505C194.923 10.3988 195.125 10.1768 195.387 9.97446C195.579 9.82642 195.846 9.68825 196.191 9.55008H196.196ZM197.385 9.06648C197.548 8.94805 197.657 8.82469 197.711 8.69639C197.829 8.40031 197.889 8.01047 197.889 7.51701C197.889 7.21106 197.839 6.99887 197.745 6.87057C197.652 6.74721 197.538 6.68306 197.41 6.68306C197.242 6.68306 197.119 6.74227 197.03 6.86564C196.877 7.07783 196.803 7.36404 196.803 7.73413C196.803 7.95619 196.842 8.16838 196.926 8.36083C197.01 8.55328 197.163 8.79014 197.39 9.07142L197.385 9.06648ZM196.364 9.76227C196.206 9.90044 196.092 10.0189 196.028 10.1274C195.93 10.2853 195.836 10.5222 195.752 10.8331C195.668 11.144 195.624 11.4746 195.624 11.8249C195.624 12.1161 195.683 12.3283 195.796 12.4714C195.91 12.6096 196.058 12.6786 196.245 12.6786C196.472 12.6786 196.665 12.575 196.828 12.3678C197.055 12.0865 197.173 11.746 197.173 11.3512C197.173 11.0897 197.119 10.8479 197.015 10.6258C196.907 10.4038 196.694 10.1176 196.374 9.76227H196.364ZM200.203 9.42671L200.262 9.22439C200.696 9.16024 201.047 9.07142 201.313 8.94805C201.669 8.79014 201.93 8.6125 202.088 8.40031C202.251 8.19305 202.33 7.96606 202.33 7.7292C202.33 7.52688 202.256 7.34923 202.113 7.20119C201.965 7.05315 201.787 6.98407 201.57 6.98407C201.402 6.98407 201.244 7.02848 201.096 7.12224C200.948 7.21106 200.795 7.36897 200.622 7.59596L200.43 7.50221C200.691 7.10743 200.953 6.82616 201.215 6.65838C201.476 6.4906 201.772 6.40672 202.098 6.40672C202.507 6.40672 202.843 6.52021 203.095 6.75214C203.351 6.98407 203.48 7.26041 203.48 7.58609C203.48 7.84269 203.415 8.06475 203.292 8.25227C203.169 8.44472 202.986 8.60756 202.739 8.74573C202.562 8.84936 202.285 8.95299 201.905 9.05661C202.251 9.20465 202.493 9.37243 202.631 9.55995C202.838 9.83629 202.942 10.1669 202.942 10.5617C202.942 11.2969 202.626 11.899 201.989 12.3776C201.461 12.7823 200.844 12.9846 200.149 12.9846C199.774 12.9846 199.492 12.9155 199.305 12.7773C199.177 12.6786 199.107 12.5553 199.107 12.3924C199.107 12.2493 199.157 12.1309 199.255 12.0371C199.354 11.9434 199.478 11.899 199.626 11.899C199.7 11.899 199.769 11.9138 199.838 11.9434C199.956 11.9927 200.134 12.1013 200.371 12.2592C200.608 12.4171 200.8 12.501 200.958 12.501C201.15 12.501 201.318 12.4023 201.466 12.2049C201.678 11.9138 201.787 11.5585 201.787 11.1193C201.787 10.7837 201.718 10.4827 201.58 10.2311C201.442 9.97446 201.264 9.78694 201.047 9.66357C200.83 9.54021 200.548 9.46125 200.193 9.41684L200.203 9.42671Z" fill="#E70033"/>
<path id="Vector_14" d="M19.9017 10.4927C20.3063 10.4927 20.6567 10.5716 20.9577 10.7295C21.2587 10.8874 21.5153 11.0996 21.7324 11.3661C21.9446 11.6326 22.1075 11.9385 22.221 12.2741C22.3345 12.6096 22.3887 12.9551 22.3887 13.3153C22.3887 14.0999 22.2851 14.7661 22.0877 15.3138C21.8854 15.8616 21.6091 16.3353 21.2637 16.7399C20.9182 17.1446 20.4938 17.5097 20.0053 17.8502C19.5119 18.1858 18.974 18.5213 18.3917 18.8569C18.3226 18.9013 18.2535 18.9013 18.1746 18.8569C18.0956 18.8125 18.0364 18.7582 17.992 18.6891C17.9476 18.62 17.9229 18.546 17.9229 18.4522C17.9229 18.3585 17.9673 18.2845 18.0561 18.2154C18.4164 17.9489 18.7519 17.6923 19.0628 17.4456C19.3786 17.1988 19.6451 16.9422 19.8671 16.6758C20.0892 16.4044 20.2422 16.1083 20.3211 15.7875C20.4001 15.4619 20.3804 15.077 20.2718 14.6279C20.2274 14.4503 20.1484 14.3318 20.0349 14.2775C19.9214 14.2233 19.7339 14.1838 19.4625 14.1591C18.9493 14.1147 18.5595 13.9173 18.3029 13.5719C18.0463 13.2265 17.918 12.7922 17.918 12.279C17.918 11.7658 18.1203 11.3414 18.52 11.0059C18.9246 10.6703 19.3836 10.5025 19.8968 10.5025L19.9017 10.4927Z" fill="#E70033"/>
<path id="Vector_15" d="M4.04154 22.3799C4.04154 23.0115 4.17477 23.5445 4.43631 23.9738C4.69784 24.408 5.03833 24.7683 5.44791 25.0643C5.85748 25.3604 6.31147 25.617 6.80986 25.8391C7.30333 26.0611 7.78692 26.2783 8.25078 26.4855C9.05019 26.8655 9.8496 27.2652 10.6391 27.6846C11.4287 28.1041 12.1393 28.5975 12.7709 29.1551C13.4025 29.7128 13.9157 30.3789 14.3056 31.1438C14.6954 31.9136 14.8928 32.8463 14.8928 33.9417C14.8928 35.0372 14.6658 35.96 14.2118 36.7051C13.7578 37.4552 13.1706 38.0622 12.4403 38.5359C11.7149 39.0096 10.8957 39.3501 9.98777 39.5623C9.0798 39.7745 8.17676 39.8781 7.26879 39.8781C6.67663 39.8781 6.01539 39.7893 5.27519 39.6116C4.535 39.434 3.86389 39.1626 3.25199 38.8073C3.14837 38.7629 3.04474 38.7234 2.95098 38.679C2.85722 38.6346 2.73386 38.6148 2.58582 38.6148C2.43778 38.6148 2.27987 38.679 2.11209 38.8024C1.94432 38.9307 1.79628 39.1478 1.66798 39.4636C1.60383 39.5919 1.51994 39.6758 1.41631 39.7153C1.31268 39.7547 1.19919 39.7745 1.08569 39.7646C0.967258 39.7547 0.873499 39.7153 0.79948 39.6511C0.72546 39.587 0.690918 39.5129 0.690918 39.4291C0.755068 38.9652 0.809349 38.4668 0.86363 37.9289C0.917911 37.3911 0.942584 36.8482 0.942584 36.3005C0.942584 35.7528 0.92778 35.205 0.893238 34.6573C0.86363 34.1095 0.804415 33.542 0.720526 32.9499C0.700787 32.8216 0.740264 32.718 0.848826 32.6341C0.952454 32.5502 1.07088 32.5008 1.19425 32.491C1.32255 32.4811 1.44098 32.5008 1.55941 32.5551C1.67291 32.6094 1.742 32.6982 1.76667 32.8216C1.89497 33.6851 2.1269 34.4697 2.46245 35.1754C2.79801 35.8811 3.22239 36.4831 3.72572 36.9765C4.22905 37.47 4.8064 37.8549 5.44791 38.1312C6.08941 38.4076 6.79013 38.5408 7.55006 38.5408C8.11754 38.5408 8.66035 38.4619 9.17849 38.304C9.69663 38.1461 10.1555 37.9141 10.5553 37.6082C10.955 37.3022 11.2708 36.9272 11.5027 36.488C11.7346 36.0439 11.8481 35.5307 11.8481 34.9385C11.8481 34.1786 11.6853 33.5174 11.3596 32.9499C11.0339 32.3824 10.6243 31.8889 10.1407 31.4794C9.65715 31.0698 9.11927 30.7096 8.52712 30.4036C7.93496 30.0977 7.37735 29.8213 6.84934 29.5647C6.15356 29.2489 5.45778 28.9232 4.76199 28.5877C4.06621 28.2521 3.44444 27.8425 2.8967 27.3688C2.34896 26.8951 1.90484 26.3276 1.56928 25.6614C1.23373 24.9952 1.06595 24.1712 1.06595 23.1793C1.06595 22.1874 1.2732 21.3189 1.68278 20.633C2.09235 19.9471 2.63516 19.3944 3.31121 18.975C3.98725 18.5556 4.75706 18.2496 5.62062 18.0572C6.48418 17.8696 7.38228 17.7759 8.30999 17.7759C8.89722 17.7759 9.40055 17.8104 9.81012 17.8844C10.2197 17.9585 10.6786 18.0769 11.1869 18.2496C11.4583 18.3335 11.6853 18.4026 11.8679 18.4569C12.0455 18.5111 12.2232 18.5358 12.3909 18.5358C12.6426 18.5358 12.8252 18.4322 12.9288 18.22C12.9683 18.1361 13.0472 18.0769 13.1657 18.0473C13.2792 18.0177 13.3927 18.0078 13.4963 18.0177C13.5999 18.0275 13.6986 18.0572 13.7825 18.0966C13.8664 18.1361 13.896 18.2003 13.8763 18.2841C13.7726 18.6641 13.7035 19.0441 13.669 19.4191C13.6394 19.7991 13.6197 20.1988 13.6197 20.6182C13.6197 21.166 13.6493 21.6594 13.7134 22.1036C13.7776 22.5477 13.8269 23.0707 13.8713 23.6826C13.8713 23.7468 13.8269 23.806 13.743 23.8553C13.6591 23.9096 13.5604 23.9392 13.442 23.9491C13.3236 23.959 13.215 23.9491 13.1114 23.8998C13.0078 23.8553 12.9436 23.7863 12.9239 23.6777C12.7117 22.75 12.4798 21.9851 12.2281 21.388C11.9764 20.786 11.6606 20.3172 11.2806 19.9817C10.9007 19.6461 10.4418 19.4142 9.90388 19.2859C9.36601 19.1576 8.71957 19.0984 7.95963 19.0984C7.43163 19.0984 6.93323 19.1674 6.45951 19.3056C5.98578 19.4438 5.56634 19.6461 5.21104 19.9224C4.85082 20.1938 4.56954 20.5393 4.35735 20.9488C4.14516 21.3584 4.04154 21.8272 4.04154 22.3552V22.3799Z" fill="#E70033"/>
<path id="Vector_16" d="M29.1193 30.7493C29.4154 30.7493 29.6128 30.6999 29.7213 30.6062C29.825 30.5124 29.825 30.3397 29.7213 30.0831L26.9678 22.691C26.9283 22.5874 26.8395 22.5331 26.7161 22.5331C26.5928 22.5331 26.504 22.5874 26.4645 22.691L23.5876 30.0831C23.484 30.3594 23.4741 30.5371 23.558 30.621C23.6419 30.7049 23.7998 30.7493 24.0317 30.7493H29.1243H29.1193ZM23.6813 31.9829C23.3853 31.9829 23.178 32.0323 23.0497 32.126C22.9214 32.2198 22.8079 32.3826 22.6994 32.6146L21.2782 36.3402C21.1746 36.656 21.1203 36.8978 21.1203 37.0656C21.1203 37.337 21.1894 37.564 21.3275 37.7466C21.4657 37.9242 21.6483 38.0673 21.8802 38.171C22.1121 38.2746 22.3737 38.3585 22.6697 38.4226C22.9658 38.4868 23.2718 38.5263 23.5876 38.5509C23.7356 38.5509 23.8393 38.6101 23.9034 38.7236C23.9676 38.8371 23.9972 38.9605 23.9972 39.0888C23.9972 39.2171 23.9676 39.3355 23.9034 39.454C23.8393 39.5675 23.7356 39.6267 23.5876 39.6267C23.0843 39.6267 22.502 39.5823 21.8506 39.4984C21.1943 39.4145 20.5725 39.3701 19.9853 39.3701C19.4376 39.3701 18.9096 39.4145 18.4062 39.4984C17.898 39.5823 17.3502 39.6267 16.763 39.6267C16.6594 39.6267 16.5656 39.5724 16.4916 39.4688C16.4176 39.3651 16.3732 39.2467 16.3633 39.1234C16.3534 38.9951 16.3732 38.8766 16.4274 38.7582C16.4817 38.6447 16.5804 38.5756 16.7284 38.5509L17.2022 38.4868C17.518 38.4226 17.8091 38.3437 18.0707 38.2499C18.3322 38.1562 18.574 38.0032 18.7961 37.791C19.0181 37.5837 19.2352 37.3025 19.4425 36.9521C19.6547 36.6067 19.8619 36.1576 20.0741 35.6099L27.2195 17.633C27.2836 17.4652 27.4514 17.3813 27.7228 17.3813C28.0189 17.3813 28.2508 17.4652 28.4186 17.633C28.9466 18.9802 29.5092 20.426 30.1112 21.9607C30.7132 23.5003 31.33 25.0646 31.9617 26.6535C32.5933 28.2425 33.2249 29.8216 33.8615 31.3908C34.4931 32.96 35.0952 34.4404 35.6626 35.8319C35.9143 36.4438 36.161 36.9176 36.4078 37.2531C36.6496 37.5887 36.8914 37.8453 37.1332 38.0131C37.375 38.1808 37.6217 38.2993 37.8783 38.3585C38.13 38.4226 38.4063 38.4868 38.7024 38.5509C38.8307 38.5707 38.9195 38.6398 38.9688 38.7582C39.0231 38.8766 39.0478 38.9951 39.0478 39.1234C39.0478 39.2517 39.0231 39.3651 38.9688 39.4688C38.9146 39.5724 38.8356 39.6267 38.732 39.6267C38.0559 39.6267 37.4095 39.5823 36.7877 39.4984C36.166 39.4145 35.4653 39.3701 34.6856 39.3701C33.8023 39.3701 32.9683 39.4145 32.1887 39.4984C31.409 39.5823 30.6589 39.6267 29.9434 39.6267C29.7954 39.6267 29.6868 39.5675 29.6128 39.454C29.5388 39.3405 29.5042 39.2072 29.5042 39.0592C29.5042 38.9358 29.5338 38.8223 29.598 38.7286C29.6621 38.6348 29.7658 38.5756 29.9138 38.5559C30.6293 38.472 31.1573 38.3437 31.4929 38.1759C31.8284 38.0081 31.9962 37.6627 31.9962 37.1347C31.9962 36.9867 31.9814 36.8189 31.9469 36.6314C31.9173 36.4389 31.8482 36.1823 31.7396 35.8566C31.636 35.5309 31.4879 35.1115 31.2955 34.5934C31.108 34.0802 30.8514 33.4189 30.5356 32.6195C30.4319 32.3481 30.2888 32.1704 30.1062 32.0964C29.9286 32.0224 29.6375 31.9879 29.2377 31.9879H23.6715L23.6813 31.9829Z" fill="#E70033"/>
<path id="Vector_17" d="M43.4448 22.0644C43.4448 21.4328 43.3955 20.9393 43.3017 20.5791C43.208 20.2189 43.0501 19.9425 42.828 19.7402C42.606 19.5379 42.3148 19.4046 41.9595 19.3306C41.5993 19.2566 41.1502 19.2023 40.5976 19.1579C40.4693 19.1579 40.3706 19.0987 40.2966 18.9852C40.2225 18.8717 40.188 18.7483 40.188 18.62C40.188 18.4917 40.2225 18.3782 40.2966 18.2746C40.3706 18.171 40.4693 18.1167 40.5976 18.1167H41.4513C41.851 18.1167 42.2951 18.1216 42.7787 18.1315C43.2623 18.1414 43.7656 18.1512 44.2788 18.1611C44.7969 18.171 45.2657 18.1907 45.6852 18.2253C46.1046 18.2549 46.4599 18.2993 46.7461 18.3536C47.0323 18.4078 47.1952 18.4769 47.2346 18.5608L53.6546 33.6312C53.699 33.6953 53.7385 33.7249 53.7829 33.7249C53.8471 33.7249 53.8964 33.6953 53.9408 33.6312L60.267 18.5608C60.2868 18.4769 60.5582 18.4078 61.0714 18.3536C61.5895 18.2993 62.1866 18.2598 62.8725 18.2253C63.5584 18.1957 64.2542 18.166 64.9599 18.1463C65.6655 18.1266 66.2281 18.1167 66.6524 18.1167C66.7807 18.1167 66.8696 18.171 66.9238 18.2746C66.9781 18.3782 67.0028 18.4967 67.0028 18.62C67.0028 18.7434 66.9683 18.8618 66.909 18.9655C66.8449 19.0691 66.761 19.1332 66.6574 19.153C65.9418 19.2813 65.3842 19.3948 64.9796 19.4984C64.5799 19.602 64.2838 19.7994 64.0963 20.0807C63.9088 20.3669 63.7903 20.7814 63.7509 21.3291C63.7065 21.8769 63.6867 22.6566 63.6867 23.6682V35.3287C63.6867 36.0245 63.7311 36.5673 63.815 36.9571C63.8989 37.347 64.0519 37.648 64.2739 37.8552C64.496 38.0674 64.8069 38.2204 65.2066 38.3142C65.6063 38.4079 66.1244 38.4869 66.7561 38.551C66.8844 38.5708 66.9831 38.6398 67.0571 38.7583C67.1311 38.8767 67.1706 38.9951 67.1706 39.1234C67.1706 39.2517 67.1311 39.3652 67.0571 39.4689C66.9831 39.5725 66.8745 39.6268 66.7265 39.6268C65.8826 39.6268 65.0783 39.5824 64.3085 39.4985C63.5387 39.4146 62.7738 39.3702 62.0139 39.3702C61.2145 39.3702 60.3854 39.4146 59.5318 39.4985C58.6781 39.5824 57.9033 39.6268 57.2075 39.6268C57.0792 39.6268 56.9855 39.5725 56.9213 39.4689C56.8572 39.3652 56.8276 39.2468 56.8276 39.1234C56.8276 39.0001 56.8572 38.8767 56.9213 38.7583C56.9855 38.6448 57.0792 38.5757 57.2075 38.551C57.8589 38.4869 58.382 38.4079 58.7718 38.3142C59.1617 38.2204 59.4676 38.0674 59.6897 37.8552C59.9117 37.643 60.0598 37.342 60.1338 36.9571C60.2078 36.5673 60.2423 36.0245 60.2423 35.3287V23.6089C60.2423 23.4609 60.1585 23.3918 59.9907 23.4017C59.8229 23.4116 59.7193 23.4806 59.6749 23.6089L55.1202 34.322C54.8044 35.0573 54.4935 35.8666 54.1875 36.74C53.8816 37.6134 53.5806 38.4918 53.2845 39.38C53.2648 39.4442 53.2056 39.4935 53.1118 39.5231C53.018 39.5528 52.9193 39.5725 52.8108 39.5725C52.7022 39.5725 52.6035 39.5577 52.5098 39.5231C52.416 39.4935 52.3568 39.4442 52.3371 39.38L45.3792 23.456C45.3348 23.3523 45.246 23.2882 45.1128 23.2685C44.9746 23.2487 44.9055 23.3227 44.9055 23.4905V35.2448C44.9055 36.0048 44.9697 36.592 45.093 37.0163C45.2213 37.4358 45.4039 37.7516 45.6457 37.9638C45.8875 38.176 46.1885 38.3191 46.5487 38.3882C46.909 38.4622 47.3284 38.5313 47.812 38.5954C47.9156 38.6152 47.9946 38.6793 48.0489 38.783C48.1031 38.8866 48.1278 39.005 48.1278 39.1284C48.1278 39.2517 48.1031 39.3702 48.0489 39.4738C47.9946 39.5774 47.9058 39.6317 47.7775 39.6317C47.3136 39.6317 46.8004 39.5873 46.2428 39.5034C45.6852 39.4195 45.0239 39.3751 44.264 39.3751C43.4646 39.3751 42.7491 39.4195 42.1322 39.5034C41.5105 39.5873 40.9874 39.6317 40.568 39.6317C40.4594 39.6317 40.3755 39.5774 40.3163 39.4738C40.2521 39.3702 40.2176 39.2517 40.2077 39.1284C40.1979 39.0001 40.2225 38.8866 40.2867 38.783C40.3508 38.6793 40.4446 38.6152 40.5729 38.5954C41.1206 38.5313 41.5796 38.4622 41.9497 38.3882C42.3198 38.3142 42.6158 38.1711 42.8379 37.9638C43.0599 37.7516 43.2179 37.4358 43.3116 37.0163C43.4054 36.5969 43.4547 36.0048 43.4547 35.2448V22.0693L43.4448 22.0644Z" fill="#E70033"/>
<path id="Vector_18" d="M80.884 30.7493C81.18 30.7493 81.3774 30.6999 81.486 30.6062C81.5896 30.5124 81.5896 30.3397 81.486 30.0831L78.7325 22.691C78.693 22.5874 78.6042 22.5331 78.4808 22.5331C78.3574 22.5331 78.2686 22.5874 78.2291 22.691L75.3522 30.0831C75.2486 30.3594 75.2387 30.5371 75.3226 30.621C75.4065 30.7049 75.5644 30.7493 75.7964 30.7493H80.8889H80.884ZM75.446 31.9829C75.1499 31.9829 74.9427 32.0323 74.8144 32.126C74.6861 32.2198 74.5726 32.3826 74.464 32.6146L73.0428 36.3402C72.9392 36.656 72.8849 36.8978 72.8849 37.0656C72.8849 37.337 72.954 37.564 73.0922 37.7466C73.2303 37.9242 73.4129 38.0673 73.6449 38.171C73.8768 38.2746 74.1383 38.3585 74.4344 38.4226C74.7305 38.4868 75.0364 38.5263 75.3522 38.5509C75.5003 38.5509 75.6039 38.6101 75.6681 38.7236C75.7322 38.8371 75.7618 38.9605 75.7618 39.0888C75.7618 39.2171 75.7322 39.3355 75.6681 39.454C75.6039 39.5675 75.5003 39.6267 75.3522 39.6267C74.8489 39.6267 74.2666 39.5823 73.6152 39.4984C72.9589 39.4145 72.3372 39.3701 71.75 39.3701C71.2022 39.3701 70.6742 39.4145 70.1709 39.4984C69.6626 39.5823 69.1149 39.6267 68.5276 39.6267C68.424 39.6267 68.3303 39.5724 68.2562 39.4688C68.1822 39.3651 68.1378 39.2467 68.1279 39.1234C68.1181 38.9951 68.1378 38.8766 68.1921 38.7582C68.2464 38.6447 68.3451 38.5756 68.4931 38.5509L68.9668 38.4868C69.2826 38.4226 69.5738 38.3437 69.8353 38.2499C70.0968 38.1562 70.3386 38.0032 70.5607 37.791C70.7828 37.5837 70.9999 37.3025 71.2071 36.9521C71.4193 36.6067 71.6266 36.1576 71.8388 35.6099L78.9841 17.633C79.0483 17.4652 79.2161 17.3813 79.4875 17.3813C79.7835 17.3813 80.0155 17.4652 80.1832 17.633C80.7112 18.9802 81.2738 20.426 81.8758 21.9607C82.4779 23.5003 83.0947 25.0646 83.7263 26.6535C84.3579 28.2425 84.9896 29.8216 85.6261 31.3908C86.2578 32.96 86.8598 34.4404 87.4273 35.8319C87.679 36.4438 87.9257 36.9176 88.1724 37.2531C88.4142 37.5887 88.656 37.8453 88.8978 38.0131C89.1396 38.1808 89.3863 38.2993 89.6429 38.3585C89.8946 38.4226 90.1709 38.4868 90.467 38.5509C90.5953 38.5707 90.6841 38.6398 90.7335 38.7582C90.7878 38.8766 90.8125 38.9951 90.8125 39.1234C90.8125 39.2517 90.7878 39.3651 90.7335 39.4688C90.6792 39.5724 90.6003 39.6267 90.4966 39.6267C89.8206 39.6267 89.1742 39.5823 88.5524 39.4984C87.9306 39.4145 87.2299 39.3701 86.4502 39.3701C85.5669 39.3701 84.733 39.4145 83.9533 39.4984C83.1736 39.5823 82.4236 39.6267 81.708 39.6267C81.56 39.6267 81.4514 39.5675 81.3774 39.454C81.3034 39.3405 81.2689 39.2072 81.2689 39.0592C81.2689 38.9358 81.2985 38.8223 81.3626 38.7286C81.4268 38.6348 81.5304 38.5756 81.6784 38.5559C82.394 38.472 82.922 38.3437 83.2575 38.1759C83.5931 38.0081 83.7609 37.6627 83.7609 37.1347C83.7609 36.9867 83.7461 36.8189 83.7115 36.6314C83.6819 36.4389 83.6128 36.1823 83.5043 35.8566C83.4006 35.5309 83.2526 35.1115 83.0601 34.5934C82.8726 34.0802 82.616 33.4189 82.3002 32.6195C82.1966 32.3481 82.0535 32.1704 81.8758 32.0964C81.6982 32.0224 81.407 31.9879 81.0073 31.9879H75.4411L75.446 31.9829Z" fill="#E70033"/>
<path id="Vector_19" d="M98.9047 27.2753C98.9047 27.8231 99.0577 28.1438 99.3637 28.2376C99.6696 28.3313 100.129 28.3807 100.74 28.3807C101.565 28.3807 102.255 28.3017 102.813 28.1438C103.371 27.9859 103.82 27.7244 104.155 27.3543C104.491 26.9842 104.728 26.5105 104.866 25.9331C105.004 25.3558 105.073 24.6402 105.073 23.8013C105.073 22.9625 104.999 22.321 104.851 21.7633C104.703 21.2057 104.466 20.7517 104.14 20.4063C103.815 20.0609 103.385 19.8142 102.857 19.6661C102.329 19.5181 101.688 19.4441 100.928 19.4441C100.104 19.4441 99.561 19.5477 99.2995 19.7599C99.038 19.9721 98.9047 20.4014 98.9047 21.0528V27.2753ZM95.4604 23.5151C95.4604 23.0513 95.4456 22.5973 95.411 22.1581C95.3814 21.714 95.3123 21.3044 95.2038 20.9245C95.1001 20.5445 94.9373 20.2188 94.7152 19.9474C94.4932 19.676 94.1922 19.4835 93.8122 19.3799C93.5803 19.3158 93.3385 19.2664 93.0868 19.222C92.8351 19.1825 92.5933 19.148 92.3614 19.1282C92.2331 19.1282 92.1394 19.074 92.0752 18.9703C92.0111 18.8667 91.9814 18.7483 91.9814 18.6249C91.9814 18.5015 92.0111 18.3831 92.0752 18.2795C92.1394 18.1759 92.2331 18.1216 92.3614 18.1216C93.0769 18.1216 93.7184 18.1413 94.2909 18.1857C94.8583 18.2301 95.5245 18.2499 96.2844 18.2499C97.5477 18.2301 98.5988 18.2005 99.4327 18.1709C100.267 18.1413 101.061 18.1216 101.821 18.1216C102.665 18.1216 103.499 18.2203 104.318 18.4226C105.142 18.6249 105.872 18.9457 106.514 19.3848C107.155 19.829 107.674 20.4063 108.063 21.1218C108.453 21.8374 108.651 22.7009 108.651 23.7125C108.651 24.5119 108.527 25.2077 108.285 25.7999C108.044 26.392 107.708 26.8954 107.289 27.3148C106.869 27.7343 106.366 28.0797 105.789 28.3412C105.211 28.6077 104.58 28.81 103.908 28.958C103.76 28.9975 103.686 29.0715 103.686 29.1801C103.686 29.264 103.76 29.3479 103.908 29.4318C104.9 29.9154 105.665 30.4532 106.203 31.0405C106.741 31.6326 107.151 32.2396 107.437 32.8712C107.723 33.5028 107.925 34.1493 108.054 34.8155C108.182 35.4816 108.315 36.1281 108.463 36.7597C108.567 37.2433 108.744 37.5986 108.986 37.8206C109.228 38.0427 109.475 38.1513 109.731 38.1513C109.988 38.1513 110.225 38.0476 110.457 37.8355C110.689 37.6233 110.866 37.3074 110.995 36.888C111.039 36.7202 111.123 36.6067 111.246 36.5574C111.375 36.5031 111.493 36.4932 111.611 36.5278C111.725 36.5574 111.833 36.6215 111.927 36.7153C112.021 36.809 112.06 36.9127 112.041 37.0163C111.977 37.5443 111.829 37.9934 111.597 38.3733C111.365 38.7533 111.083 39.0642 110.758 39.306C110.432 39.5478 110.062 39.7254 109.652 39.8438C109.243 39.9573 108.833 40.0166 108.434 40.0166C107.757 40.0166 107.146 39.8685 106.598 39.5724C106.05 39.2764 105.68 38.8569 105.492 38.3092C105.364 37.9489 105.246 37.564 105.127 37.1397C105.014 36.7202 104.9 36.2909 104.797 35.8616C104.693 35.4273 104.585 35.0079 104.481 34.5983C104.372 34.1888 104.279 33.8236 104.195 33.5078C103.815 32.1606 103.326 31.1885 102.724 30.6013C102.122 30.0141 101.288 29.718 100.212 29.718C99.8522 29.718 99.5462 29.792 99.2946 29.94C99.0429 30.0881 98.9146 30.3792 98.9146 30.8233V35.0869C98.9146 35.8024 98.9886 36.3748 99.1367 36.809C99.2847 37.2384 99.5068 37.5788 99.8028 37.8206C100.099 38.0624 100.459 38.2352 100.893 38.3437C101.328 38.4473 101.826 38.5214 102.394 38.5658C102.522 38.5658 102.621 38.625 102.695 38.7385C102.769 38.852 102.803 38.9852 102.803 39.1333C102.803 39.2616 102.769 39.3751 102.695 39.4787C102.621 39.5823 102.512 39.6366 102.364 39.6366C101.308 39.6366 100.38 39.5922 99.5808 39.5083C98.7764 39.4244 97.9968 39.38 97.2418 39.38C96.4424 39.38 95.6479 39.4244 94.8682 39.5083C94.0885 39.5922 93.3286 39.6366 92.5933 39.6366C92.465 39.6366 92.3713 39.5823 92.3071 39.4787C92.243 39.3751 92.2084 39.2566 92.1986 39.1333C92.1887 39.005 92.2134 38.8865 92.2775 38.7681C92.3417 38.6546 92.4453 38.5855 92.5933 38.5608C93.1806 38.4967 93.6691 38.4128 94.0491 38.3092C94.429 38.2055 94.7251 38.0378 94.9373 37.8058C95.1495 37.5739 95.2926 37.268 95.3617 36.888C95.4357 36.508 95.4702 36.0047 95.4702 35.3731V23.525L95.4604 23.5151Z" fill="#E70033"/>
<path id="Vector_20" d="M125.31 30.7493C125.606 30.7493 125.803 30.6999 125.912 30.6062C126.015 30.5124 126.015 30.3397 125.912 30.0831L123.163 22.691C123.119 22.5874 123.035 22.5331 122.912 22.5331C122.788 22.5331 122.699 22.5874 122.66 22.691L119.783 30.0831C119.679 30.3594 119.665 30.5371 119.753 30.621C119.837 30.7049 119.995 30.7493 120.227 30.7493H125.32H125.31ZM119.872 31.9829C119.576 31.9829 119.368 32.0323 119.24 32.126C119.112 32.2198 118.998 32.3826 118.895 32.6146L117.474 36.3402C117.37 36.656 117.316 36.8978 117.316 37.0656C117.316 37.337 117.385 37.564 117.523 37.7466C117.661 37.9242 117.844 38.0673 118.076 38.171C118.307 38.2746 118.569 38.3585 118.865 38.4226C119.161 38.4868 119.467 38.5263 119.783 38.5509C119.931 38.5509 120.035 38.6101 120.099 38.7236C120.163 38.8371 120.193 38.9605 120.193 39.0888C120.193 39.2171 120.163 39.3355 120.099 39.454C120.035 39.5675 119.931 39.6267 119.783 39.6267C119.275 39.6267 118.697 39.5823 118.041 39.4984C117.39 39.4145 116.768 39.3701 116.176 39.3701C115.628 39.3701 115.1 39.4145 114.597 39.4984C114.093 39.5823 113.541 39.6267 112.953 39.6267C112.85 39.6267 112.756 39.5724 112.682 39.4688C112.608 39.3651 112.564 39.2467 112.554 39.1234C112.544 38.9951 112.564 38.8766 112.618 38.7582C112.672 38.6447 112.771 38.5756 112.919 38.5509L113.393 38.4868C113.708 38.4226 114 38.3437 114.261 38.2499C114.523 38.1562 114.764 38.0032 114.986 37.791C115.209 37.5837 115.426 37.3025 115.633 36.9521C115.845 36.6067 116.057 36.1576 116.265 35.6099L123.41 17.633C123.474 17.4652 123.642 17.3813 123.918 17.3813C124.214 17.3813 124.446 17.4652 124.614 17.633C125.142 18.9802 125.705 20.426 126.307 21.9607C126.909 23.5003 127.525 25.0646 128.157 26.6535C128.789 28.2425 129.42 29.8216 130.052 31.3908C130.684 32.96 131.286 34.4404 131.853 35.8319C132.105 36.4438 132.351 36.9176 132.598 37.2531C132.84 37.5887 133.082 37.8453 133.324 38.0131C133.565 38.1808 133.812 38.2993 134.069 38.3585C134.32 38.4226 134.597 38.4868 134.893 38.5509C135.021 38.5707 135.11 38.6398 135.164 38.7582C135.218 38.8766 135.243 38.9951 135.243 39.1234C135.243 39.2517 135.218 39.3651 135.164 39.4688C135.11 39.5724 135.031 39.6267 134.927 39.6267C134.251 39.6267 133.605 39.5823 132.983 39.4984C132.361 39.4145 131.661 39.3701 130.881 39.3701C129.998 39.3701 129.164 39.4145 128.384 39.4984C127.604 39.5823 126.854 39.6267 126.139 39.6267C125.991 39.6267 125.882 39.5675 125.808 39.454C125.734 39.3405 125.7 39.2072 125.7 39.0592C125.7 38.9358 125.729 38.8223 125.793 38.7286C125.857 38.6348 125.961 38.5756 126.109 38.5559C126.825 38.472 127.353 38.3437 127.688 38.1759C128.024 38.0081 128.192 37.6627 128.192 37.1347C128.192 36.9867 128.177 36.8189 128.142 36.6314C128.113 36.4389 128.039 36.1823 127.935 35.8566C127.831 35.5309 127.683 35.1115 127.491 34.5934C127.303 34.0802 127.047 33.4189 126.731 32.6195C126.622 32.3481 126.484 32.1704 126.302 32.0964C126.124 32.0224 125.833 31.9879 125.433 31.9879H119.867L119.872 31.9829Z" fill="#E70033"/>
<path id="Vector_21" d="M143.336 33.4979C143.336 34.549 143.385 35.3879 143.479 36.0096C143.573 36.6314 143.76 37.1002 144.032 37.416C144.303 37.7318 144.698 37.9391 145.216 38.0328C145.734 38.1266 146.425 38.1759 147.289 38.1759C148.236 38.1759 149.11 37.9736 149.899 37.5739C150.689 37.1742 151.37 36.587 151.937 35.8221C152.505 35.0523 152.949 34.1098 153.264 32.9946C153.58 31.8793 153.738 30.5963 153.738 29.1406C153.738 27.601 153.58 26.2391 153.264 25.0498C152.949 23.8606 152.431 22.8588 151.715 22.0496C150.999 21.2403 150.042 20.6284 148.853 20.2188C147.664 19.8092 146.203 19.602 144.476 19.602C144.052 19.602 143.76 19.676 143.593 19.824C143.425 19.9721 143.341 20.2583 143.341 20.6777V33.5078L143.336 33.4979ZM139.887 23.5151C139.887 23.0513 139.872 22.5973 139.837 22.1581C139.808 21.714 139.739 21.3044 139.63 20.9245C139.526 20.5445 139.364 20.2188 139.142 19.9474C138.92 19.676 138.618 19.4835 138.239 19.3799C138.007 19.3158 137.765 19.2664 137.513 19.222C137.261 19.1825 137.02 19.148 136.783 19.1282C136.655 19.1282 136.561 19.074 136.497 18.9703C136.432 18.8667 136.403 18.7483 136.403 18.6249C136.403 18.5015 136.432 18.3831 136.497 18.2795C136.561 18.1759 136.655 18.1216 136.783 18.1216C137.498 18.1216 138.145 18.1413 138.712 18.1857C139.28 18.2301 139.946 18.2499 140.706 18.2499C141.569 18.2499 142.423 18.2351 143.267 18.2005C144.111 18.1709 144.964 18.1413 145.828 18.1216C147.555 18.1216 149.154 18.393 150.62 18.9407C152.085 19.4885 153.343 20.2533 154.399 21.2304C155.451 22.2075 156.28 23.377 156.882 24.7389C157.484 26.096 157.785 27.5763 157.785 29.1801C157.785 30.9516 157.498 32.4863 156.931 33.794C156.363 35.1017 155.584 36.1922 154.592 37.0656C153.6 37.9391 152.426 38.5855 151.064 39.0099C149.707 39.4343 148.236 39.6415 146.652 39.6415C145.705 39.6415 144.782 39.5971 143.884 39.5132C142.986 39.4293 142.181 39.3849 141.466 39.3849C141.022 39.3849 140.622 39.3899 140.262 39.3997C139.901 39.4096 139.556 39.4244 139.221 39.4491C138.885 39.4688 138.54 39.5034 138.194 39.5428C137.849 39.5823 137.459 39.6267 137.039 39.6711C136.911 39.6909 136.812 39.6514 136.738 39.5428C136.664 39.4392 136.615 39.3208 136.595 39.1974C136.576 39.0691 136.595 38.9457 136.674 38.8174C136.748 38.6891 136.872 38.6151 137.039 38.5954C137.543 38.5312 137.977 38.4424 138.337 38.3289C138.697 38.2154 138.989 38.0526 139.221 37.8404C139.452 37.6282 139.62 37.3568 139.724 37.0212C139.827 36.6857 139.882 36.2416 139.882 35.6938V23.5299L139.887 23.5151Z" fill="#E70033"/>
<path id="Vector_22" d="M170.877 38.4274C171.908 38.4274 172.821 38.156 173.611 37.6083C174.4 37.0606 175.071 36.3401 175.619 35.442C176.167 34.5488 176.581 33.5175 176.867 32.348C177.154 31.1785 177.292 29.9645 177.292 28.6963C177.292 27.4281 177.183 26.2734 176.961 25.0941C176.739 23.9147 176.379 22.8685 175.871 21.9507C175.367 21.0329 174.691 20.2976 173.847 19.74C173.004 19.1824 171.972 18.9011 170.748 18.9011C169.609 18.9011 168.627 19.1824 167.793 19.7548C166.959 20.3223 166.278 21.0674 165.755 21.9803C165.227 22.8981 164.837 23.9394 164.585 25.1089C164.333 26.2784 164.205 27.4627 164.205 28.6618C164.205 29.9251 164.309 31.1489 164.521 32.3282C164.733 33.5076 165.088 34.5439 165.597 35.442C166.105 36.3401 166.781 37.0606 167.635 37.6083C168.488 38.156 169.569 38.4274 170.877 38.4274ZM170.753 39.7549C167.442 39.7549 164.852 38.8173 162.971 36.9421C161.096 35.067 160.159 32.2641 160.159 28.5384C160.159 26.9396 160.42 25.4642 160.948 24.117C161.476 22.7698 162.207 21.6102 163.144 20.643C164.082 19.6758 165.202 18.9208 166.51 18.383C167.817 17.8451 169.258 17.5786 170.842 17.5786C172.426 17.5786 173.793 17.8352 175.081 18.3534C176.364 18.8715 177.474 19.6018 178.402 20.5493C179.33 21.4967 180.05 22.6415 180.568 23.9788C181.082 25.3161 181.343 26.8064 181.343 28.4496C181.343 30.2804 181.062 31.8989 180.504 33.3004C179.947 34.7018 179.187 35.8812 178.229 36.8385C177.267 37.7958 176.147 38.5261 174.864 39.0196C173.576 39.5131 172.209 39.7598 170.753 39.7598V39.7549Z" fill="#E70033"/>
<path id="Vector_23" d="M190.358 27.2753C190.358 27.8231 190.511 28.1438 190.817 28.2376C191.123 28.3313 191.582 28.3807 192.194 28.3807C193.018 28.3807 193.709 28.3017 194.267 28.1438C194.824 27.9859 195.273 27.7244 195.609 27.3543C195.944 26.9842 196.181 26.5105 196.319 25.9331C196.458 25.3558 196.527 24.6402 196.527 23.8013C196.527 22.9625 196.453 22.321 196.305 21.7633C196.157 21.2057 195.92 20.7517 195.594 20.4063C195.268 20.0609 194.839 19.8142 194.311 19.6661C193.783 19.5181 193.142 19.4441 192.382 19.4441C191.558 19.4441 191.015 19.5477 190.753 19.7599C190.492 19.9721 190.358 20.4014 190.358 21.0528V27.2753ZM186.909 23.5151C186.909 23.0513 186.894 22.5973 186.86 22.1581C186.83 21.714 186.761 21.3044 186.653 20.9245C186.549 20.5445 186.381 20.2188 186.164 19.9474C185.942 19.676 185.641 19.4835 185.261 19.3799C185.029 19.3158 184.787 19.2664 184.531 19.222C184.279 19.1825 184.037 19.148 183.805 19.1282C183.677 19.1282 183.583 19.074 183.519 18.9703C183.455 18.8667 183.425 18.7483 183.425 18.6249C183.425 18.5015 183.46 18.3831 183.519 18.2795C183.583 18.1759 183.677 18.1216 183.805 18.1216C184.521 18.1216 185.167 18.1413 185.735 18.1857C186.302 18.2301 186.968 18.2499 187.728 18.2499C188.992 18.2301 190.043 18.2005 190.877 18.1709C191.711 18.1413 192.505 18.1216 193.265 18.1216C194.109 18.1216 194.943 18.2203 195.762 18.4226C196.586 18.6249 197.316 18.9457 197.958 19.3848C198.599 19.829 199.117 20.4063 199.507 21.1218C199.897 21.8374 200.094 22.7009 200.094 23.7125C200.094 24.5119 199.971 25.2077 199.729 25.7999C199.488 26.392 199.157 26.8954 198.733 27.3148C198.313 27.7343 197.81 28.0797 197.232 28.3412C196.65 28.6077 196.023 28.81 195.352 28.958C195.204 28.9975 195.13 29.0715 195.13 29.1801C195.13 29.264 195.204 29.3479 195.352 29.4318C196.344 29.9154 197.109 30.4532 197.647 31.0405C198.185 31.6326 198.594 32.2396 198.881 32.8712C199.167 33.5028 199.369 34.1493 199.497 34.8155C199.626 35.4816 199.759 36.1281 199.907 36.7597C200.011 37.2433 200.183 37.5986 200.43 37.8206C200.672 38.0427 200.919 38.1513 201.175 38.1513C201.432 38.1513 201.669 38.0476 201.901 37.8355C202.132 37.6233 202.31 37.3074 202.438 36.888C202.483 36.7202 202.567 36.6067 202.69 36.5574C202.818 36.5031 202.937 36.4932 203.055 36.5278C203.169 36.5574 203.277 36.6215 203.371 36.7153C203.465 36.809 203.499 36.9127 203.48 37.0163C203.416 37.5443 203.267 37.9934 203.036 38.3733C202.804 38.7533 202.522 39.0642 202.197 39.306C201.871 39.5478 201.501 39.7254 201.091 39.8438C200.682 39.9573 200.272 40.0166 199.872 40.0166C199.196 40.0166 198.584 39.8685 198.037 39.5724C197.489 39.2764 197.119 38.8569 196.931 38.3092C196.803 37.9489 196.685 37.564 196.566 37.1397C196.453 36.7202 196.339 36.2909 196.236 35.8616C196.132 35.4273 196.023 35.0079 195.92 34.5983C195.816 34.1888 195.717 33.8236 195.634 33.5078C195.254 32.1606 194.765 31.1885 194.163 30.6013C193.561 30.0141 192.727 29.718 191.651 29.718C191.291 29.718 190.985 29.792 190.733 29.94C190.482 30.0881 190.354 30.3792 190.354 30.8233V35.0869C190.354 35.8024 190.428 36.3748 190.576 36.809C190.724 37.2384 190.946 37.5788 191.242 37.8206C191.538 38.0624 191.898 38.2352 192.332 38.3437C192.767 38.4473 193.265 38.5214 193.832 38.5658C193.961 38.5658 194.059 38.625 194.133 38.7385C194.207 38.852 194.242 38.9852 194.242 39.1333C194.242 39.2616 194.203 39.3751 194.133 39.4787C194.059 39.5823 193.951 39.6366 193.803 39.6366C192.747 39.6366 191.824 39.5922 191.02 39.5083C190.22 39.4244 189.441 39.38 188.681 39.38C187.881 39.38 187.092 39.4244 186.312 39.5083C185.532 39.5922 184.772 39.6366 184.037 39.6366C183.909 39.6366 183.815 39.5823 183.751 39.4787C183.687 39.3751 183.652 39.2566 183.642 39.1333C183.633 39.005 183.657 38.8865 183.721 38.7681C183.786 38.6546 183.889 38.5855 184.037 38.5608C184.624 38.4967 185.113 38.4128 185.493 38.3092C185.873 38.2055 186.169 38.0378 186.376 37.8058C186.588 37.5739 186.732 37.268 186.806 36.888C186.88 36.508 186.914 36.0047 186.914 35.3731V23.525L186.909 23.5151Z" fill="#E70033"/>
</g>
</svg>
